<?xml version="1.0" encoding="UTF-8"?>
<svg width="16px" height="16px" viewBox="0 0 16 16" version="1.1" xmlns="http://www.w3.org/2000/svg" xmlns:xlink="http://www.w3.org/1999/xlink">
    <!-- Generator: Sketch 47.1 (45422) - http://www.bohemiancoding.com/sketch -->
    <title>icon-investors</title>
    <desc>Created with Sketch.</desc>
    <defs></defs>
    <g id="Symbols" stroke="none" stroke-width="1" fill="none" fill-rule="evenodd">
        <g id="nav" transform="translate(-31.000000, -325.000000)">
            <rect id="Rectangle-4" fill="#F9FAFA" x="0" y="0" width="260" height="900"></rect>
            <g id="Group-5" transform="translate(32.000000, 100.000000)" fill="#C93A26">
                <g id="Group-13" transform="translate(0.000000, 226.000000)">
                    <polygon id="Fill-3875" points="0.583333333 11.6666667 7 11.6666667 7 10.5 0.583333333 10.5"></polygon>
                    <path d="M6.125,1.27376667 L9.65066667,3.50035 L2.59933333,3.50035 L6.125,1.27376667 Z M11.6666667,4.66701667 C11.92625,4.66701667 12.1549167,4.49493333 12.2266667,4.24585 C12.299,3.99618333 12.1980833,3.72901667 11.9781667,3.59018333 L6.4365,0.0901833333 C6.24633333,-0.0294 6.00366667,-0.0294 5.8135,0.0901833333 L0.271833333,3.59018333 C0.0519166667,3.72901667 -0.049,3.99618333 0.0233333333,4.24585 C0.0950833333,4.49493333 0.32375,4.66701667 0.583333333,4.66701667 L11.6666667,4.66701667 Z" id="Fill-3876"></path>
                    <path d="M2.91666667,8.75 L2.33333333,8.75 L2.33333333,6.41666667 L2.91666667,6.41666667 L2.91666667,8.75 Z M1.75,5.25 C1.428,5.25 1.16666667,5.51133333 1.16666667,5.83333333 L1.16666667,9.33333333 C1.16666667,9.65591667 1.428,9.91666667 1.75,9.91666667 L3.5,9.91666667 C3.822,9.91666667 4.08333333,9.65591667 4.08333333,9.33333333 L4.08333333,5.83333333 C4.08333333,5.51133333 3.822,5.25 3.5,5.25 L1.75,5.25 Z" id="Fill-3877"></path>
                    <path d="M6.41666667,8.75 L5.83333333,8.75 L5.83333333,6.41666667 L6.41666667,6.41666667 L6.41666667,8.75 Z M7.58333333,5.83333333 C7.58333333,5.51133333 7.322,5.25 7,5.25 L5.25,5.25 C4.928,5.25 4.66666667,5.51133333 4.66666667,5.83333333 L4.66666667,9.33333333 C4.66666667,9.65591667 4.928,9.91666667 5.25,9.91666667 L7,9.91666667 C7.322,9.91666667 7.58333333,9.65591667 7.58333333,9.33333333 L7.58333333,5.83333333 Z" id="Fill-3878"></path>
                    <path d="M8.75,5.25029167 C8.428,5.25029167 8.16666667,5.511625 8.16666667,5.833625 L8.16666667,6.41695833 L11.0833333,6.41695833 L11.0833333,5.833625 C11.0833333,5.511625 10.822,5.25029167 10.5,5.25029167 L8.75,5.25029167 Z" id="Fill-3879"></path>
                    <path d="M11.0833333,9.33333333 C10.7619167,9.33333333 10.5,9.07141667 10.5,8.75 C10.5,8.42858333 10.7619167,8.16666667 11.0833333,8.16666667 C11.40475,8.16666667 11.6666667,8.42858333 11.6666667,8.75 C11.6666667,9.07141667 11.40475,9.33333333 11.0833333,9.33333333 M12.8333333,8.75 C12.8333333,7.78516667 12.0481667,7 11.0833333,7 C10.1185,7 9.33333333,7.78516667 9.33333333,8.75 C9.33333333,9.71483333 10.1185,10.5 11.0833333,10.5 C12.0481667,10.5 12.8333333,9.71483333 12.8333333,8.75" id="Fill-3880"></path>
                    <path d="M11.0833333,10.5 C9.47508333,10.5 8.16666667,11.8084167 8.16666667,13.4166667 L8.16666667,14 L9.33333333,14 L9.33333333,13.4166667 C9.33333333,12.4518333 10.1185,11.6666667 11.0833333,11.6666667 C12.0481667,11.6666667 12.8333333,12.4518333 12.8333333,13.4166667 L12.8333333,14 L14,14 L14,13.4166667 C14,11.8084167 12.6915833,10.5 11.0833333,10.5" id="Fill-3881"></path>
                </g>
            </g>
            <g id="Group" transform="translate(10.000000, 93.000000)"></g>
            <g id="Group-4" transform="translate(10.000000, 274.750000)" font-weight="400" font-size="14" font-family="FaktPro-Medium, Fakt Pro" letter-spacing="-0.043555554" fill="#4A4A4A">
                <g id="nav" transform="translate(0.000000, 46.500000)">
                    <text id="Link">
                        <tspan x="46" y="16.5">Investors</tspan>
                    </text>
                </g>
            </g>
        </g>
        <g id="Group-5" transform="translate(1.000000, -224.000000)"></g>
    </g>
</svg>