<?xml version="1.0" encoding="UTF-8"?>
<svg width="16px" height="16px" viewBox="0 0 16 16" version="1.1" xmlns="http://www.w3.org/2000/svg" xmlns:xlink="http://www.w3.org/1999/xlink">
    <!-- Generator: Sketch 47.1 (45422) - http://www.bohemiancoding.com/sketch -->
    <title>icon-home</title>
    <desc>Created with Sketch.</desc>
    <defs></defs>
    <g id="Symbols" stroke="none" stroke-width="1" fill="none" fill-rule="evenodd">
        <g id="nav" transform="translate(-31.000000, -97.000000)">
            <rect id="Rectangle-4" fill="#F9FAFA" x="0" y="0" width="260" height="900"></rect>
            <g id="Group-5" transform="translate(32.000000, 100.000000)" fill="#C93A26">
                <g id="Group-6">
                    <path d="M5.57062382,6.94736842 L8.0468143,6.94736842 C8.38852859,6.94736842 8.66586192,7.20673684 8.66586192,7.52631579 L8.66586192,9.84210526 L9.90519525,9.84210526 L9.90395716,5.78947368 C9.90395716,5.46989474 10.1812905,5.21052632 10.5230048,5.21052632 L10.8857667,5.21052632 L6.80871906,1.39815789 L2.73167144,5.21052632 L3.09443335,5.21052632 C3.43614763,5.21052632 3.71348097,5.46989474 3.71348097,5.78947368 L3.71348097,9.84210526 L4.95157621,9.84210526 L4.95157621,7.52631579 C4.95157621,7.20673684 5.22890954,6.94736842 5.57062382,6.94736842 M9.90395716,11 L8.66586192,11 C7.9830524,11 7.42776668,10.4806842 7.42776668,9.84210526 L7.42776668,8.10526316 L6.18967144,8.10526316 L6.18967144,9.84210526 C6.18967144,10.4806842 5.63438573,11 4.95157621,11 L3.71348097,11 C3.03067144,11 2.47538573,10.4806842 2.47538573,9.84210526 L2.47538573,6.36842105 L1.23729049,6.36842105 C0.987195253,6.36842105 0.761242872,6.22715789 0.665290491,6.01063158 C0.56933811,5.79468421 0.622576205,5.54573684 0.799623824,5.38015789 L6.3710524,0.169631579 C6.61310001,-0.0567368421 7.00433811,-0.0567368421 7.24638573,0.169631579 L12.8178143,5.38015789 C12.9948619,5.54573684 13.0481,5.79468421 12.9521476,6.01063158 C12.8561953,6.22715789 12.6302429,6.36842105 12.3801476,6.36842105 L11.1420524,6.36842105 L11.1420524,9.84210526 C11.1420524,10.4806842 10.5867667,11 9.90395716,11" id="Fill-2243"></path>
                </g>
            </g>
            <g id="Group" transform="translate(10.000000, 93.000000)" font-weight="400" font-size="14" font-family="FaktPro-Medium, Fakt Pro" letter-spacing="-0.043555554" fill="#4A4A4A">
                <g id="nav" transform="translate(0.000000, 0.250000)">
                    <text id="Link">
                        <tspan x="46" y="16.5">Home</tspan>
                    </text>
                </g>
            </g>
        </g>
        <g id="Group-5" transform="translate(1.000000, 4.000000)"></g>
    </g>
</svg>