<?xml version="1.0" encoding="UTF-8"?>
<svg width="16px" height="16px" viewBox="0 0 16 16" version="1.1" xmlns="http://www.w3.org/2000/svg" xmlns:xlink="http://www.w3.org/1999/xlink">
    <!-- Generator: Sketch 47.1 (45422) - http://www.bohemiancoding.com/sketch -->
    <title>icon-addressbook</title>
    <desc>Created with Sketch.</desc>
    <defs></defs>
    <g id="Symbols" stroke="none" stroke-width="1" fill="none" fill-rule="evenodd">
        <g id="nav" transform="translate(-31.000000, -199.000000)">
            <rect id="Rectangle-4" fill="#F9FAFA" x="0" y="0" width="260" height="900"></rect>
            <g id="Group-5" transform="translate(32.000000, 100.000000)" fill="#C93A26">
                <g id="Group-9" transform="translate(1.000000, 101.000000)">
                    <path d="M9.6,2.4 L10.8,2.4 L10.8,3.6 L9.6,3.6 L9.6,2.4 Z M10.8,6 L9.6,6 L9.6,4.8 L10.8,4.8 L10.8,6 Z M8.4012,10.8 L1.2,10.8 L1.2,1.2 L8.4,1.2 L8.4012,10.8 Z M9.6,1.2 C9.6,0.5376 9.0618,0 8.4,0 L1.2,0 C0.5382,0 0,0.5376 0,1.2 L0,10.8 C0,11.4618 0.5382,12 1.2,12 L8.4,12 C9.0618,12 9.6,11.4618 9.6,10.8 L9.6,7.2 L12,7.2 L12,4.8 L12,3.6 L12,1.2 L9.6,1.2 Z" id="Fill-1873"></path>
                    <path d="M3,7.8 C3,6.6954 3.6954,6 4.8,6 C5.9046,6 6.6,6.6954 6.6,7.8 L3,7.8 Z" id="Fill-1874"></path>
                    <path d="M6,4.2 C6,4.8624 5.4624,5.4 4.8,5.4 C4.1376,5.4 3.6,4.8624 3.6,4.2 C3.6,3.5376 4.1376,3 4.8,3 C5.4624,3 6,3.5376 6,4.2" id="Fill-1875"></path>
                </g>
            </g>
            <g id="Group" transform="translate(10.000000, 93.000000)"></g>
            <g id="Group-4" transform="translate(10.000000, 144.750000)" font-weight="400" font-size="14" font-family="FaktPro-Medium, Fakt Pro" letter-spacing="-0.043555554" fill="#4A4A4A">
                <g id="nav" transform="translate(0.000000, 50.500000)">
                    <text id="Link">
                        <tspan x="46" y="16.5">People</tspan>
                    </text>
                </g>
            </g>
        </g>
        <g id="Group-5" transform="translate(1.000000, -98.000000)"></g>
    </g>
</svg>