<?xml version="1.0" encoding="UTF-8"?>
<svg width="16px" height="16px" viewBox="0 0 16 16" version="1.1" xmlns="http://www.w3.org/2000/svg" xmlns:xlink="http://www.w3.org/1999/xlink">
    <!-- Generator: Sketch 47.1 (45422) - http://www.bohemiancoding.com/sketch -->
    <title>icon-chat</title>
    <desc>Created with Sketch.</desc>
    <defs></defs>
    <g id="Symbols" stroke="none" stroke-width="1" fill="none" fill-rule="evenodd">
        <g id="nav" transform="translate(-31.000000, -175.000000)">
            <rect id="Rectangle-4" fill="#F9FAFA" x="0" y="0" width="260" height="900"></rect>
            <g id="Group-5" transform="translate(32.000000, 100.000000)" fill="#C93A26">
                <g id="Group-8" transform="translate(0.000000, 77.000000)">
                    <path d="M7.58333333,9.45454545 L9.52758333,9.45454545 L11.0833333,10.6363636 L11.0833333,9.45454545 L12.8333333,9.45454545 L12.8333333,5.90909091 L7.58333333,5.90909091 L7.58333333,9.45454545 Z M12.25,13 L9.13908333,10.6363636 L7.29166667,10.6363636 C6.80925,10.6363636 6.41666667,10.2386818 6.41666667,9.75 L6.41666667,5.61363636 C6.41666667,5.12495455 6.80925,4.72727273 7.29166667,4.72727273 L13.125,4.72727273 C13.6074167,4.72727273 14,5.12495455 14,5.61363636 L14,9.75 C14,10.2386818 13.6074167,10.6363636 13.125,10.6363636 L12.25,10.6363636 L12.25,13 Z" id="Fill-1247"></path>
                    <path d="M1.75,10.6363636 L1.75,8.27272727 L0.875,8.27272727 C0.392583333,8.27272727 0,7.87504545 0,7.38636364 L0,0.886363636 C0,0.397681818 0.392583333,0 0.875,0 L8.45833333,0 C8.94075,0 9.33333333,0.397681818 9.33333333,0.886363636 L9.33333333,3.54427273 L8.16666667,3.54427273 L8.16666667,1.18181818 L1.16666667,1.18181818 L1.16666667,7.09090909 L2.91666667,7.09090909 L2.91666667,8.27272727 L4.47241667,7.09090909 L5.25,7.09090909 L5.25,8.27272727 L4.86091667,8.27272727 L1.75,10.6363636 Z" id="Fill-1248"></path>
                </g>
            </g>
            <g id="Group" transform="translate(10.000000, 93.000000)"></g>
            <g id="Group-4" transform="translate(10.000000, 144.750000)" font-weight="400" font-size="14" font-family="FaktPro-Medium, Fakt Pro" letter-spacing="-0.043555554" fill="#4A4A4A">
                <g id="nav" transform="translate(0.000000, 26.500000)">
                    <text id="Link">
                        <tspan x="46" y="16.5">Groups</tspan>
                    </text>
                </g>
            </g>
        </g>
        <g id="Group-5" transform="translate(1.000000, -74.000000)"></g>
    </g>
</svg>