<?xml version="1.0" encoding="UTF-8"?>
<svg width="12px" height="13px" viewBox="0 0 12 13" version="1.1" xmlns="http://www.w3.org/2000/svg" xmlns:xlink="http://www.w3.org/1999/xlink">
    <!-- Generator: Sketch 46.2 (44496) - http://www.bohemiancoding.com/sketch -->
    <title>Group 17</title>
    <desc>Created with Sketch.</desc>
    <defs></defs>
    <g id="Symbols" stroke="none" stroke-width="1" fill="none" fill-rule="evenodd">
        <g id="nav" transform="translate(-33.000000, -453.000000)" fill="#C93A26">
            <g id="Group-5" transform="translate(32.000000, 100.000000)">
                <g id="Group-17" transform="translate(1.000000, 353.000000)">
                    <path d="M10.79826,11.1431667 L1.20006,11.1431667 L1.20006,1.23840476 L10.80006,1.23840476 L10.79826,11.1431667 Z M10.80006,0.00030952381 L1.20006,0.00030952381 C0.53826,0.00030952381 6.00000001e-05,0.555595238 6.00000001e-05,1.23840476 L6.00000001e-05,11.1431667 C6.00000001e-05,11.8259762 0.53826,12.3812619 1.20006,12.3812619 L10.80006,12.3812619 C11.46186,12.3812619 12.00006,11.8259762 12.00006,11.1431667 L12.00006,1.23840476 C12.00006,0.555595238 11.46186,0.00030952381 10.80006,0.00030952381 L10.80006,0.00030952381 Z" id="Fill-1082"></path>
                    <polygon id="Fill-1083" points="9.6 3.0952381 2.4 3.0952381 2.4 4.33333333 9.6 4.33333333"></polygon>
                    <polygon id="Fill-1084" points="9.6 5.57142857 2.4 5.57142857 2.4 6.80952381 9.6 6.80952381"></polygon>
                    <polygon id="Fill-1085" points="7.8 8.04761905 2.4 8.04761905 2.4 9.28571429 7.8 9.28571429"></polygon>
                </g>
            </g>
        </g>
    </g>
</svg>