<?xml version="1.0" encoding="UTF-8"?>
<svg width="16px" height="16px" viewBox="0 0 16 16" version="1.1" xmlns="http://www.w3.org/2000/svg" xmlns:xlink="http://www.w3.org/1999/xlink">
    <!-- Generator: Sketch 47.1 (45422) - http://www.bohemiancoding.com/sketch -->
    <title>icon-dollar</title>
    <desc>Created with Sketch.</desc>
    <defs></defs>
    <g id="Symbols" stroke="none" stroke-width="1" fill="none" fill-rule="evenodd">
        <g id="nav" transform="translate(-31.000000, -247.000000)">
            <rect id="Rectangle-4" fill="#F9FAFA" x="0" y="0" width="260" height="900"></rect>
            <g id="Group-5" transform="translate(32.000000, 100.000000)" fill="#C93A26">
                <g id="Group-11" transform="translate(1.000000, 151.000000)">
                    <path d="M5.04846,6.85714286 L1.20006,3.192 L1.20006,1.14285714 L6.95166,1.14285714 L10.80006,4.808 L10.80006,6.85714286 L5.04846,6.85714286 Z M1.20006,4.808 L3.35166,6.85714286 L1.20006,6.85714286 L1.20006,4.808 Z M10.80006,3.192 L8.64846,1.14285714 L10.80006,1.14285714 L10.80006,3.192 Z M11.40006,0 L0.60006,0 C0.26886,0 6.00000001e-05,0.256 6.00000001e-05,0.571428571 L6.00000001e-05,7.42857143 C6.00000001e-05,7.744 0.26886,8 0.60006,8 L11.40006,8 C11.73126,8 12.00006,7.744 12.00006,7.42857143 L12.00006,0.571428571 C12.00006,0.256 11.73126,0 11.40006,0 L11.40006,0 Z" id="Fill-382"></path>
                    <path d="M6,5.14285714 C5.3382,5.14285714 4.8,4.63028571 4.8,4 C4.8,3.37028571 5.3382,2.85714286 6,2.85714286 C6.6618,2.85714286 7.2,3.37028571 7.2,4 C7.2,4.63028571 6.6618,5.14285714 6,5.14285714 M6,1.71428571 C4.6764,1.71428571 3.6,2.73942857 3.6,4 C3.6,5.26057143 4.6764,6.28571429 6,6.28571429 C7.3236,6.28571429 8.4,5.26057143 8.4,4 C8.4,2.73942857 7.3236,1.71428571 6,1.71428571" id="Fill-383"></path>
                </g>
            </g>
            <g id="Group" transform="translate(10.000000, 93.000000)"></g>
            <g id="Group-4" transform="translate(10.000000, 144.750000)" font-weight="400" font-size="14" font-family="FaktPro-Medium, Fakt Pro" letter-spacing="-0.043555554" fill="#4A4A4A">
                <g id="nav" transform="translate(0.000000, 98.500000)">
                    <text id="Link">
                        <tspan x="46" y="16.5">Jobs</tspan>
                    </text>
                </g>
            </g>
        </g>
        <g id="Group-5" transform="translate(1.000000, -146.000000)"></g>
    </g>
</svg>