<?xml version="1.0" encoding="UTF-8"?>
<svg width="16px" height="16px" viewBox="0 0 16 16" version="1.1" xmlns="http://www.w3.org/2000/svg" xmlns:xlink="http://www.w3.org/1999/xlink">
    <!-- Generator: Sketch 47.1 (45422) - http://www.bohemiancoding.com/sketch -->
    <title>icon-labs</title>
    <desc>Created with Sketch.</desc>
    <defs></defs>
    <g id="Symbols" stroke="none" stroke-width="1" fill="none" fill-rule="evenodd">
        <g id="nav" transform="translate(-31.000000, -349.000000)">
            <rect id="Rectangle-4" fill="#F9FAFA" x="0" y="0" width="260" height="900"></rect>
            <g id="Group-5" transform="translate(32.000000, 100.000000)" fill="#C93A26">
                <g id="Group-14" transform="translate(0.000000, 250.000000)">
                    <path d="M11.6917667,12.4550696 C11.5852905,12.6571565 11.3748143,12.7825478 11.1426714,12.7825478 L2.47600476,12.7825478 C2.24448095,12.7825478 2.03400476,12.6571565 1.92752857,12.4556783 C1.82043333,12.2529826 1.83652857,12.0113304 1.93990952,11.8622 L3.2071,10.3477652 L10.4134333,10.3477652 L11.6502905,11.8250696 C11.7827667,12.0113304 11.7988619,12.2529826 11.6917667,12.4550696 L11.6917667,12.4550696 Z M5.4301,7.69141739 C5.52171905,7.58246087 5.57124286,7.44611304 5.57124286,7.30428696 L5.57124286,3.04341739 L8.04743333,3.04341739 L8.04743333,3.65211304 L6.8093381,3.65211304 L6.8093381,4.86950435 L8.04743333,4.86950435 L8.04743333,5.4782 L6.19029048,5.4782 L6.19029048,6.6955913 L8.04743333,6.6955913 L8.04743333,7.30428696 C8.04743333,7.44611304 8.09757619,7.58246087 8.18857619,7.69141739 L9.3938619,9.13037391 L4.22543333,9.13037391 L5.4301,7.69141739 Z M4.33314762,1.21733043 L9.28552857,1.21733043 L9.28552857,1.82602609 L4.33314762,1.82602609 L4.33314762,1.21733043 Z M12.6351952,11.0891565 L9.28552857,7.08637391 L9.28552857,3.04341739 L9.90457619,3.04341739 C10.2462905,3.04341739 10.5236238,2.77133043 10.5236238,2.43472174 L10.5236238,0.608634783 C10.5236238,0.272634783 10.2462905,-6.08695653e-05 9.90457619,-6.08695653e-05 L3.7141,-6.08695653e-05 C3.37238571,-6.08695653e-05 3.09505238,0.272634783 3.09505238,0.608634783 L3.09505238,2.43472174 C3.09505238,2.77133043 3.37238571,3.04341739 3.7141,3.04341739 L4.33314762,3.04341739 L4.33314762,7.08637391 L0.954385714,11.1268957 C0.556338095,11.6868957 0.508052381,12.4112435 0.828719048,13.0175043 C1.15000476,13.6237652 1.78081429,13.9999391 2.47600476,13.9999391 L11.1426714,13.9999391 C11.8378619,13.9999391 12.4692905,13.6237652 12.7899571,13.0175043 C13.1106238,12.4112435 13.0629571,11.6868957 12.6351952,11.0891565 L12.6351952,11.0891565 Z" id="Fill-4390"></path>
                </g>
            </g>
            <g id="Group" transform="translate(10.000000, 93.000000)"></g>
            <g id="Group-4" transform="translate(10.000000, 274.750000)" font-weight="400" font-size="14" font-family="FaktPro-Medium, Fakt Pro" letter-spacing="-0.043555554" fill="#4A4A4A">
                <g id="nav" transform="translate(0.000000, 70.500000)">
                    <text id="Link">
                        <tspan x="46" y="16.5">Research</tspan>
                    </text>
                </g>
            </g>
        </g>
        <g id="Group-5" transform="translate(1.000000, -248.000000)"></g>
    </g>
</svg>