<?xml version="1.0" encoding="UTF-8"?>
<svg width="16px" height="16px" viewBox="0 0 16 16" version="1.1" xmlns="http://www.w3.org/2000/svg" xmlns:xlink="http://www.w3.org/1999/xlink">
    <!-- Generator: Sketch 47.1 (45422) - http://www.bohemiancoding.com/sketch -->
    <title>icon-banks</title>
    <desc>Created with Sketch.</desc>
    <defs></defs>
    <g id="Symbols" stroke="none" stroke-width="1" fill="none" fill-rule="evenodd">
        <g id="nav" transform="translate(-31.000000, -397.000000)">
            <rect id="Rectangle-4" fill="#F9FAFA" x="0" y="0" width="260" height="900"></rect>
            <g id="Group-5" transform="translate(32.000000, 100.000000)" fill="#C93A26">
                <g id="Group-16" transform="translate(0.000000, 299.000000)">
                    <path d="M2.09603335,9.84210526 L2.30217621,9.26315789 L11.3148905,9.26315789 L11.5216524,9.84210526 L2.09603335,9.84210526 Z M3.71360478,4.05263158 L4.95170001,4.05263158 L4.95170001,8.10526316 L3.71360478,8.10526316 L3.71360478,4.05263158 Z M2.47550954,2.71757895 L6.80884287,1.19726316 L11.1421762,2.71757895 L11.1421762,2.89473684 L2.47550954,2.89473684 L2.47550954,2.71757895 Z M7.42789049,8.10526316 L6.18979525,8.10526316 L6.18979525,4.05263158 L7.42789049,4.05263158 L7.42789049,8.10526316 Z M9.90408097,8.10526316 L8.66598573,8.10526316 L8.66598573,4.05263158 L9.90408097,4.05263158 L9.90408097,8.10526316 Z M12.9677476,10.2381053 L12.3487,8.50126316 C12.2638905,8.26447368 12.0280333,8.10526316 11.7612238,8.10526316 L11.1421762,8.10526316 L11.1421762,4.05263158 L11.7612238,4.05263158 C12.1029381,4.05263158 12.3802714,3.79326316 12.3802714,3.47368421 L12.3802714,2.31578947 C12.3802714,2.07436842 12.2199381,1.85842105 11.9785095,1.77331579 L7.02612859,0.0364736842 C6.88560478,-0.0121578947 6.73146192,-0.0121578947 6.59155716,0.0364736842 L1.63917621,1.77331579 C1.39774763,1.85842105 1.2374143,2.07436842 1.2374143,2.31578947 L1.2374143,3.47368421 C1.2374143,3.79326316 1.51474763,4.05263158 1.85646192,4.05263158 L2.47550954,4.05263158 L2.47550954,8.10526316 L1.85646192,8.10526316 C1.5896524,8.10526316 1.35317621,8.26447368 1.26898573,8.50126316 L0.64993811,10.2381053 C0.586795253,10.4146842 0.618985729,10.6086316 0.735366681,10.7597368 C0.851747634,10.9108421 1.03870001,11 1.2374143,11 L12.3802714,11 C12.5789857,11 12.7659381,10.9108421 12.8823191,10.7597368 C12.9987,10.6086316 13.0302714,10.4146842 12.9677476,10.2381053 L12.9677476,10.2381053 Z" id="Fill-2329"></path>
                </g>
            </g>
            <g id="Group" transform="translate(10.000000, 93.000000)"></g>
            <g id="Group-4" transform="translate(10.000000, 274.750000)" font-weight="400" font-size="14" font-family="FaktPro-Medium, Fakt Pro" letter-spacing="-0.043555554" fill="#4A4A4A">
                <g id="nav" transform="translate(0.000000, 118.500000)">
                    <text id="Link">
                        <tspan x="46" y="16.5">Banks</tspan>
                    </text>
                </g>
            </g>
        </g>
        <g id="Group-5" transform="translate(1.000000, -296.000000)"></g>
    </g>
</svg>