<?xml version="1.0" encoding="UTF-8"?>
<svg width="166px" height="19px" viewBox="0 0 166 19" version="1.1" xmlns="http://www.w3.org/2000/svg" xmlns:xlink="http://www.w3.org/1999/xlink">
    <!-- Generator: Sketch 47.1 (45422) - http://www.bohemiancoding.com/sketch -->
    <title>ltp-logo</title>
    <desc>Created with Sketch.</desc>
    <defs></defs>
    <g id="Page-1" stroke="none" stroke-width="1" fill="none" fill-rule="evenodd">
        <g id="ltp-logo" transform="translate(0.000000, 1.000000)">
            <path d="M27.458,13 L27.458,0.616 L29.87,0.616 L29.87,10.966 L35.792,10.966 L35.792,13 L27.458,13 Z M36.142,8.644 C36.142,7.94799652 36.2529989,7.31200288 36.475,6.736 C36.6970011,6.15999712 37.008998,5.66800204 37.411,5.26 C37.813002,4.85199796 38.2959972,4.54000108 38.86,4.324 C39.4240028,4.10799892 40.0359967,4 40.696,4 C41.3560033,4 41.9499974,4.09599904 42.478,4.288 C43.0060026,4.48000096 43.4589981,4.76499811 43.837,5.143 C44.2150019,5.52100189 44.502999,5.98299727 44.701,6.529 C44.899001,7.07500273 44.998,7.68999658 44.998,8.374 L44.998,9.022 L38.518,9.022 C38.5420001,9.41800198 38.6109994,9.77199844 38.725,10.084 C38.8390006,10.3960016 38.994999,10.6569989 39.193,10.867 C39.391001,11.077001 39.6219987,11.2389994 39.886,11.353 C40.1500013,11.4670006 40.4439984,11.524 40.768,11.524 C41.0440014,11.524 41.2899989,11.4910003 41.506,11.425 C41.7220011,11.3589997 41.9079992,11.2690006 42.064,11.155 C42.2200008,11.0409994 42.3459995,10.9120007 42.442,10.768 C42.5380005,10.6239993 42.6099998,10.4800007 42.658,10.336 L44.908,10.336 C44.8359996,10.732002 44.6890011,11.1039983 44.467,11.452 C44.2449989,11.8000017 43.9510018,12.1059987 43.585,12.37 C43.2189982,12.6340013 42.7930024,12.8409992 42.307,12.991 C41.8209976,13.1410007 41.2960028,13.216 40.732,13.216 C40.0119964,13.216 39.3670029,13.117001 38.797,12.919 C38.2269972,12.720999 37.744002,12.427002 37.348,12.037 C36.951998,11.6469981 36.652001,11.1670028 36.448,10.597 C36.243999,10.0269971 36.142,9.37600366 36.142,8.644 Z M40.696,5.674 C40.4319987,5.674 40.1860011,5.71599958 39.958,5.8 C39.7299989,5.88400042 39.5260009,6.00699919 39.346,6.169 C39.1659991,6.33100081 39.0130006,6.52899883 38.887,6.763 C38.7609994,6.99700117 38.6620004,7.26999844 38.59,7.582 L42.64,7.582 C42.6039998,7.25799838 42.5350005,6.9760012 42.433,6.736 C42.3309995,6.4959988 42.1990008,6.29800078 42.037,6.142 C41.8749992,5.98599922 41.6830011,5.86900039 41.461,5.791 C41.2389989,5.71299961 40.9840014,5.674 40.696,5.674 Z M46.338,9.976 L46.338,5.944 L44.682,5.944 L44.682,4.216 L46.338,4.216 L46.338,1.552 L48.642,1.552 L48.642,4.216 L50.82,4.216 L50.82,5.944 L48.642,5.944 L48.642,9.832 C48.642,10.0720012 48.6629998,10.2729992 48.705,10.435 C48.7470002,10.5970008 48.8159995,10.7289995 48.912,10.831 C49.0080005,10.9330005 49.1339992,11.0079998 49.29,11.056 C49.4460008,11.1040002 49.6379989,11.128 49.866,11.128 L50.82,11.128 L50.82,13 L49.416,13 C48.8399971,13 48.357002,12.9460005 47.967,12.838 C47.5769981,12.7299995 47.2620012,12.5560012 47.022,12.316 C46.7819988,12.0759988 46.6080005,11.7670019 46.5,11.389 C46.3919995,11.0109981 46.338,10.5400028 46.338,9.976 Z M51.116,10.48 L53.294,10.48 C53.294,10.6960011 53.3449995,10.8819992 53.447,11.038 C53.5490005,11.1940008 53.6869991,11.3199995 53.861,11.416 C54.0350009,11.5120005 54.2299989,11.5809998 54.446,11.623 C54.6620011,11.6650002 54.8899988,11.686 55.13,11.686 C55.4300015,11.686 55.6969988,11.6620002 55.931,11.614 C56.1650012,11.5659998 56.3599992,11.4940005 56.516,11.398 C56.6720008,11.3019995 56.7889996,11.1880007 56.867,11.056 C56.9450004,10.9239993 56.984,10.7680009 56.984,10.588 C56.984,10.4319992 56.9570003,10.3000005 56.903,10.192 C56.8489997,10.0839995 56.7680005,9.99400036 56.66,9.922 C56.5519995,9.84999964 56.4200008,9.78700027 56.264,9.733 C56.1079992,9.67899973 55.9160011,9.63400018 55.688,9.598 L54.086,9.346 C53.677998,9.2859997 53.3120016,9.19900057 52.988,9.085 C52.6639984,8.97099943 52.3790012,8.81800096 52.133,8.626 C51.8869988,8.43399904 51.6950007,8.19100147 51.557,7.897 C51.4189993,7.60299853 51.35,7.25800198 51.35,6.862 C51.35,6.40599772 51.445999,6.00100177 51.638,5.647 C51.830001,5.29299823 52.0999983,4.99300123 52.448,4.747 C52.7960017,4.50099877 53.2069976,4.31500063 53.681,4.189 C54.1550024,4.06299937 54.6679972,4 55.22,4 C55.7840028,4 56.2999977,4.05399946 56.768,4.162 C57.2360023,4.27000054 57.6409983,4.43499889 57.983,4.657 C58.3250017,4.87900111 58.5889991,5.15799832 58.775,5.494 C58.9610009,5.83000168 59.054,6.21999778 59.054,6.664 L56.912,6.664 C56.912,6.47199904 56.8670004,6.30100075 56.777,6.151 C56.6869996,6.00099925 56.5640008,5.88100045 56.408,5.791 C56.2519992,5.70099955 56.072001,5.63500021 55.868,5.593 C55.663999,5.55099979 55.4420012,5.53 55.202,5.53 C54.9619988,5.53 54.743001,5.55399976 54.545,5.602 C54.346999,5.65000024 54.1760007,5.71599958 54.032,5.8 C53.8879993,5.88400042 53.7770004,5.99199934 53.699,6.124 C53.6209996,6.25600066 53.582,6.39999922 53.582,6.556 C53.582,6.70000072 53.6059998,6.82299949 53.654,6.925 C53.7020002,7.02700051 53.7799995,7.11699961 53.888,7.195 C53.9960005,7.27300039 54.1369991,7.3419997 54.311,7.402 C54.4850009,7.4620003 54.7039987,7.50999982 54.968,7.546 L56.552,7.798 C56.948002,7.8580003 57.3049984,7.94499943 57.623,8.059 C57.9410016,8.17300057 58.2259987,8.32299907 58.478,8.509 C58.7300013,8.69500093 58.9279993,8.93499853 59.072,9.229 C59.2160007,9.52300147 59.288,9.87399796 59.288,10.282 C59.288,10.7620024 59.189001,11.1879981 58.991,11.56 C58.792999,11.9320019 58.5080019,12.2409988 58.136,12.487 C57.7639981,12.7330012 57.3230025,12.9159994 56.813,13.036 C56.3029975,13.1560006 55.7420031,13.216 55.13,13.216 C54.5419971,13.216 54.0020025,13.1590006 53.51,13.045 C53.0179975,12.9309994 52.5920018,12.7630011 52.232,12.541 C51.8719982,12.3189989 51.596001,12.0340017 51.404,11.686 C51.211999,11.3379983 51.116,10.9360023 51.116,10.48 Z M59.134,2.632 L59.134,0.616 L69.934,0.616 L69.934,2.632 L65.74,2.632 L65.74,13 L63.328,13 L63.328,2.632 L59.134,2.632 Z M67.836,10.732 C67.836,10.3599981 67.8929994,10.0270015 68.007,9.733 C68.1210006,9.43899853 68.3009988,9.18100111 68.547,8.959 C68.7930012,8.73699889 69.1049981,8.55100075 69.483,8.401 C69.8610019,8.25099925 70.3079974,8.13400042 70.824,8.05 L72.516,7.798 C72.7560012,7.76199982 72.9479993,7.72300021 73.092,7.681 C73.2360007,7.63899979 73.3469996,7.59400024 73.425,7.546 C73.5030004,7.49799976 73.5569999,7.43800036 73.587,7.366 C73.6170001,7.29399964 73.632,7.20400054 73.632,7.096 C73.632,6.87999892 73.5990003,6.6820009 73.533,6.502 C73.4669997,6.3219991 73.3710006,6.16600066 73.245,6.034 C73.1189994,5.90199934 72.957001,5.80000036 72.759,5.728 C72.560999,5.65599964 72.3300013,5.62 72.066,5.62 C71.8019987,5.62 71.5650011,5.65299967 71.355,5.719 C71.144999,5.78500033 70.9680007,5.88099937 70.824,6.007 C70.6799993,6.13300063 70.5690004,6.2859991 70.491,6.466 C70.4129996,6.6460009 70.3620001,6.84399892 70.338,7.06 L68.178,7.06 C68.2140002,6.5799976 68.330999,6.14800192 68.529,5.764 C68.727001,5.37999808 68.9999983,5.05600132 69.348,4.792 C69.6960017,4.52799868 70.1009977,4.33000066 70.563,4.198 C71.0250023,4.06599934 71.5259973,4 72.066,4 C72.7140032,4 73.2809976,4.06899931 73.767,4.207 C74.2530024,4.34500069 74.6579984,4.54899865 74.982,4.819 C75.3060016,5.08900135 75.5489992,5.42199802 75.711,5.818 C75.8730008,6.21400198 75.954,6.67599736 75.954,7.204 L75.954,13 L73.74,13 L73.74,11.956 L73.632,11.956 C73.4999993,12.160001 73.3410009,12.3399992 73.155,12.496 C72.9689991,12.6520008 72.7590012,12.7839995 72.525,12.892 C72.2909988,13.0000005 72.0300014,13.0809997 71.742,13.135 C71.4539986,13.1890003 71.1480016,13.216 70.824,13.216 C70.3439976,13.216 69.9150019,13.1560006 69.537,13.036 C69.1589981,12.9159994 68.8440013,12.7480011 68.592,12.532 C68.3399987,12.3159989 68.1510006,12.0550015 68.025,11.749 C67.8989994,11.4429985 67.836,11.1040019 67.836,10.732 Z M71.49,11.596 C71.7660014,11.596 72.0329987,11.5540004 72.291,11.47 C72.5490013,11.3859996 72.779999,11.2540009 72.984,11.074 C73.188001,10.8939991 73.3469994,10.6690014 73.461,10.399 C73.5750006,10.1289986 73.632,9.8140018 73.632,9.454 L73.632,8.68 C73.5959998,8.7400003 73.5480003,8.79099979 73.488,8.833 C73.4279997,8.87500021 73.3620004,8.91099985 73.29,8.941 C73.2179996,8.97100015 73.1400004,8.99799988 73.056,9.022 C72.9719996,9.04600012 72.8760005,9.06999988 72.768,9.094 L71.418,9.31 C71.1899989,9.34600018 70.9920008,9.39999964 70.824,9.472 C70.6559992,9.54400036 70.5210005,9.63099949 70.419,9.733 C70.3169995,9.83500051 70.2420002,9.94899937 70.194,10.075 C70.1459998,10.2010006 70.122,10.3419992 70.122,10.498 C70.122,10.6660008 70.1519997,10.8189993 70.212,10.957 C70.2720003,11.0950007 70.3589994,11.2119995 70.473,11.308 C70.5870006,11.4040005 70.7279992,11.4759998 70.896,11.524 C71.0640008,11.5720002 71.2619989,11.596 71.49,11.596 Z M77.366,13 L77.366,-0.176 L79.688,-0.176 L79.688,13 L77.366,13 Z M81.208,13 L81.208,-0.176 L83.53,-0.176 L83.53,7.87 L86.824,4.216 L89.452,4.216 L86.176,7.726 L89.776,13 L87.112,13 L84.646,9.364 L83.53,10.552 L83.53,13 L81.208,13 Z M90.306,13 L90.306,0.616 L95.634,0.616 C96.3540036,0.616 97.0019971,0.71499901 97.578,0.913 C98.1540029,1.11100099 98.6369981,1.3899982 99.027,1.75 C99.417002,2.1100018 99.713999,2.54199748 99.918,3.046 C100.122001,3.55000252 100.224,4.101997 100.224,4.702 C100.224,5.31400306 100.122001,5.88099739 99.918,6.403 C99.713999,6.92500261 99.417002,7.37499811 99.027,7.753 C98.6369981,8.13100189 98.1540029,8.42499895 97.578,8.635 C97.0019971,8.84500105 96.3540036,8.95 95.634,8.95 L92.718,8.95 L92.718,13 L90.306,13 Z M95.418,2.56 L92.718,2.56 L92.718,7.006 L95.418,7.006 C95.8020019,7.006 96.1409985,6.95200054 96.435,6.844 C96.7290015,6.73599946 96.974999,6.58000102 97.173,6.376 C97.371001,6.17199898 97.5209995,5.93200138 97.623,5.656 C97.7250005,5.37999862 97.776,5.07400168 97.776,4.738 C97.776,4.41399838 97.7250005,4.11700135 97.623,3.847 C97.5209995,3.57699865 97.371001,3.34600096 97.173,3.154 C96.974999,2.96199904 96.7290015,2.81500051 96.435,2.713 C96.1409985,2.61099949 95.8020019,2.56 95.418,2.56 Z M100.394,10.732 C100.394,10.3599981 100.450999,10.0270015 100.565,9.733 C100.679001,9.43899853 100.858999,9.18100111 101.105,8.959 C101.351001,8.73699889 101.662998,8.55100075 102.041,8.401 C102.419002,8.25099925 102.865997,8.13400042 103.382,8.05 L105.074,7.798 C105.314001,7.76199982 105.505999,7.72300021 105.65,7.681 C105.794001,7.63899979 105.905,7.59400024 105.983,7.546 C106.061,7.49799976 106.115,7.43800036 106.145,7.366 C106.175,7.29399964 106.19,7.20400054 106.19,7.096 C106.19,6.87999892 106.157,6.6820009 106.091,6.502 C106.025,6.3219991 105.929001,6.16600066 105.803,6.034 C105.676999,5.90199934 105.515001,5.80000036 105.317,5.728 C105.118999,5.65599964 104.888001,5.62 104.624,5.62 C104.359999,5.62 104.123001,5.65299967 103.913,5.719 C103.702999,5.78500033 103.526001,5.88099937 103.382,6.007 C103.237999,6.13300063 103.127,6.2859991 103.049,6.466 C102.971,6.6460009 102.92,6.84399892 102.896,7.06 L100.736,7.06 C100.772,6.5799976 100.888999,6.14800192 101.087,5.764 C101.285001,5.37999808 101.557998,5.05600132 101.906,4.792 C102.254002,4.52799868 102.658998,4.33000066 103.121,4.198 C103.583002,4.06599934 104.083997,4 104.624,4 C105.272003,4 105.838998,4.06899931 106.325,4.207 C106.811002,4.34500069 107.215998,4.54899865 107.54,4.819 C107.864002,5.08900135 108.106999,5.42199802 108.269,5.818 C108.431001,6.21400198 108.512,6.67599736 108.512,7.204 L108.512,13 L106.298,13 L106.298,11.956 L106.19,11.956 C106.057999,12.160001 105.899001,12.3399992 105.713,12.496 C105.526999,12.6520008 105.317001,12.7839995 105.083,12.892 C104.848999,13.0000005 104.588001,13.0809997 104.3,13.135 C104.011999,13.1890003 103.706002,13.216 103.382,13.216 C102.901998,13.216 102.473002,13.1560006 102.095,13.036 C101.716998,12.9159994 101.402001,12.7480011 101.15,12.532 C100.897999,12.3159989 100.709001,12.0550015 100.583,11.749 C100.456999,11.4429985 100.394,11.1040019 100.394,10.732 Z M104.048,11.596 C104.324001,11.596 104.590999,11.5540004 104.849,11.47 C105.107001,11.3859996 105.337999,11.2540009 105.542,11.074 C105.746001,10.8939991 105.904999,10.6690014 106.019,10.399 C106.133001,10.1289986 106.19,9.8140018 106.19,9.454 L106.19,8.68 C106.154,8.7400003 106.106,8.79099979 106.046,8.833 C105.986,8.87500021 105.92,8.91099985 105.848,8.941 C105.776,8.97100015 105.698,8.99799988 105.614,9.022 C105.53,9.04600012 105.434001,9.06999988 105.326,9.094 L103.976,9.31 C103.747999,9.34600018 103.550001,9.39999964 103.382,9.472 C103.213999,9.54400036 103.079001,9.63099949 102.977,9.733 C102.874999,9.83500051 102.8,9.94899937 102.752,10.075 C102.704,10.2010006 102.68,10.3419992 102.68,10.498 C102.68,10.6660008 102.71,10.8189993 102.77,10.957 C102.83,11.0950007 102.916999,11.2119995 103.031,11.308 C103.145001,11.4040005 103.285999,11.4759998 103.454,11.524 C103.622001,11.5720002 103.819999,11.596 104.048,11.596 Z M111.724,13 L108.484,4.216 L111.004,4.216 L113.128,10.714 L113.2,10.714 L115.306,4.216 L117.664,4.216 L114.154,14.08 C114.009999,14.5000021 113.836001,14.8899982 113.632,15.25 C113.427999,15.6100018 113.185001,15.9279986 112.903,16.204 C112.620999,16.4800014 112.285002,16.6989992 111.895,16.861 C111.504998,17.0230008 111.070002,17.104 110.59,17.104 L109.528,17.104 L109.528,15.268 L110.068,15.268 C110.320001,15.268 110.553999,15.2380003 110.77,15.178 C110.986001,15.1179997 111.180999,15.0220007 111.355,14.89 C111.529001,14.7579993 111.681999,14.5870011 111.814,14.377 C111.946001,14.1669989 112.06,13.9180014 112.156,13.63 L112.354,13 L111.724,13 Z M117.996,13 L117.996,4.216 L120.21,4.216 L120.21,5.476 L120.282,5.476 C120.402001,5.2359988 120.554999,5.02300093 120.741,4.837 C120.927001,4.65099907 121.133999,4.49500063 121.362,4.369 C121.590001,4.24299937 121.835999,4.1500003 122.1,4.09 C122.364001,4.0299997 122.645998,4 122.946,4 C123.270002,4 123.575999,4.03299967 123.864,4.099 C124.152001,4.16500033 124.418999,4.26699931 124.665,4.405 C124.911001,4.54300069 125.129999,4.71999892 125.322,4.936 C125.514001,5.15200108 125.675999,5.4099985 125.808,5.71 C125.964001,5.39799844 126.149999,5.13100111 126.366,4.909 C126.582001,4.68699889 126.815999,4.51000066 127.068,4.378 C127.320001,4.24599934 127.586999,4.1500003 127.869,4.09 C128.151001,4.0299997 128.447998,4 128.76,4 C129.216002,4 129.635998,4.06599934 130.02,4.198 C130.404002,4.33000066 130.742999,4.53699859 131.037,4.819 C131.331001,5.10100141 131.558999,5.47299769 131.721,5.935 C131.883001,6.39700231 131.964,6.95199676 131.964,7.6 L131.964,13 L129.642,13 L129.642,7.852 C129.642,7.47999814 129.606,7.16200132 129.534,6.898 C129.462,6.63399868 129.360001,6.42100081 129.228,6.259 C129.095999,6.09699919 128.934001,5.98000036 128.742,5.908 C128.549999,5.83599964 128.328001,5.8 128.076,5.8 C127.799999,5.8 127.545001,5.85699943 127.311,5.971 C127.076999,6.08500057 126.870001,6.25299889 126.69,6.475 C126.509999,6.69700111 126.372,6.96699841 126.276,7.285 C126.18,7.60300159 126.132,7.95999802 126.132,8.356 L126.132,13 L123.828,13 L123.828,7.852 C123.828,7.47999814 123.792,7.16200132 123.72,6.898 C123.648,6.63399868 123.543001,6.42100081 123.405,6.259 C123.266999,6.09699919 123.105001,5.98000036 122.919,5.908 C122.732999,5.83599964 122.514001,5.8 122.262,5.8 C121.985999,5.8 121.731001,5.85699943 121.497,5.971 C121.262999,6.08500057 121.056001,6.24999892 120.876,6.466 C120.695999,6.68200108 120.558,6.94899841 120.462,7.267 C120.366,7.58500159 120.318,7.94199802 120.318,8.338 L120.318,13 L117.996,13 Z M132.764,8.644 C132.764,7.94799652 132.874999,7.31200288 133.097,6.736 C133.319001,6.15999712 133.630998,5.66800204 134.033,5.26 C134.435002,4.85199796 134.917997,4.54000108 135.482,4.324 C136.046003,4.10799892 136.657997,4 137.318,4 C137.978003,4 138.571997,4.09599904 139.1,4.288 C139.628003,4.48000096 140.080998,4.76499811 140.459,5.143 C140.837002,5.52100189 141.124999,5.98299727 141.323,6.529 C141.521001,7.07500273 141.62,7.68999658 141.62,8.374 L141.62,9.022 L135.14,9.022 C135.164,9.41800198 135.232999,9.77199844 135.347,10.084 C135.461001,10.3960016 135.616999,10.6569989 135.815,10.867 C136.013001,11.077001 136.243999,11.2389994 136.508,11.353 C136.772001,11.4670006 137.065998,11.524 137.39,11.524 C137.666001,11.524 137.911999,11.4910003 138.128,11.425 C138.344001,11.3589997 138.529999,11.2690006 138.686,11.155 C138.842001,11.0409994 138.968,10.9120007 139.064,10.768 C139.16,10.6239993 139.232,10.4800007 139.28,10.336 L141.53,10.336 C141.458,10.732002 141.311001,11.1039983 141.089,11.452 C140.866999,11.8000017 140.573002,12.1059987 140.207,12.37 C139.840998,12.6340013 139.415002,12.8409992 138.929,12.991 C138.442998,13.1410007 137.918003,13.216 137.354,13.216 C136.633996,13.216 135.989003,13.117001 135.419,12.919 C134.848997,12.720999 134.366002,12.427002 133.97,12.037 C133.573998,11.6469981 133.274001,11.1670028 133.07,10.597 C132.865999,10.0269971 132.764,9.37600366 132.764,8.644 Z M137.318,5.674 C137.053999,5.674 136.808001,5.71599958 136.58,5.8 C136.351999,5.88400042 136.148001,6.00699919 135.968,6.169 C135.787999,6.33100081 135.635001,6.52899883 135.509,6.763 C135.382999,6.99700117 135.284,7.26999844 135.212,7.582 L139.262,7.582 C139.226,7.25799838 139.157001,6.9760012 139.055,6.736 C138.952999,6.4959988 138.821001,6.29800078 138.659,6.142 C138.496999,5.98599922 138.305001,5.86900039 138.083,5.791 C137.860999,5.71299961 137.606001,5.674 137.318,5.674 Z M142.528,13 L142.528,4.216 L144.742,4.216 L144.742,5.476 L144.814,5.476 C144.934001,5.2359988 145.086999,5.02300093 145.273,4.837 C145.459001,4.65099907 145.665999,4.49500063 145.894,4.369 C146.122001,4.24299937 146.370999,4.1500003 146.641,4.09 C146.911001,4.0299997 147.201998,4 147.514,4 C147.982002,4 148.419998,4.06599934 148.828,4.198 C149.236002,4.33000066 149.592998,4.53999856 149.899,4.828 C150.205002,5.11600144 150.447999,5.49699763 150.628,5.971 C150.808001,6.44500237 150.898,7.0119967 150.898,7.672 L150.898,13 L148.576,13 L148.576,7.96 C148.576,7.56399802 148.537,7.22800138 148.459,6.952 C148.381,6.67599862 148.267001,6.45400084 148.117,6.286 C147.966999,6.11799916 147.787001,5.99500039 147.577,5.917 C147.366999,5.83899961 147.130001,5.8 146.866,5.8 C146.577999,5.8 146.311001,5.85699943 146.065,5.971 C145.818999,6.08500057 145.606001,6.25599886 145.426,6.484 C145.245999,6.71200114 145.105001,6.98499841 145.003,7.303 C144.900999,7.62100159 144.85,7.97799802 144.85,8.374 L144.85,13 L142.528,13 Z M152.634,9.976 L152.634,5.944 L150.978,5.944 L150.978,4.216 L152.634,4.216 L152.634,1.552 L154.938,1.552 L154.938,4.216 L157.116,4.216 L157.116,5.944 L154.938,5.944 L154.938,9.832 C154.938,10.0720012 154.959,10.2729992 155.001,10.435 C155.043,10.5970008 155.112,10.7289995 155.208,10.831 C155.304,10.9330005 155.429999,11.0079998 155.586,11.056 C155.742001,11.1040002 155.933999,11.128 156.162,11.128 L157.116,11.128 L157.116,13 L155.712,13 C155.135997,13 154.653002,12.9460005 154.263,12.838 C153.872998,12.7299995 153.558001,12.5560012 153.318,12.316 C153.077999,12.0759988 152.904001,11.7670019 152.796,11.389 C152.687999,11.0109981 152.634,10.5400028 152.634,9.976 Z M157.16,10.48 L159.338,10.48 C159.338,10.6960011 159.388999,10.8819992 159.491,11.038 C159.593001,11.1940008 159.730999,11.3199995 159.905,11.416 C160.079001,11.5120005 160.273999,11.5809998 160.49,11.623 C160.706001,11.6650002 160.933999,11.686 161.174,11.686 C161.474001,11.686 161.740999,11.6620002 161.975,11.614 C162.209001,11.5659998 162.403999,11.4940005 162.56,11.398 C162.716001,11.3019995 162.833,11.1880007 162.911,11.056 C162.989,10.9239993 163.028,10.7680009 163.028,10.588 C163.028,10.4319992 163.001,10.3000005 162.947,10.192 C162.893,10.0839995 162.812001,9.99400036 162.704,9.922 C162.595999,9.84999964 162.464001,9.78700027 162.308,9.733 C162.151999,9.67899973 161.960001,9.63400018 161.732,9.598 L160.13,9.346 C159.721998,9.2859997 159.356002,9.19900057 159.032,9.085 C158.707998,8.97099943 158.423001,8.81800096 158.177,8.626 C157.930999,8.43399904 157.739001,8.19100147 157.601,7.897 C157.462999,7.60299853 157.394,7.25800198 157.394,6.862 C157.394,6.40599772 157.489999,6.00100177 157.682,5.647 C157.874001,5.29299823 158.143998,4.99300123 158.492,4.747 C158.840002,4.50099877 159.250998,4.31500063 159.725,4.189 C160.199002,4.06299937 160.711997,4 161.264,4 C161.828003,4 162.343998,4.05399946 162.812,4.162 C163.280002,4.27000054 163.684998,4.43499889 164.027,4.657 C164.369002,4.87900111 164.632999,5.15799832 164.819,5.494 C165.005001,5.83000168 165.098,6.21999778 165.098,6.664 L162.956,6.664 C162.956,6.47199904 162.911,6.30100075 162.821,6.151 C162.731,6.00099925 162.608001,5.88100045 162.452,5.791 C162.295999,5.70099955 162.116001,5.63500021 161.912,5.593 C161.707999,5.55099979 161.486001,5.53 161.246,5.53 C161.005999,5.53 160.787001,5.55399976 160.589,5.602 C160.390999,5.65000024 160.220001,5.71599958 160.076,5.8 C159.931999,5.88400042 159.821,5.99199934 159.743,6.124 C159.665,6.25600066 159.626,6.39999922 159.626,6.556 C159.626,6.70000072 159.65,6.82299949 159.698,6.925 C159.746,7.02700051 159.823999,7.11699961 159.932,7.195 C160.040001,7.27300039 160.180999,7.3419997 160.355,7.402 C160.529001,7.4620003 160.747999,7.50999982 161.012,7.546 L162.596,7.798 C162.992002,7.8580003 163.348998,7.94499943 163.667,8.059 C163.985002,8.17300057 164.269999,8.32299907 164.522,8.509 C164.774001,8.69500093 164.971999,8.93499853 165.116,9.229 C165.260001,9.52300147 165.332,9.87399796 165.332,10.282 C165.332,10.7620024 165.233001,11.1879981 165.035,11.56 C164.836999,11.9320019 164.552002,12.2409988 164.18,12.487 C163.807998,12.7330012 163.367003,12.9159994 162.857,13.036 C162.346997,13.1560006 161.786003,13.216 161.174,13.216 C160.585997,13.216 160.046002,13.1590006 159.554,13.045 C159.061998,12.9309994 158.636002,12.7630011 158.276,12.541 C157.915998,12.3189989 157.640001,12.0340017 157.448,11.686 C157.255999,11.3379983 157.16,10.9360023 157.16,10.48 Z" id="LetsTalkPayments" fill="#000000"></path>
            <g id="Fill-1247-+-Fill-1248">
                <path d="M11.375,12.6 L14.291375,12.6 L16.625,14.175 L16.625,12.6 L19.25,12.6 L19.25,7.875 L11.375,7.875 L11.375,12.6 Z M18.375,17.325 L13.708625,14.175 L10.9375,14.175 C10.213875,14.175 9.625,13.6450125 9.625,12.99375 L9.625,7.48125 C9.625,6.8299875 10.213875,6.3 10.9375,6.3 L19.6875,6.3 C20.411125,6.3 21,6.8299875 21,7.48125 L21,12.99375 C21,13.6450125 20.411125,14.175 19.6875,14.175 L18.375,14.175 L18.375,17.325 Z" id="Fill-1247" fill="#000000"></path>
                <path d="M2.625,14.175 L2.625,11.025 L1.3125,11.025 C0.588875,11.025 0,10.4950125 0,9.84375 L0,1.18125 C0,0.5299875 0.588875,0 1.3125,0 L12.6875,0 C13.411125,0 14,0.5299875 14,1.18125 L14,4.723425 L12.25,4.723425 L12.25,1.575 L1.75,1.575 L1.75,9.45 L4.375,9.45 L4.375,11.025 L6.708625,9.45 L7.875,9.45 L7.875,11.025 L7.291375,11.025 L2.625,14.175 Z" id="Fill-1248" fill="#C93A26"></path>
            </g>
        </g>
    </g>
</svg>