<?xml version="1.0" encoding="UTF-8"?>
<svg width="866px" height="175px" viewBox="0 0 866 175" version="1.1" xmlns="http://www.w3.org/2000/svg" xmlns:xlink="http://www.w3.org/1999/xlink">
    <!-- Generator: Sketch 48.1 (47250) - http://www.bohemiancoding.com/sketch -->
    <title>medici-logo-black</title>
    <desc>Created with Sketch.</desc>
    <defs></defs>
    <g id="Page-1" stroke="none" stroke-width="1" fill="none" fill-rule="evenodd">
        <g id="medici-logo-black" fill="#000000" fill-rule="nonzero">
            <polygon id="Shape" points="336.11 157.94 306.59 157.94 306.59 112.23 290.59 157.94 261 157.94 244.65 110.81 244.65 157.94 215.15 157.94 215.15 27.12 245.2 27.12 275.8 115.38 306.59 27.12 336.11 27.12"></polygon>
            <polygon id="Shape" points="395.88 56.65 395.88 77.75 433.16 77.75 433.16 107.29 395.88 107.29 395.88 128.41 446.53 128.41 446.53 157.94 366.35 157.94 366.35 27.12 446.53 27.12 446.53 56.65"></polygon>
            <path d="M568.21,92.52 C568.199589,118.466661 552.855851,141.955017 529.1,152.39 C521.795491,155.611372 513.970685,157.491358 506,157.94 L475.72,157.94 L475.72,27.1196082 L502.09,27.12 C510.728349,27.0905016 519.291343,28.7270452 527.31,31.94 C543.585119,38.4825106 556.554187,51.2822595 563.31,67.47 C566.59842,75.3928929 568.274413,83.8918445 568.24,92.47" id="Shape"></path>
            <polygon id="Shape" points="595.46 157.94 625 157.94 625 27.12 595.46 27.12"></polygon>
            <path d="M704,128.56 C706.834517,128.589011 709.637409,127.962723 712.19,126.73 C714.713342,125.506392 716.977803,123.808895 718.86,121.73 C722.916645,117.267253 725.144408,111.440796 725.1,105.41 L754.64,105.41 C754.660896,112.246894 753.413113,119.028324 750.96,125.41 C748.474149,131.737701 744.76701,137.514178 740.05,142.41 C735.418496,147.348502 729.832259,151.294929 723.63,154.01 C717.445122,156.734684 710.758432,158.134699 704,158.12 L703.83,158.12 C697.109804,158.158603 690.457475,156.774973 684.31,154.06 C678.098608,151.304136 672.483923,147.364007 667.78,142.46 C663.258758,137.608006 659.653886,131.977088 657.14,125.84 C654.609737,119.675497 653.253142,113.092621 653.14,106.43 L653.14,79.34 C653.226716,72.5357446 654.534114,65.8023039 657,59.46 C659.458273,53.25765 663.099178,47.5925101 667.72,42.78 C672.439986,37.8774661 678.054208,33.9230721 684.26,31.13 C690.415197,28.4569284 697.059522,27.0946885 703.77,27.13 L704,27.13 C710.74833,27.1038138 717.429985,28.4653329 723.63,31.13 C729.804138,33.8912652 735.368431,37.8511926 740,42.78 C744.714957,47.6774436 748.42182,53.4534897 750.91,59.78 C753.364458,66.1612974 754.612287,72.9429815 754.59,79.78 L725.05,79.78 C725.071972,76.7028355 724.512147,73.6492427 723.4,70.78 C722.334298,68.0599494 720.778538,65.5585312 718.81,63.4 C716.925626,61.3234936 714.661659,59.6263669 712.14,58.4 C709.587409,57.1672766 706.784517,56.5409893 703.95,56.57 C701.096797,56.5463808 698.275609,57.1721714 695.7,58.4 C693.136008,59.6093257 690.832895,61.3077869 688.92,63.4 C686.957247,65.5553859 685.414145,68.0582639 684.37,70.78 C683.230618,73.642675 682.656708,76.6990005 682.68,79.78 L682.68,105.31 C682.687359,111.331319 684.90824,117.139775 688.92,121.63 C690.830286,123.72511 693.134012,125.424022 695.7,126.63 C698.275609,127.857829 701.096797,128.483619 703.95,128.46" id="Shape"></path>
            <path d="M164.8,48 C144.30814,7.94915517 96.5864862,-9.77376118 54.9195594,7.19249055 C13.2526327,24.1587423 -8.51455601,70.1766469 4.8,113.15 C35.33,98.37 65.48,82.55 94.94,65.96 C103.04,61.4 118.94,68.81 107.09,75.5 C75.39,93.31 42.88,110.25 10,126 C10.17,126.34 10.33,126.7 10.5,127.05 C12.2325401,130.405439 14.1799243,133.645512 16.33,136.75 C52.3966667,118.25 88.8566667,100.54 125.71,83.62 C131.78,80.83 149.51,83.8 137.27,89.42 C98.71,107.14 60.5766667,125.723333 22.87,145.17 C51.9082296,177.682651 100.568755,183.585855 136.538734,158.959611 C172.508712,134.333367 184.607097,86.8325914 164.8,48 Z" id="Shape"></path>
            <polygon id="Shape" points="811.14 127.26 811.14 27.12 781.61 27.12 781.61 147.83"></polygon>
            <polygon id="Shape" points="781.95 157.94 811.14 157.94 811.14 137.62"></polygon>
            <polygon id="Shape" points="842.65 17.94 837.44 17.94 837.44 37.85 832.63 37.85 832.63 17.94 827.42 17.94 827.42 14 842.65 14"></polygon>
            <polygon id="Shape" points="852 14 855.41 30.83 855.47 30.83 858.91 14 866 14 866 37.85 861.59 37.85 861.59 18.85 861.52 18.85 857.28 37.85 853.54 37.85 849.3 18.85 849.23 18.85 849.23 37.85 844.82 37.85 844.82 14"></polygon>
        </g>
    </g>
</svg>