<svg xmlns="http://www.w3.org/2000/svg" viewBox="0 0 908 286"><defs><style>.cls-1{fill:#fff;}</style></defs><title>MEDICI_Logo_white_withtagline</title><g id="Logos"><g id="g4616"><g id="path4618"><path class="cls-1" d="M356.07,179.93h-29V135l-15.74,44.92H282.26l-16.07-46.31v46.31h-29V51.37h29.53l30.08,86.74,30.26-86.74h29Z"/></g></g><g id="g4620"><g id="path4622"><path class="cls-1" d="M414.81,80.39v20.74h36.65v29H414.81v20.77h49.78v29H385.8V51.37h78.79v29Z"/></g></g><g id="g4624"><g id="path4626"><path class="cls-1" d="M584.19,115.64a64.33,64.33,0,0,1-38.45,58.85A65.56,65.56,0,0,1,523,179.94H493.28V51.36H519.2A66,66,0,0,1,544,56.11,64.3,64.3,0,0,1,579.34,91a63.33,63.33,0,0,1,4.85,24.62"/></g></g><g id="path4628"><path class="cls-1" d="M611,179.94h29V51.37H611Z"/></g><g id="g4630"><g id="path4632"><path class="cls-1" d="M717.6,151.07a18,18,0,0,0,8-1.81,21.41,21.41,0,0,0,6.56-4.93,23.59,23.59,0,0,0,6.13-16h29A54.34,54.34,0,0,1,763.75,148,50.87,50.87,0,0,1,753,164.72a49.06,49.06,0,0,1-16.14,11.41,47.74,47.74,0,0,1-19.28,4h-.17a47.08,47.08,0,0,1-19.19-4A51.39,51.39,0,0,1,682,164.72a54,54,0,0,1-10.46-16.34,52.46,52.46,0,0,1-3.9-19.07V102.68a55.87,55.87,0,0,1,3.82-19.53A50.58,50.58,0,0,1,682,66.76,52.55,52.55,0,0,1,698.26,55.3a47.55,47.55,0,0,1,19.17-3.94h.17a48.39,48.39,0,0,1,19.28,3.94A50.26,50.26,0,0,1,753,66.76,51,51,0,0,1,763.75,83.5a54.23,54.23,0,0,1,3.62,19.7h-29a24,24,0,0,0-1.62-8.81,23.29,23.29,0,0,0-4.51-7.26,21.57,21.57,0,0,0-6.56-4.93,18,18,0,0,0-8-1.8,18.43,18.43,0,0,0-8.11,1.8,21.32,21.32,0,0,0-6.67,4.93,22.83,22.83,0,0,0-4.47,7.26,23.43,23.43,0,0,0-1.66,8.81v25.09a24.1,24.1,0,0,0,6.13,16,21.17,21.17,0,0,0,6.67,4.93,18.43,18.43,0,0,0,8.11,1.81"/></g></g><path class="cls-1" d="M187.7,71.84a85.21,85.21,0,0,0-157.24,64c30-14.53,59.64-30.07,88.6-46.39,8-4.48,23.62,2.81,11.93,9.39-31.16,17.55-63.11,34.19-95.46,49.66.17.35.32.69.5,1a84.63,84.63,0,0,0,5.72,9.53Q95,131.88,149.29,106.89c6-2.74,23.39.18,11.35,5.71q-56.85,26.09-112.42,54.79A85.22,85.22,0,0,0,187.7,71.84Z"/><polygon class="cls-1" points="822.94 149.79 822.94 51.37 793.92 51.37 793.92 170 822.94 149.79"/><polygon class="cls-1" points="794.25 179.94 822.94 179.94 822.94 159.96 794.25 179.94"/><path class="cls-1" d="M245.87,253.84l-1.54-.83a29.46,29.46,0,0,1-2.81-1.73l-1.72-1.21a8.06,8.06,0,0,1-1.66-2.33,14.74,14.74,0,0,1-1-3.29,9,9,0,0,1-.13-1.34,20.94,20.94,0,0,1,.67-4.69,24.43,24.43,0,0,1,1.38-4.31,80.92,80.92,0,0,1,6.19-10.86l.35-.35c.07-.06.08-.12,0-.16a20.94,20.94,0,0,1,1.86-4,3.17,3.17,0,0,0,1.08-2,1.14,1.14,0,0,0-.19-.7c-.13-.17,0-.54.51-1.12a15.5,15.5,0,0,1,1.95-1.91,15.78,15.78,0,0,1,2.65-1.82,5.49,5.49,0,0,1,3.38-1.34,2,2,0,0,1,.86.16.63.63,0,0,1,.42.48c0,.25.85.17,2.55-.26.77-.17,1.32-.28,1.66-.32a2.49,2.49,0,0,1,1.31-.54q1.05-.23,3-.48,1,.06,2.52,0c1,0,1.65-.09,1.95-.13s.73.11,1.31.58a5.08,5.08,0,0,1,1.37,1.78,1.62,1.62,0,0,1-1.08,2.21,9.81,9.81,0,0,1-3.52.92c-1.57.22-3,.43-4.15.64s-2.68.51-4.47.9l-1.34.25a9.79,9.79,0,0,0-2.93.83,6.32,6.32,0,0,0-2,2.24,5.31,5.31,0,0,0-1.15,1.62c-.46.88-.93,1.78-1.4,2.72l-1.28,1.72c-1,1.32-1.58,2.18-1.82,2.59s-.28.69-.16.86.48.11.93.19.82.15,1.12.19a4.4,4.4,0,0,1,1.59-.44,10.84,10.84,0,0,0,1.47-.26L255,228q3.94-1,5.81-1.47c1.23-.3,2.15-.49,2.74-.58a1.19,1.19,0,0,1,.77-.25,1.94,1.94,0,0,1,1.37.67,4.15,4.15,0,0,1,1,1.56,6,6,0,0,1,.26,1.15,1.76,1.76,0,0,1-1.28,1.63,38,38,0,0,1-5.11,1.44c-3.7.89-6,1.47-7,1.72a24.52,24.52,0,0,1-6.13,1.21q-1.67,0-1.59-1.08c-.39-.21-.83.17-1.35,1.15a16.6,16.6,0,0,0-1.3,3.64,15.42,15.42,0,0,0-.55,3.76,4.71,4.71,0,0,0,.19,1.41,6.6,6.6,0,0,0,1.73,2.58,7.6,7.6,0,0,0,3.19,1.63c.3,0,.67.09,1.12.13s1,.06,1.56.06a6.91,6.91,0,0,0,2.56-.51c3.32-.55,5.66-1.32,7-2.29a1.78,1.78,0,0,0,.61-.45.79.79,0,0,1,.54-.32l-.06.13s.12-.06.38-.29.53-.48.83-.73a5.9,5.9,0,0,1,4-1.54,3.45,3.45,0,0,1,1.31.23c.36.15.56.28.6.41.26.43.13,1.11-.38,2a12.2,12.2,0,0,1-2.39,2.94,19.55,19.55,0,0,1-3.61,2.68,26,26,0,0,1-7,2.46,40.38,40.38,0,0,1-7.44.86Z"/><path class="cls-1" d="M290.43,249.81v-4.4a15.36,15.36,0,0,1,.19-2.37c.09-.93.13-1.59.13-2v-1c-.13-.85-.4-1.27-.83-1.27q-1.16,0-4.24,2.2a70.41,70.41,0,0,0-6.49,5.27,21.73,21.73,0,0,0-1.72,2,4.59,4.59,0,0,1-1,1,2,2,0,0,1-1,.19,3.8,3.8,0,0,1-2-1.34,7,7,0,0,1-1.53-2.17,9.34,9.34,0,0,1,.63-3.41q.65-1.63,1.92-4.12a26.88,26.88,0,0,1,1.47-3.83c.64-1.49,1.09-2.63,1.37-3.42a10.19,10.19,0,0,0,.54-2.46.05.05,0,0,0-.06-.06.65.65,0,0,1,.64-.64c.08-.13.34-.19.76-.19a4.76,4.76,0,0,1,2.88.89,3.19,3.19,0,0,1,1.21,2.75,4.87,4.87,0,0,1-.35,1.82c-.23.57-.67,1.52-1.31,2.84l-.7,1.4c-.13.26-.32.63-.58,1.12a3.19,3.19,0,0,0-.38.93c1.06-.73,2.32-1.68,3.77-2.88q3.19-2.55,5.23-3.95a6.55,6.55,0,0,1,3-1.41,5,5,0,0,1,2.33.93,3.88,3.88,0,0,1,1.76,1.69,12.32,12.32,0,0,1-.1,1.34c-.06.6-.11,1.13-.15,1.6l.06,2a14.62,14.62,0,0,1,.06,1.54,11.1,11.1,0,0,1-.25,2.87,1.22,1.22,0,0,1,.13.19.55.55,0,0,1,.06.19l-.06.13a7.22,7.22,0,0,0,.7,2,12.33,12.33,0,0,1,.64,1.54,2.32,2.32,0,0,1-.93,1.56,3.38,3.38,0,0,1-1.76,1Z"/><path class="cls-1" d="M302.37,249.11c-.59-.42-.89-.68-.89-.77a1.65,1.65,0,0,0-.29-.73c-.19-.32-.37-.61-.54-.86-.34-.34-.11-1.45.7-3.32s1.89-4.09,3.26-6.64a9.24,9.24,0,0,0,1-1.34,5.59,5.59,0,0,1,.79-1.09.73.73,0,0,1,.2-.48.54.54,0,0,1,.44-.22l.51-1a15.28,15.28,0,0,1,2.49-2.75,21.79,21.79,0,0,1,3.52-2.93,4.48,4.48,0,0,1,2.61-.84,4,4,0,0,1,2.62.9l1.72,1.47c1.28,1.06,2,1.68,2.18,1.85l2.36,2.11L324,235.64a10.36,10.36,0,0,0-.57,3.25,8.35,8.35,0,0,0,1.34,4.54,2.54,2.54,0,0,0,.86,1.08A3.14,3.14,0,0,0,327,245c.93.17,1.4.64,1.4,1.41a3.59,3.59,0,0,1-.51,2.11,2.2,2.2,0,0,1-1.21.89,12.43,12.43,0,0,1-1.41.13,6.24,6.24,0,0,1-3.38-1,7.77,7.77,0,0,1-2.68-3.26,8.07,8.07,0,0,1-.67-1.4,7.61,7.61,0,0,1-.48-1.41,13.52,13.52,0,0,1-1.47,1.66Q310,250.84,306,250.83a4.45,4.45,0,0,1-2.49-.7A3.74,3.74,0,0,0,302.37,249.11Zm8.56-6.58.7-.6.83-.74c1.19-1,2.12-1.79,2.78-2.45a19.84,19.84,0,0,0,2-2.4l1.4-2.3a6.29,6.29,0,0,0-1.15-1.88,1.51,1.51,0,0,0-1-.48c-.85,0-1.91.76-3.19,2.27a50.75,50.75,0,0,0-4.6,6.86,13.12,13.12,0,0,0-1.15,2.39c-.29.83-.49,1.38-.57,1.63Q308,245,310.93,242.53Z"/><path class="cls-1" d="M333.05,249.78a10.28,10.28,0,0,1-3-1.88,1.33,1.33,0,0,1-.32-.7.61.61,0,0,1,.19-.45.69.69,0,0,1,.51-.19c.26,0,.55-.22.9-.64a3.62,3.62,0,0,0,.63-1.92,6.47,6.47,0,0,1,.32-1.5,3.94,3.94,0,0,0,.26-1,9.29,9.29,0,0,0,.16-1A5.52,5.52,0,0,1,333,239c.25-1.11.67-2.67,1.24-4.69s1.06-3.55,1.44-4.57a11.74,11.74,0,0,1,1.34-3.51q1.21-3.25,4-9.26a61.36,61.36,0,0,1,3.42-6.83,2,2,0,0,1,1.28-.38,3,3,0,0,1,2.23.83c.13.12.31.33.54.6a4,4,0,0,1,.55.8,1.72,1.72,0,0,1,.19.7,1.55,1.55,0,0,1-.45,1l-1.72,2.75a40.93,40.93,0,0,1-1.66,3.83,68,68,0,0,0-2.94,7c-.3.68-.62,1.47-1,2.36a5.91,5.91,0,0,1-.64,1.54,6.82,6.82,0,0,1-.7,1.91,10,10,0,0,0-.77,2.43l2.3-2.24a30.78,30.78,0,0,1,4.6-4.18,6.51,6.51,0,0,1,3.58-1.37,5.54,5.54,0,0,1,2.93,1,5.19,5.19,0,0,1,2.11,2.23,7.77,7.77,0,0,1,.51,3,13.17,13.17,0,0,1-.57,3.77A10.24,10.24,0,0,1,353.2,241a13.14,13.14,0,0,1-1.63,2.27,12.62,12.62,0,0,1-1.76,1.69c-1.15,1.06-1.89,1.72-2.23,2a15.25,15.25,0,0,1-1.31.86,6.85,6.85,0,0,1-1.44.61,9.75,9.75,0,0,1-3.29,1.31c-1.38.32-3.07.6-5.07.86A6,6,0,0,1,333.05,249.78Zm6.86-4.31a5.56,5.56,0,0,0,2-.89,16.55,16.55,0,0,0,6-4.79,8.89,8.89,0,0,0,2-5.17c0-1-.3-1.54-.89-1.54q-1.41,0-5.11,3.71a45.57,45.57,0,0,0-3.58,3.76l-1,1.09c-.17.26-.42.6-.76,1a2.74,2.74,0,0,0-.58,1,8.71,8.71,0,0,0-.25,1.6c0,.3.08.45.25.45A8.32,8.32,0,0,0,339.91,245.47Z"/><path class="cls-1" d="M357.76,252.24a4.92,4.92,0,0,1-.48-2.43,25.52,25.52,0,0,1,.51-5.11l.07-.51c0-.25.1-.67.19-1.24s.15-.73.19-.48l.38-1.72c.3-1.19.59-2.3.86-3.32s.5-1.77.67-2.24l.71-2.23q1.9-6.19,3.57-8.37a2,2,0,0,1,.19-.48,1.73,1.73,0,0,0,.2-.48,2.79,2.79,0,0,1,.38-1.59c.38-.64.7-1.21,1-1.73l.25-.7L368.2,216a4.36,4.36,0,0,1,.8-1.4,3.15,3.15,0,0,1,1.24-1l-.06-.07a2.54,2.54,0,0,1,1.18-.89,3.67,3.67,0,0,1,1.5-.38,1.82,1.82,0,0,1,1.34.51,1.9,1.9,0,0,1,.51,1.4v.64a3.42,3.42,0,0,1-.09.89,3,3,0,0,1-.42.77h.06c.05,0,0,.18-.09.41s-.2.46-.29.68a3.84,3.84,0,0,1-.64,1.27c-.29.39-1.27,2.18-2.93,5.4s-2.73,5.44-3.2,6.67l-.25,1-.13.38c-.47,1-.72,1.58-.77,1.66l-1,4-.25,1.34-.58,1.47-.38,1.21a4.09,4.09,0,0,0-.22.83,1.37,1.37,0,0,1-.23.64l-.06.32q-.06.25-.45,1.47c-.38,1.19-.66,2.18-.83,3a15.21,15.21,0,0,0-.32,2.52l-.06.25a4.08,4.08,0,0,1-.8,2.11,1.42,1.42,0,0,1-1.56.45A2.52,2.52,0,0,1,357.76,252.24Z"/><path class="cls-1" d="M372,249.81a8.16,8.16,0,0,1-1.37-4c.16-1.57.29-2.72.38-3.44q.71-3.14,1.75-7.38c.71-2.83,1.12-4.39,1.25-4.69a1.09,1.09,0,0,1,1-.58,3.07,3.07,0,0,1,1.57.55,4.39,4.39,0,0,1,1.43,1.5,2.65,2.65,0,0,1,.51,1.59,25.75,25.75,0,0,1-1.27,5.62c-.6,2.13-1,3.64-1.15,4.54a12.65,12.65,0,0,0-.2,2.87,33.58,33.58,0,0,1-.51,4c-.17.72-.42,1.06-.76,1A3.2,3.2,0,0,1,372,249.81Zm8.14-24.71a1.78,1.78,0,0,1-.83-.38,3.3,3.3,0,0,1-1.69-1.09c-.71-.68-1.06-1.12-1.06-1.34a11.06,11.06,0,0,1,.13-2.2,8.73,8.73,0,0,1,.73-2.58,1.83,1.83,0,0,1,1.44-1.22,10.49,10.49,0,0,1,1.21.29,17.52,17.52,0,0,1,1.73.61,9.6,9.6,0,0,1,1.21,4.15,3.61,3.61,0,0,1-2.49,3.57A.53.53,0,0,1,380.14,225.1Z"/><path class="cls-1" d="M400.44,249.81v-4.4a15.36,15.36,0,0,1,.19-2.37c.09-.93.13-1.59.13-2v-1c-.13-.85-.4-1.27-.83-1.27-.76,0-2.18.73-4.24,2.2a69,69,0,0,0-6.48,5.27,20.51,20.51,0,0,0-1.73,2,4.37,4.37,0,0,1-1,1,2,2,0,0,1-1,.19,3.87,3.87,0,0,1-2-1.34,7,7,0,0,1-1.53-2.17,9.34,9.34,0,0,1,.63-3.41q.65-1.63,1.92-4.12a26.88,26.88,0,0,1,1.47-3.83c.64-1.49,1.09-2.63,1.37-3.42a10.19,10.19,0,0,0,.54-2.46.05.05,0,0,0-.06-.06.65.65,0,0,1,.64-.64c.08-.13.34-.19.77-.19a4.75,4.75,0,0,1,2.87.89,3.19,3.19,0,0,1,1.21,2.75,4.87,4.87,0,0,1-.35,1.82c-.23.57-.67,1.52-1.31,2.84l-.7,1.4c-.13.26-.32.63-.58,1.12a3.19,3.19,0,0,0-.38.93c1.07-.73,2.32-1.68,3.77-2.88q3.19-2.55,5.23-3.95a6.52,6.52,0,0,1,3-1.41,5,5,0,0,1,2.33.93,3.85,3.85,0,0,1,1.75,1.69c0,.3,0,.74-.09,1.34s-.12,1.13-.16,1.6l.06,2a14.62,14.62,0,0,1,.06,1.54,11.1,11.1,0,0,1-.25,2.87,1.22,1.22,0,0,1,.13.19.55.55,0,0,1,.06.19l-.06.13a7.22,7.22,0,0,0,.7,2,12.33,12.33,0,0,1,.64,1.54,2.32,2.32,0,0,1-.93,1.56,3.4,3.4,0,0,1-1.75,1Z"/><path class="cls-1" d="M413.66,262.93a10.16,10.16,0,0,1-3.07-2.45,4.46,4.46,0,0,1-1.21-2.69,2.49,2.49,0,0,1,.51-1.75,1.69,1.69,0,0,1,1.28-.54,2.08,2.08,0,0,1,1.21.47,11,11,0,0,1,1.47,1.38,14,14,0,0,0,1.47,1.31,2,2,0,0,0,1.21.48q2.18,0,3.32-2.75a53.37,53.37,0,0,0,2.37-7.79l.89-3.83.13-.45s0,0-.07,0a.1.1,0,0,1-.12,0,15.55,15.55,0,0,1-4,1.72,17.13,17.13,0,0,1-5,1,2.65,2.65,0,0,1-2.14-1.28,5.49,5.49,0,0,1-.93-3.32V242c.09-.17.58-1.45,1.47-3.83s1.56-3.53,2-3.45c.13,0,.33-.24.61-.73a2.81,2.81,0,0,0,.41-1,2.76,2.76,0,0,1,.74-.74l1.05-.86,1.66-1.28a26.13,26.13,0,0,1,4.09-3.16,8,8,0,0,1,3.25-1.18l.64.07.74,0a8.24,8.24,0,0,1,1.94.54,7,7,0,0,1,2.88,2.81,8.59,8.59,0,0,1,1.59,3.89,10.69,10.69,0,0,1-.63,2.85c-.35.91-.69,1.37-1,1.37a1.82,1.82,0,0,0-1.34.45,4.09,4.09,0,0,0-.83,1.46,12.57,12.57,0,0,1-1,1.79l-1,4.92-.89,4.08a41.34,41.34,0,0,1-1.6,5.11,9.87,9.87,0,0,1-1.69,4.31,11.83,11.83,0,0,1-3.19,3.23,6.77,6.77,0,0,1-3.42,1.27A7.78,7.78,0,0,1,413.66,262.93Zm7.18-22a7.32,7.32,0,0,0,3-1.82c.21-.26.62-.82,1.24-1.7a7.18,7.18,0,0,1,2.08-2,2,2,0,0,0,.73-.7,1.75,1.75,0,0,0,.35-1v-.12a5.43,5.43,0,0,0-.38-.9,4.46,4.46,0,0,0-.93-1.21,2,2,0,0,0-1.37-.58,11,11,0,0,0-3,2.3,49.54,49.54,0,0,0-4.34,4.6c-1.34,1.62-2,2.74-2,3.38,0,.47.29.71.89.71A11.1,11.1,0,0,0,420.84,240.91Z"/><path class="cls-1" d="M449.73,252.05V250a4.31,4.31,0,0,1,.2-1.27c.34-1.53,1-3.73,1.88-6.58a47,47,0,0,1,2.46-6.45,8,8,0,0,0,.7-1.59c.17-.56.28-.92.32-1.09.21-.77.34-1.21.38-1.34l-.06-.64a1.07,1.07,0,0,1,.13-.51,2.19,2.19,0,0,1,.44-.57,9,9,0,0,0,1.92-3l2.42-7,.77-2.18c0-.16.13-.46.26-.89a4,4,0,0,0,.19-.89c0-.17-.05-.26-.13-.26a11.67,11.67,0,0,1-2,.19c-.51.09-.9.14-1.15.16a2.7,2.7,0,0,0-.58.1h-.44c-.81,0-1.22-.3-1.22-.9a6.4,6.4,0,0,1,.8-2.17,1.9,1.9,0,0,1,1.5-1.08l2.49-.58a8.26,8.26,0,0,1,1.6-.12,9.3,9.3,0,0,1,1.85.19c.51-.34.79-.64.83-.9A2.85,2.85,0,0,1,466.4,209a3.1,3.1,0,0,1,1.85-.64,2,2,0,0,1,1.28.42A1.5,1.5,0,0,1,470,210a1.71,1.71,0,0,1-.07.58v.22c0,.11.13.16.39.16a27.35,27.35,0,0,0,3.76-.7c.34,0,.93-.1,1.76-.16s1.52-.1,2.08-.1a7.67,7.67,0,0,1,1.85.19,5,5,0,0,1,1-.12,4,4,0,0,0,.76-.07,2.81,2.81,0,0,0,1.35-.19,12.06,12.06,0,0,0,1.3.22,5,5,0,0,1,1.06.23,2.27,2.27,0,0,1,.57.32.75.75,0,0,1,.19.44.39.39,0,0,1-.06.26l-.13-.07a.73.73,0,0,1,.23.1,2,2,0,0,1,.35.29c.34.17.51.59.51,1.27a4.88,4.88,0,0,1-.26,1.54.83.83,0,0,1-.28.54,2.29,2.29,0,0,1-1.06.19c-.55,0-1.28,0-2.17,0a32.53,32.53,0,0,0-4-.32,55.68,55.68,0,0,0-6.9.64,10.91,10.91,0,0,0-2.14.32l-1.24.32c-.22,0-.53.32-1,1a10.61,10.61,0,0,0-1.15,2.43c-.25.38-1,2.24-2.36,5.56l-1.53,3.57a10.9,10.9,0,0,0,2.93.26q2.88,0,8.37-.51a12.38,12.38,0,0,1,3.38-.39,1.38,1.38,0,0,1,1,.8,3.22,3.22,0,0,1,.42,1.63,2.56,2.56,0,0,1-.26,1.15,1.73,1.73,0,0,1-.7.76c-.89.56-2.75,1-5.56,1.28q-2.81.25-7.72.26a21,21,0,0,1-3.13-.13,1.19,1.19,0,0,0-.35.38,1.32,1.32,0,0,0-.23.77,72,72,0,0,0-3.22,7.47c-1.38,3.57-2.07,5.75-2.07,6.51a13.62,13.62,0,0,0-.71,2.62c0,.17-.1.4-.19.7a1.53,1.53,0,0,1-.25.58,1.15,1.15,0,0,1-1.28.95,1.79,1.79,0,0,1-1.41-.57Z"/><path class="cls-1" d="M482,249.05c-.49-.22-.82-.36-1-.45a2.4,2.4,0,0,0-.16-.67,2.53,2.53,0,0,1-.16-.61,2,2,0,0,1-.93-.86,1.56,1.56,0,0,1-.16-1.24c.6-1,1.67-3.38,3.23-7.06s2.41-5.8,2.58-6.35a2.16,2.16,0,0,1,.9-2,1.54,1.54,0,0,1,.89-.32c.73,0,1.41.49,2.05,1.47a6.24,6.24,0,0,1,.95,3.45,20,20,0,0,1-1.43,4.37q-1.44,3.6-3.23,7.25a21.17,21.17,0,0,1-1.5,2.68,1.4,1.4,0,0,1-1.12.64A3.71,3.71,0,0,1,482,249.05Zm7.76-24.84a7,7,0,0,1-1.89-1.82,3.88,3.88,0,0,1-.8-2.27,8.5,8.5,0,0,1,1.35-2.36,4.94,4.94,0,0,0,.89-1.47,4.94,4.94,0,0,1,1.15.19,6.7,6.7,0,0,1,1.21.45,10.94,10.94,0,0,0,1.53,2.3,10.69,10.69,0,0,1,1.12,1.6,2.76,2.76,0,0,1,.35,1.34,2.68,2.68,0,0,1-.73,2.07,3.38,3.38,0,0,1-2.33.67A3.57,3.57,0,0,1,489.77,224.21Z"/><path class="cls-1" d="M511.48,249.05a3.8,3.8,0,0,1-1.54-1.54l-.32-.63a12.69,12.69,0,0,1-.76-4.22v-2.81c0-.47-.05-.7-.13-.7q-.51,0-4.41,4.15a45.21,45.21,0,0,1-4.75,4.44,6.31,6.31,0,0,1-2.78,1.56,4.11,4.11,0,0,1-1.21-.48,5.62,5.62,0,0,1-1.22-.73,2.09,2.09,0,0,1-.57-1.09,14.12,14.12,0,0,1-.13-2.42,15.44,15.44,0,0,1,.83-4.63A66.81,66.81,0,0,1,497.3,233a17.25,17.25,0,0,0,1-2.17,16,16,0,0,1,2.75-4.6,2.24,2.24,0,0,1,.7.07,4.45,4.45,0,0,1,2,.76,2.92,2.92,0,0,1,1.37,1.85,7.83,7.83,0,0,1-.32,2.18,9.52,9.52,0,0,1-1.47,2.68,19.52,19.52,0,0,0-1.85,4.15c-.21.34-.5.86-.86,1.56a6.74,6.74,0,0,0-.54,1.18s.17-.05.38-.28.42-.46.64-.67l1.72-1.73q5-5,7.79-5.17a3.08,3.08,0,0,1,2.49,1.47,5.77,5.77,0,0,1,1.09,3.51c0,.25,0,1-.13,2.17v3.64a19.15,19.15,0,0,0,2.23-.7,12.06,12.06,0,0,1,3.32-.7,7.81,7.81,0,0,1-1.18,2.87,14.43,14.43,0,0,1-2.46,3.13,3.94,3.94,0,0,1-2.55,1.34A4,4,0,0,1,511.48,249.05Z"/><path class="cls-1" d="M534.14,254.41h-.25a3,3,0,0,1-1.09-.38,3.81,3.81,0,0,1-1.88-1.06,2.48,2.48,0,0,1-.8-1.82,4.08,4.08,0,0,1,.25-1q.58-1.08,2.94-10.66l1.09-4.21s.08-.71.25-2c.13-.64.32-1.81.58-3.52a10.5,10.5,0,0,0,1-3.22c.19-1.17.31-1.84.35-2a20.46,20.46,0,0,1,.64-2.24l.57-2.23.39-1.47a10,10,0,0,0,.44-2v-1h-2.36l-1,.06c-.68,0-1.21,0-1.6-.06l-2.23-.07a12.41,12.41,0,0,1-4-.6,2,2,0,0,1-1.09-1.89c-.17-.85.26-1.52,1.28-2s3.11-.69,6.26-.61c.59,0,1.4-.06,2.42-.06s1.85,0,2.49.06l1.09.07a1.59,1.59,0,0,0,.32-.51c.08-.22.15-.39.19-.51,0-.73.23-1.17.7-1.34a1.57,1.57,0,0,1,1.6-.83,3.38,3.38,0,0,1,1.4.31,2.64,2.64,0,0,1,1.09.9,3.65,3.65,0,0,1,.13,1.15,1.63,1.63,0,0,0,.38,1.21,3.18,3.18,0,0,1,1.66-.32c.93,0,1.59-.08,2-.13q1.21,0,2.49-.09c.85-.07,1.42-.1,1.72-.1a3.86,3.86,0,0,1,1.79-.32,15.39,15.39,0,0,1,1.6.13,2.66,2.66,0,0,1,1.85.54,7,7,0,0,1,1,1.25,1.4,1.4,0,0,0,.32,1,.52.52,0,0,1,.25.38,1.66,1.66,0,0,1-.25.58c-.3.38-1.07.57-2.3.57l-1.34.07q-1.41.12-2,.12a39.51,39.51,0,0,1-6.52.71q-2.61,0-2.61.51c-.26,0-.75,1.38-1.47,4.15-.26,1-.53,1.95-.8,2.77a11.08,11.08,0,0,1-.67,1.7.91.91,0,0,1,.19.57,6,6,0,0,1-.38,1.41c-.13.47-.28.92-.45,1.37a3.27,3.27,0,0,0-.26,1.05c0,.17-.16.59-.35,1.25a18.64,18.64,0,0,0-.48,2.2c-.21,2-.49,3.24-.83,3.58,0,.08-.13.25-.28.51a1.6,1.6,0,0,0-.23.83,20.14,20.14,0,0,1-.44,3.16,7.19,7.19,0,0,1-.71,2.46c.13,0,.2.12.2.38a3.8,3.8,0,0,1-.39,1.34,4.6,4.6,0,0,1-.19,1.21,4.35,4.35,0,0,0-.19,1c-.43,1.19-1,2.7-1.79,4.53a18.43,18.43,0,0,1-1.4,3Z"/><path class="cls-1" d="M548.89,249.43a7.47,7.47,0,0,1-2.23-5.81,30.33,30.33,0,0,1,.19-3.26,15.15,15.15,0,0,1,1.24-4.21,24,24,0,0,1,3.07-5.24,12.22,12.22,0,0,1,4.56-3.76,12,12,0,0,1,2-.8,7.3,7.3,0,0,1,1.91-.23,8.31,8.31,0,0,1,4.25,1,6.14,6.14,0,0,1,2.3,2.17,4.6,4.6,0,0,1,.67,2.11v.51a8.77,8.77,0,0,1-.9,2.81,11.39,11.39,0,0,1-2.84,3.83,7.91,7.91,0,0,1-5,2,14.52,14.52,0,0,1-3-.29,12.71,12.71,0,0,0-1.82-.28,1.13,1.13,0,0,0-1.21.7,7.61,7.61,0,0,0-.26,2.36,3.8,3.8,0,0,0,1,2.49,3.42,3.42,0,0,0,2.33.7,4.7,4.7,0,0,0,1.79-.44,16,16,0,0,0,2.43-1.6,9.54,9.54,0,0,1,1.21-.89,2.16,2.16,0,0,1,1.08-.26,2.11,2.11,0,0,1,1.35.77,2.53,2.53,0,0,1,.83,1.47,6.08,6.08,0,0,1-1.41,2.29,12.59,12.59,0,0,1-3.32,2.75,9.1,9.1,0,0,1-10.28-.83Zm9.77-13.6a9.1,9.1,0,0,0,2-1.63,4.64,4.64,0,0,0,1.37-1.82,1.28,1.28,0,0,0-.54-1,3,3,0,0,0-1.5-.54h-.71a4.42,4.42,0,0,0-2.39,1.37,14.7,14.7,0,0,0-2.71,3.16c0,.21.36.39,1,.54a7.89,7.89,0,0,0,1.92.23A3.69,3.69,0,0,0,558.66,235.83Z"/><path class="cls-1" d="M574.75,251.86a7,7,0,0,1-4.63-1.7,5.37,5.37,0,0,1-2-4.31l-.06-1a21.94,21.94,0,0,1,1.34-7,21.17,21.17,0,0,1,3.32-6.45c1.06-1.23,2-2.23,2.74-3a6.87,6.87,0,0,1,2.11-1.53,13.22,13.22,0,0,1,2.11-.57A4.59,4.59,0,0,1,584,227c.74.38,1.11.8,1.11,1.27l.32.32c.3,0,.65.47,1.06,1.41a6.52,6.52,0,0,1,.6,2.55,2.13,2.13,0,0,1-.19,1,7.08,7.08,0,0,1-1,2.36c-.49.77-.9,1.15-1.24,1.15s-.71.13-.71.38-.25.32-.76.32a3.38,3.38,0,0,1-1.34-.29c-.47-.19-.75-.43-.83-.73a23.41,23.41,0,0,1,.51-2.55,8.22,8.22,0,0,0,.19-1.6c0-.77-.26-1.15-.77-1.15a4.77,4.77,0,0,0-1,.26,8.73,8.73,0,0,0-2.65,2.07,11,11,0,0,0-1.76,3.23q-.76,2-1.79,5.93a5.72,5.72,0,0,0-.19,1.41,3.33,3.33,0,0,0,.19,1.24c.13.32.26.5.39.55a3.65,3.65,0,0,0,1.14.12,5,5,0,0,0,2.56-.57,19.67,19.67,0,0,0,2.23-1.44l1.34-1a5.17,5.17,0,0,0,.52-.73,1.9,1.9,0,0,1,.83-.8,1.51,1.51,0,0,1,1-.7,5.07,5.07,0,0,1,1.15-.13h.77a3.5,3.5,0,0,1,1.59,1.15c.52.6.6,1,.26,1.15a.26.26,0,0,0-.26.13.49.49,0,0,0-.06.19c.09.21-.25.78-1,1.69a25.14,25.14,0,0,1-2.55,2.62c-.94.83-1.58,1.24-1.92,1.24a1.52,1.52,0,0,0-.45.07.3.3,0,0,0-.19.32c0,.17-.65.56-2,1.18a15.51,15.51,0,0,1-3.16,1.18A8.5,8.5,0,0,1,574.75,251.86Z"/><path class="cls-1" d="M609.55,251.09a3.61,3.61,0,0,1-3-1.47,6.8,6.8,0,0,1-1.15-4.28,19.32,19.32,0,0,1,1.08-6.06c.13-.3.3-.66.51-1.09s.26-.64.13-.64-.59.28-1.15.83a33.22,33.22,0,0,0-5.2,5.85q-2.09,3-2.08,4.69a1.23,1.23,0,0,1-.54,1.08,2.08,2.08,0,0,1-1.24.39,1.91,1.91,0,0,1-.83-.19,6.5,6.5,0,0,1-2.3-2.33,6,6,0,0,1-.71-3.68,56,56,0,0,1,.93-7.75q.68-3.36,2.59-9.55c0-.13.44-1.21,1.21-3.26q2-5.61,2.23-6.12a10,10,0,0,0,1.31-2.78,13.26,13.26,0,0,0,.87-2.84,1.91,1.91,0,0,1,.28-1c.19-.32.31-.52.35-.61.47-1.06.88-1.6,1.22-1.6a4.34,4.34,0,0,1,1.82.74c.83.49,1.31.95,1.43,1.37a4.31,4.31,0,0,1,.51,1.92,6.41,6.41,0,0,1-.51,2.26,36.05,36.05,0,0,1-1.72,3.61,63.87,63.87,0,0,0-3.45,8.49c-.51,1.37-1.13,3.3-1.85,5.81a28.67,28.67,0,0,0-1.09,4.47.4.4,0,0,0,.45.45c.34,0,.7-.26,1.09-.77a3.5,3.5,0,0,1,.83-.95,13.8,13.8,0,0,0,1-1,36.85,36.85,0,0,1,3.06-3.32c1.15-1.1,2-1.66,2.62-1.66q2.29,0,3.45,2.88a1.87,1.87,0,0,1,.38.51,1.38,1.38,0,0,0,.26.38,2.55,2.55,0,0,1,.32,1.6,16.81,16.81,0,0,1-1,5.23,20.13,20.13,0,0,0-.7,3.83c0,.56.15.83.45.83.13-.08.38-.23.77-.44l1.34-.77a4.86,4.86,0,0,1,2.23-.83,1.24,1.24,0,0,1,1,.35,1.25,1.25,0,0,1,.32.86,3.54,3.54,0,0,1-.42,1.34,5.61,5.61,0,0,0-.41,1v.32c0,.17-.58.72-1.73,1.66a8.23,8.23,0,0,1-2.49,1.59A5.94,5.94,0,0,1,609.55,251.09Z"/><path class="cls-1" d="M623.28,240.17a2.4,2.4,0,0,1-2.3-1.28,1.22,1.22,0,0,1-.32-.83c0-.72,1.19-1.21,3.57-1.46a41,41,0,0,1,8.94-.9,6.34,6.34,0,0,1,4.47,1.34,1.87,1.87,0,0,1,.58,1.34,1.37,1.37,0,0,1-.61,1.15,2,2,0,0,1-1.5.32l-4.47.32c-.21,0-1,.06-2.24.16s-2.57.16-3.89.16A6.81,6.81,0,0,1,623.28,240.17Z"/><path class="cls-1" d="M642.3,249.11c-.59-.42-.89-.68-.89-.77a1.65,1.65,0,0,0-.29-.73c-.19-.32-.37-.61-.54-.86-.34-.34-.11-1.45.7-3.32s1.89-4.09,3.26-6.64a9.24,9.24,0,0,0,1-1.34,5.59,5.59,0,0,1,.79-1.09.73.73,0,0,1,.2-.48.54.54,0,0,1,.44-.22l.51-1a15.28,15.28,0,0,1,2.49-2.75,21.79,21.79,0,0,1,3.52-2.93,4.48,4.48,0,0,1,2.61-.84,4,4,0,0,1,2.62.9l1.72,1.47c1.28,1.06,2,1.68,2.18,1.85l2.36,2.11-1.09,3.19a10.36,10.36,0,0,0-.57,3.25,8.35,8.35,0,0,0,1.34,4.54,2.54,2.54,0,0,0,.86,1.08A3.14,3.14,0,0,0,667,245c.93.17,1.4.64,1.4,1.41a3.59,3.59,0,0,1-.51,2.11,2.2,2.2,0,0,1-1.21.89,12.43,12.43,0,0,1-1.41.13,6.24,6.24,0,0,1-3.38-1,7.77,7.77,0,0,1-2.68-3.26,8.07,8.07,0,0,1-.67-1.4,7.61,7.61,0,0,1-.48-1.41,13.52,13.52,0,0,1-1.47,1.66q-6.57,6.65-10.66,6.64a4.45,4.45,0,0,1-2.49-.7A3.74,3.74,0,0,0,642.3,249.11Zm8.56-6.58c.21-.17.44-.37.7-.6l.83-.74c1.19-1,2.12-1.79,2.78-2.45a19.84,19.84,0,0,0,2-2.4l1.4-2.3a6.29,6.29,0,0,0-1.15-1.88,1.51,1.51,0,0,0-1-.48c-.85,0-1.91.76-3.19,2.27a50.75,50.75,0,0,0-4.6,6.86,13.12,13.12,0,0,0-1.15,2.39c-.29.83-.49,1.38-.57,1.63Q647.92,245,650.86,242.53Z"/><path class="cls-1" d="M672.57,249.91a7.23,7.23,0,0,1-1.6-2.46.48.48,0,0,0-.13-.29l-.19-.22c-.17-.13-.25-.83-.25-2.11,0-1,.05-2.08.15-3.19A19.26,19.26,0,0,1,671,239l1.15-3.39L673,233l1.73-3.7-2.56-.7a1.12,1.12,0,0,1-.73-.45,1.24,1.24,0,0,1-.29-.7,3.4,3.4,0,0,1,.54-1.47c.37-.64.65-1,.87-1a4.76,4.76,0,0,0,1,.06,15.71,15.71,0,0,0,2.87-.19,1.53,1.53,0,0,0,.89-1,9.53,9.53,0,0,1,.64-1.18c.22-.32.43-.67.64-1.05l.61-1.19c.27-.53.63-1.13,1-1.82.09-.12.28-.43.58-.92a4.67,4.67,0,0,1,1.08-1.25,3.48,3.48,0,0,1,1-.54,3.83,3.83,0,0,1,1.28-.22,2.62,2.62,0,0,1,1.85.64,1.92,1.92,0,0,1,.07,2.68,19.18,19.18,0,0,1-1.28,2c-.51.77-.89,1.38-1.15,1.85a2.47,2.47,0,0,0-.64,1.28c0,.3.28.45.83.45a18.92,18.92,0,0,0,3-.39,5.12,5.12,0,0,1,.9-.06,2.5,2.5,0,0,1,2.17.89,3.8,3.8,0,0,1,.64,2.24c0,.59-.21,1-.61,1.08a11.31,11.31,0,0,1-2.71.2,27.76,27.76,0,0,1-4.22.31c-.25,0-.54,0-.86,0a5.1,5.1,0,0,0-1,.16,1.32,1.32,0,0,0-.73.38,3.43,3.43,0,0,0-.48.83,10.17,10.17,0,0,0-.9,1.47A24.88,24.88,0,0,1,678,234a65.48,65.48,0,0,0-2.55,10,6.22,6.22,0,0,0-.06,1,1.32,1.32,0,0,0,.54,1.19,4.42,4.42,0,0,0,2.14.35,12.38,12.38,0,0,0,3.38-.45,23.3,23.3,0,0,0,2.87-1.41c.39-.21.74-.41,1.06-.6s.54-.33.67-.42c.17-.34.46-.29.86.13a2.55,2.55,0,0,1,.48,3.55,5.38,5.38,0,0,1-2.24,1.94,15.19,15.19,0,0,1-4.21,1.85,15.74,15.74,0,0,1-4.09.58,10.08,10.08,0,0,1-2-.19A4.55,4.55,0,0,1,672.57,249.91Z"/><path class="cls-1" d="M693.7,240.17a2.42,2.42,0,0,1-2.3-1.28,1.27,1.27,0,0,1-.32-.83c0-.72,1.19-1.21,3.58-1.46a41,41,0,0,1,8.94-.9,6.34,6.34,0,0,1,4.47,1.34,1.86,1.86,0,0,1,.57,1.34,1.35,1.35,0,0,1-.61,1.15,1.93,1.93,0,0,1-1.5.32l-4.47.32c-.21,0-.95.06-2.23.16s-2.58.16-3.9.16A6.86,6.86,0,0,1,693.7,240.17Z"/><path class="cls-1" d="M720.32,254.86l.07-.19c0-.43-.36-.66-1.09-.71a11.48,11.48,0,0,1-2.87-2.84,13.42,13.42,0,0,1-1.92-3.09,2.87,2.87,0,0,1-.19-.71.54.54,0,0,1,.26-.48,5.41,5.41,0,0,1,.64-.32c.25-.1.44-.18.57-.22a3.67,3.67,0,0,1,1.73-.76c.42,0,.78.27,1.08.83a6.94,6.94,0,0,0,2.87,2.65,9.26,9.26,0,0,0,4.41,1,9.48,9.48,0,0,0,3.89-.77,2.41,2.41,0,0,0,1.66-2.23,5.25,5.25,0,0,0-.95-2.62,1.83,1.83,0,0,0-.45-.7,5.12,5.12,0,0,0-.77-.64,21.39,21.39,0,0,1-2.23-2,14.46,14.46,0,0,1-2.11-1l-1.34-.64A16.91,16.91,0,0,1,720,237a11.36,11.36,0,0,1-2.75-3.16,5.38,5.38,0,0,1-1.4-4.09,11.61,11.61,0,0,1,1.4-5.61,27.52,27.52,0,0,1,3.7-5.3,23.77,23.77,0,0,1,4.34-4.47l1.66-1.6c0-.17.11-.26.2-.29l.19,0a13.61,13.61,0,0,1,1.34-.61,8.1,8.1,0,0,0,2.42-1.69,38.45,38.45,0,0,1,6.93-2.71,20.79,20.79,0,0,1,5.08-.8,8.13,8.13,0,0,1,4.63,1.79,6,6,0,0,1,2.46,3.83,5.92,5.92,0,0,1,.12,1,9.93,9.93,0,0,1-1.91,5.3,12.27,12.27,0,0,1-4.09,4.15,4.33,4.33,0,0,1-1.85.45,2.59,2.59,0,0,1-1.76-.58,1.67,1.67,0,0,1-.6-1.47,2.77,2.77,0,0,1,.41-1.3,17.78,17.78,0,0,1,1.89-2.4c1.44-2.13,2.17-3.66,2.17-4.6,0-.63-.39-1-1.15-1.15a11.78,11.78,0,0,0-3.8.55c-2.07.49-3.1.84-3.1,1a1.34,1.34,0,0,1,0,.22c0,.11-.1.14-.22.1a18.81,18.81,0,0,0-3.61,2.11,19.39,19.39,0,0,0-3.48,2.49,1.28,1.28,0,0,1-.48.67,4,4,0,0,1-1,.6,7.48,7.48,0,0,0-2.07,1.92,35.16,35.16,0,0,0-2.4,3.83,10.62,10.62,0,0,0-1.24,2.36,6.67,6.67,0,0,0-.48,2.3,3.47,3.47,0,0,0,.19,1.22,3.3,3.3,0,0,0,1.37,1.75c.75.53,2.18,1.44,4.31,2.71a47.69,47.69,0,0,1,5.88,3.93,11.73,11.73,0,0,1,3.19,3.29,6.59,6.59,0,0,1,1,3.83,11.82,11.82,0,0,1-.51,3.51,10,10,0,0,1-1.47,2.27c-.6.7-1.13,1-1.6,1a4.5,4.5,0,0,0-1.08.48,4.23,4.23,0,0,1-.77.41,14.34,14.34,0,0,1-3.92.93,29.41,29.41,0,0,1-5.27.41Z"/><path class="cls-1" d="M749.12,251.86a7,7,0,0,1-4.63-1.7,5.37,5.37,0,0,1-2-4.31l-.06-1a21.94,21.94,0,0,1,1.34-7,21.17,21.17,0,0,1,3.32-6.45c1.06-1.23,2-2.23,2.74-3a6.87,6.87,0,0,1,2.11-1.53,13.52,13.52,0,0,1,2.11-.57,4.59,4.59,0,0,1,4.31.64c.74.38,1.11.8,1.11,1.27l.32.32c.3,0,.65.47,1.06,1.41a6.52,6.52,0,0,1,.6,2.55,2.13,2.13,0,0,1-.19,1,7.08,7.08,0,0,1-1,2.36c-.49.77-.9,1.15-1.24,1.15s-.71.13-.71.38-.25.32-.76.32a3.38,3.38,0,0,1-1.34-.29c-.47-.19-.75-.43-.83-.73a23.41,23.41,0,0,1,.51-2.55,8.22,8.22,0,0,0,.19-1.6c0-.77-.26-1.15-.77-1.15a4.77,4.77,0,0,0-.95.26,8.73,8.73,0,0,0-2.65,2.07,11,11,0,0,0-1.76,3.23q-.76,2-1.79,5.93a6.24,6.24,0,0,0-.19,1.41,3.55,3.55,0,0,0,.19,1.24c.13.32.26.5.39.55a3.68,3.68,0,0,0,1.15.12,5,5,0,0,0,2.55-.57,19.67,19.67,0,0,0,2.23-1.44l1.34-1a5.17,5.17,0,0,0,.52-.73,1.9,1.9,0,0,1,.83-.8,1.51,1.51,0,0,1,1-.7,5.07,5.07,0,0,1,1.15-.13H760a3.57,3.57,0,0,1,1.6,1.15c.51.6.59,1,.25,1.15a.24.24,0,0,0-.25.13.4.4,0,0,0-.07.19c.09.21-.25.78-1,1.69a25.14,25.14,0,0,1-2.55,2.62c-.94.83-1.58,1.24-1.92,1.24a1.52,1.52,0,0,0-.45.07.3.3,0,0,0-.19.32c0,.17-.65.56-2,1.18a15.29,15.29,0,0,1-3.16,1.18A8.5,8.5,0,0,1,749.12,251.86Z"/><path class="cls-1" d="M766.3,249.11c-.6-.42-.9-.68-.9-.77a1.54,1.54,0,0,0-.29-.73c-.19-.32-.37-.61-.54-.86-.34-.34-.1-1.45.7-3.32s1.9-4.09,3.26-6.64a8,8,0,0,0,1-1.34,5,5,0,0,1,.8-1.09.72.72,0,0,1,.19-.48.58.58,0,0,1,.45-.22l.51-1a15.28,15.28,0,0,1,2.49-2.75,22.27,22.27,0,0,1,3.51-2.93,4.51,4.51,0,0,1,2.62-.84,4,4,0,0,1,2.62.9l1.72,1.47c1.28,1.06,2,1.68,2.17,1.85l2.36,2.11-1.08,3.19a10.11,10.11,0,0,0-.58,3.25,8.35,8.35,0,0,0,1.34,4.54,2.56,2.56,0,0,0,.87,1.08,3.14,3.14,0,0,0,1.43.51q1.41.25,1.41,1.41a3.59,3.59,0,0,1-.51,2.11,2.26,2.26,0,0,1-1.22.89,12.51,12.51,0,0,1-1.4.13,6.27,6.27,0,0,1-3.39-1,7.84,7.84,0,0,1-2.68-3.26,8.9,8.9,0,0,1-.67-1.4,7.61,7.61,0,0,1-.48-1.41,12.71,12.71,0,0,1-1.47,1.66q-6.57,6.65-10.66,6.64a4.47,4.47,0,0,1-2.49-.7A3.8,3.8,0,0,0,766.3,249.11Zm8.55-6.58c.21-.17.45-.37.7-.6l.83-.74c1.2-1,2.12-1.79,2.78-2.45a19.84,19.84,0,0,0,2-2.4l1.41-2.3a6.5,6.5,0,0,0-1.15-1.88,1.51,1.51,0,0,0-1-.48c-.86,0-1.92.76-3.2,2.27a50.87,50.87,0,0,0-4.59,6.86,13.12,13.12,0,0,0-1.15,2.39c-.3.83-.49,1.38-.58,1.63Q771.91,245,774.85,242.53Z"/><path class="cls-1" d="M794.49,248.76a2.11,2.11,0,0,1-.67-1.37,14.93,14.93,0,0,1,.22-2.3,24.3,24.3,0,0,1,.54-2.56q.2-1.59.42-2.58a6.72,6.72,0,0,1,.79-1.95c.17-.64.47-1.6.9-2.87q1.39-4.47,1.91-6.9.51-1.39.9-2.49c.25-.72.49-1.38.7-2-.09.26.45-1.19,1.6-4.34.34-1,.57-1.81.7-2.36a16.11,16.11,0,0,1,1.59-4.34,9.31,9.31,0,0,0,.68-1.09,3.81,3.81,0,0,1,.41-.7c0-.17.27-.32.67-.45a4,4,0,0,1,1.25-.19,1.35,1.35,0,0,1,.95.26c.22-.09.59.26,1.12,1a3,3,0,0,1,.73,1.69,2.76,2.76,0,0,1-.44,1.53,3.68,3.68,0,0,0-.58.93c-.21.45-.4.82-.57,1.12s-.22.8-.42,1.5-.37,1.29-.54,1.75-.41,1-.61,1.44-.35.84-.47,1.18q-.25.82-.9,2.49a29.58,29.58,0,0,0-1.21,3.39q-.13.38-.45,1.59a22.25,22.25,0,0,1-1.72,4.66,6.19,6.19,0,0,0-.74,2.24c-.15.93-.24,1.51-.28,1.72a19.22,19.22,0,0,0-1,3.39c-.09.38-.24,1.12-.45,2.23a15.66,15.66,0,0,1-.76,2.94,4.3,4.3,0,0,1-.74,1.85,1.69,1.69,0,0,1-1.37.89,1.51,1.51,0,0,1-.7-.19A5.47,5.47,0,0,1,794.49,248.76Z"/><path class="cls-1" d="M804.86,244.32a18.79,18.79,0,0,1,1.5-6.8,29.4,29.4,0,0,1,3.77-6.83,12.46,12.46,0,0,1,4.5-4.05,5.88,5.88,0,0,1,2.81-.64,9.8,9.8,0,0,1,5,1.24q2.14,1.24,2.14,4.7a9,9,0,0,1-1.34,4.34,14,14,0,0,1-3.35,4A6.33,6.33,0,0,1,816,241.9a6.81,6.81,0,0,1-4.85-1.86,9.25,9.25,0,0,0-1.09,4.15,6.12,6.12,0,0,0,.39,2.46c.25.58.85.86,1.78.86a5.12,5.12,0,0,0,2.17-.38,8.6,8.6,0,0,0,1.54-.89c.46-.34.83-.6,1.08-.77l.26-.13h-.07c.77-.42,1.33-.75,1.7-1a4.21,4.21,0,0,1,.92-.47,3.09,3.09,0,0,1,1.79.57,1.68,1.68,0,0,1,.83,1.4,4.29,4.29,0,0,1-1.15,2.08,6.89,6.89,0,0,1-2.36,2l-.77.38h.06a1.54,1.54,0,0,1-1.14.77h-.51a3.14,3.14,0,0,1-1.7,1,8.07,8.07,0,0,1-2.71.51Q804.87,252.62,804.86,244.32Zm13.57-8.62a5,5,0,0,0,1.18-3.06,2.44,2.44,0,0,0-.35-1.28,1.06,1.06,0,0,0-.93-.57,4.15,4.15,0,0,0-2.42,1,9.56,9.56,0,0,0-2.37,2.68l-.83,1.34a1.09,1.09,0,0,1,.39-.13.82.82,0,0,1,.76.45,3.53,3.53,0,0,0,.58.77,1.4,1.4,0,0,0,1,.31A3.62,3.62,0,0,0,818.43,235.7Z"/><path class="cls-1" d="M851.41,41.16h-4.87V59.79H842V41.16h-4.88V37.47h14.25Z"/><path class="cls-1" d="M860.14,37.47l3.19,15.75h.06l3.22-15.75h6.66V59.79h-4.13V42h-.06l-4,17.82h-3.5l-4-17.82h-.07V59.79h-4.12V37.47Z"/></g></svg>