<?xml version="1.0" encoding="UTF-8"?>
<svg width="230px" height="100px" viewBox="0 0 230 100" version="1.1" xmlns="http://www.w3.org/2000/svg" xmlns:xlink="http://www.w3.org/1999/xlink">
    <!-- Generator: Sketch 48 (47235) - http://www.bohemiancoding.com/sketch -->
    <title>logo</title>
    <desc>Created with Sketch.</desc>
    <defs></defs>
    <g id="Article" stroke="none" stroke-width="1" fill="none" fill-rule="evenodd" transform="translate(0.000000, -16.000000)">
        <g id="header-alt2" transform="translate(0.000000, 8.000000)">
            <g id="logo" transform="translate(0.000000, 8.000000)">
                <rect id="Rectangle-5" fill="#D0021B" x="0" y="0" width="230" height="100"></rect>
                <g id="logo/white" transform="translate(40.000000, 31.000000)" fill="#FFFFFF" fill-rule="nonzero">
                    <polygon id="Shape" points="61.3226097 28.5433735 55.9367436 28.5433735 55.9367436 20.2825301 53.0175751 28.5433735 47.6189376 28.5433735 44.6359122 20.0259036 44.6359122 28.5433735 39.2536952 28.5433735 39.2536952 4.90120482 44.7362587 4.90120482 50.3191686 20.8518072 55.9367436 4.90120482 61.3226097 4.90120482"></polygon>
                    <polygon id="Shape" points="72.2275289 10.2379518 72.2275289 14.0512048 79.0291917 14.0512048 79.0291917 19.389759 72.2275289 19.389759 72.2275289 23.2066265 81.4685219 23.2066265 81.4685219 28.5433735 66.8398383 28.5433735 66.8398383 4.90120482 81.4685219 4.90120482 81.4685219 10.2379518"></polygon>
                    <path d="M103.668799,16.7204819 C103.6669,21.4096376 100.867465,25.6545212 96.5332564,27.5403614 C95.2005629,28.1225371 93.7729425,28.4622936 92.3187067,28.5433735 L86.7941801,28.5433735 L86.7941801,4.90113402 L91.6053349,4.90120482 C93.1813847,4.89587378 94.7436861,5.19163467 96.2066744,5.77228916 C99.176038,6.95467059 101.542219,9.26787822 102.774804,12.1933735 C103.374769,13.6252216 103.680551,15.1611767 103.674273,16.7114458" id="Shape"></path>
                    <polygon id="Shape" points="108.640508 28.5433735 114.030023 28.5433735 114.030023 4.90120482 108.640508 4.90120482"></polygon>
                    <path d="M128.443418,23.2337349 C128.96057,23.2389778 129.471952,23.1257934 129.937667,22.903012 C130.398046,22.681878 130.811193,22.3751015 131.154596,21.9993976 C131.894723,21.1928771 132.301174,20.1399029 132.293072,19.05 L137.682587,19.05 C137.686399,20.2855832 137.458744,21.5111429 137.011178,22.6644578 C136.557639,23.8080183 135.881279,24.8519599 135.02067,25.736747 C134.175661,26.6292473 133.156463,27.3424571 132.024873,27.8331325 C130.896454,28.3255453 129.676481,28.5785601 128.443418,28.5759036 L128.412402,28.5759036 C127.186315,28.5828801 125.972611,28.3328265 124.851016,27.8421687 C123.71776,27.344121 122.693372,26.6320494 121.83515,25.7457831 C121.010258,24.8689167 120.352557,23.851281 119.893903,22.7421687 C119.432262,21.6281019 119.184753,20.4384255 119.164111,19.2343373 L119.164111,14.3385542 C119.179932,13.1088695 119.418464,11.8919826 119.86836,10.7457831 C120.316867,9.6248765 120.981143,8.60105605 121.824203,7.7313253 C122.685355,6.84532521 123.709659,6.13067568 124.841894,5.62590361 C125.964897,5.14281839 127.177141,4.89663046 128.401455,4.90301205 L128.443418,4.90301205 C129.674638,4.8982796 130.893692,5.14433728 132.024873,5.62590361 C133.151332,6.12492744 134.166527,6.84057697 135.011547,7.7313253 C135.871782,8.61640547 136.548092,9.66026922 137.002055,10.8036145 C137.449866,11.956861 137.677531,13.1824665 137.673464,14.4180723 L132.283949,14.4180723 C132.287958,13.8619582 132.185819,13.3101041 131.98291,12.7915663 C131.788475,12.2999909 131.504629,11.8479273 131.145473,11.4578313 C130.801673,11.0825591 130.388617,10.7758494 129.928545,10.5542169 C129.46283,10.3314355 128.951448,10.2182511 128.434296,10.223494 C127.913734,10.2192254 127.399014,10.3323201 126.929099,10.5542169 C126.461304,10.7727697 126.041106,11.0797205 125.692102,11.4578313 C125.334001,11.8473589 125.052465,12.2996862 124.861963,12.7915663 C124.654085,13.3089172 124.549376,13.8612652 124.553626,14.4180723 L124.553626,19.0319277 C124.554969,20.1201179 124.960164,21.1698389 125.692102,21.9813253 C126.04063,22.3599596 126.46094,22.666992 126.929099,22.8849398 C127.399014,23.1068365 127.913734,23.2199312 128.434296,23.2156627" id="Shape"></path>
                    <path d="M30.0674365,8.6746988 C26.3287369,1.43659431 17.6220148,-1.76634238 10.0199658,1.29984769 C2.41791682,4.36603776 -1.55346403,12.6825265 0.875750577,20.4487952 C6.44588915,17.7777108 11.9466975,14.9186747 17.3216166,11.9204819 C18.7994457,11.0963855 21.7003695,12.4355422 19.5383603,13.6445783 C13.7547575,16.863253 7.82337182,19.9246988 1.82448037,22.7710843 C1.85549654,22.8325301 1.88468822,22.8975904 1.91570439,22.9608434 C2.23180293,23.5672481 2.58709935,24.1528035 2.97937644,24.7138554 C9.55966898,21.3704819 16.2117244,18.1698795 22.9355427,15.1120482 C24.0430023,14.6078313 27.277806,15.1445783 25.044642,16.160241 C18.0094457,19.3626506 11.0520939,22.7210843 4.17258661,26.2355422 C9.47055459,32.1113225 18.348572,33.1781665 24.911224,28.7276405 C31.4738759,24.2771145 33.6812025,15.692637 30.0674365,8.6746988 Z" id="Shape"></path>
                    <polygon id="Shape" points="147.990901 22.9987952 147.990901 4.90120482 142.60321 4.90120482 142.60321 26.7162651"></polygon>
                    <polygon id="Shape" points="142.665242 28.5433735 147.990901 28.5433735 147.990901 24.8710843"></polygon>
                    <polygon id="Shape" points="153.739838 3.24216867 152.789284 3.24216867 152.789284 6.84036145 151.911709 6.84036145 151.911709 3.24216867 150.961155 3.24216867 150.961155 2.53012048 153.739838 2.53012048"></polygon>
                    <polygon id="Shape" points="155.445727 2.53012048 156.067875 5.57168675 156.078822 5.57168675 156.706443 2.53012048 158 2.53012048 158 6.84036145 157.195404 6.84036145 157.195404 3.40662651 157.182633 3.40662651 156.409053 6.84036145 155.726697 6.84036145 154.953118 3.40662651 154.940346 3.40662651 154.940346 6.84036145 154.135751 6.84036145 154.135751 2.53012048"></polygon>
                    <path d="M40.5819169,41.7560241 L40.2972979,41.6042169 C40.1186156,41.5076908 39.945061,41.4021298 39.777321,41.2879518 L39.458037,41.0656627 C39.3311315,40.9415389 39.2268196,40.7966386 39.1496998,40.6373494 C39.0654816,40.4438253 39.0042549,40.2412616 38.9672517,40.0337349 C38.9532136,39.9525019 38.9452857,39.8703482 38.9435335,39.7879518 C38.9515863,39.496858 38.9932115,39.2076305 39.0675982,38.9259036 C39.1282371,38.6554827 39.2137362,38.391127 39.3230254,38.1361446 C39.653012,37.4450579 40.036699,36.7804078 40.4706236,36.1481928 L40.5344804,36.0831325 C40.5472517,36.0722892 40.5490762,36.0614458 40.5344804,36.0542169 C40.6238655,35.8023934 40.7387868,35.5601919 40.8774827,35.3313253 C40.9869751,35.2391323 41.0589415,35.1106893 41.08,34.9698795 C41.0823904,34.9242999 41.0695673,34.8792083 41.0435104,34.8415663 C41.0197921,34.8108434 41.0435104,34.7421687 41.1383834,34.6355422 C41.2490042,34.5079314 41.3711419,34.390578 41.5032794,34.2849398 C41.6551441,34.1574764 41.8195667,34.0454668 41.9940647,33.9506024 C42.1687186,33.8011238 42.3892518,33.7145089 42.6198614,33.7048193 C42.6748548,33.7029256 42.7296148,33.7127878 42.7804157,33.7337349 C42.8197798,33.7480266 42.8488059,33.7815702 42.8570439,33.8222892 C42.8570439,33.8692771 43.0139492,33.853012 43.3295843,33.7753012 C43.4718938,33.7445783 43.5740647,33.7246988 43.6379215,33.7156627 C43.7075989,33.6603142 43.7917858,33.6258292 43.8805774,33.6162651 C44.0101155,33.5891566 44.194388,33.560241 44.4279215,33.5295181 C44.5538106,33.5295181 44.7107159,33.5295181 44.8949885,33.5295181 C45.079261,33.5295181 45.2015012,33.513253 45.2598845,33.5060241 C45.3182679,33.4987952 45.3967206,33.5259036 45.5025404,33.6108434 C45.6112467,33.6999327 45.6979847,33.8124295 45.7561432,33.939759 C45.7902565,34.0192092 45.7876996,34.1094443 45.749141,34.1868739 C45.7105824,34.2643036 45.6398554,34.3212302 45.5554503,34.3427711 C45.351445,34.4405183 45.1302599,34.4982068 44.9041109,34.5126506 C44.6140185,34.5524096 44.3567667,34.5921687 44.1360046,34.6301205 C43.9152425,34.6680723 43.639746,34.7240964 43.3076905,34.7945783 L43.0595612,34.8415663 C42.8704367,34.8645785 42.6859068,34.9157583 42.5122171,34.9933735 C42.3541309,35.0972132 42.224397,35.2381366 42.1345497,35.4036145 C42.0443039,35.4881515 41.9717665,35.5894806 41.9210855,35.7018072 C41.8335104,35.8626506 41.7477598,36.0289157 41.6601848,36.2006024 L41.4339492,36.5060241 C41.2515012,36.7481928 41.1402079,36.9054217 41.0964203,36.9795181 C41.0526328,37.0536145 41.0435104,37.1078313 41.0672286,37.1385542 C41.0909469,37.1692771 41.1548037,37.1584337 41.2387298,37.1728916 C41.3226559,37.1873494 41.3901617,37.2018072 41.4448961,37.2090361 C41.5373375,37.1633493 41.637576,37.1351557 41.7404619,37.1259036 C41.8321863,37.1173622 41.9230854,37.1016506 42.0123095,37.0789157 L42.2732102,37.010241 C42.7621709,36.8837349 43.1197691,36.7951807 43.3496536,36.7391566 C43.5795381,36.6831325 43.7473903,36.6506024 43.8586836,36.6343373 C43.8984941,36.6028297 43.9482245,36.5861964 43.9991686,36.5873494 C44.0975699,36.5924711 44.1896972,36.6367955 44.2545958,36.710241 C44.336094,36.7914983 44.3984033,36.8896334 44.4370439,36.9975904 C44.4596797,37.0663984 44.4755653,37.1372079 44.4844804,37.2090361 C44.4793669,37.3489738 44.3834528,37.4695598 44.2472979,37.5072289 C43.9389234,37.6170745 43.6231133,37.7052449 43.3022171,37.7710843 C42.6162125,37.9361446 42.1862433,38.0415663 42.0123095,38.0873494 C41.6450912,38.2088532 41.2637494,38.2835502 40.8774827,38.3096386 C40.6731409,38.3096386 40.5746189,38.2427711 40.5819169,38.1108434 C40.5107621,38.0710843 40.4286605,38.1415663 40.3337875,38.3222892 C40.2269542,38.5344568 40.1455167,38.7582637 40.0911316,38.9891566 C40.0295381,39.215009 39.9958429,39.447431 39.9907852,39.6813253 C39.9884937,39.768149 40.0001957,39.8547791 40.0254503,39.9379518 C40.0922376,40.1192657 40.2016896,40.2822011 40.3447344,40.413253 C40.5160609,40.5562752 40.7183283,40.6583077 40.9358661,40.7114458 C40.9924249,40.7114458 41.0599307,40.7277108 41.1438568,40.7349398 C41.2277829,40.7421687 41.3263048,40.7457831 41.4339492,40.7457831 C41.5959118,40.7447616 41.7562271,40.7134922 41.9064896,40.6536145 C42.5219477,40.5524096 42.9555658,40.4114458 43.2073441,40.2307229 C43.2512143,40.2132168 43.2900621,40.1852874 43.3204619,40.1493976 C43.3435621,40.1160079 43.3801948,40.0942361 43.4208083,40.089759 L43.408037,40.113253 C43.408037,40.113253 43.4317552,40.1042169 43.4791917,40.0608434 L43.632448,39.9271084 C43.8322786,39.7471847 44.0921972,39.6467749 44.3622402,39.6451807 C44.4450751,39.6434015 44.527475,39.6575164 44.6048961,39.686747 C44.6724018,39.7138554 44.7088915,39.7391566 44.7180139,39.7626506 C44.7654503,39.839759 44.7417321,39.9644578 44.6468591,40.136747 C44.5281673,40.3390223 44.3786181,40.5219052 44.2035104,40.6789157 C43.9999941,40.8667674 43.7760331,41.0316346 43.5357506,41.1704819 C43.1275552,41.3802735 42.6914356,41.5317762 42.2403695,41.6204819 C41.7866006,41.7159077 41.3248268,41.7691509 40.8610624,41.7795181 L40.5819169,41.7560241 Z" id="Shape"></path>
                    <path d="M48.8376905,41.0240964 L48.8376905,40.2144578 C48.8371546,40.0691801 48.8487491,39.9241074 48.8723557,39.7807229 C48.888776,39.6090361 48.8960739,39.4879518 48.8960739,39.4192771 L48.8960739,39.2385542 C48.8723557,39.0813253 48.8212702,39.0036145 48.7428176,39.0036145 C48.6005081,39.0036145 48.3383911,39.1385542 47.9564665,39.4084337 C47.5371687,39.7066929 47.1362816,40.0295602 46.7559584,40.3753012 C46.6415083,40.493059 46.5348582,40.6180181 46.4366744,40.7493976 C46.3852411,40.8182661 46.3237522,40.8791735 46.2542263,40.9301205 C46.1972436,40.95643 46.1345316,40.9682326 46.0717783,40.9644578 C45.9216629,40.9255899 45.7884334,40.839302 45.6922864,40.7186747 C45.5750434,40.6037388 45.4792973,40.4691261 45.4094919,40.3210843 C45.4080566,40.1064492 45.4483186,39.8935445 45.5280831,39.6939759 C45.6065358,39.4951807 45.725127,39.2421687 45.8820323,38.9385542 C45.9555182,38.698065 46.0463683,38.4631217 46.1538799,38.2355422 C46.2724711,37.9626506 46.3563972,37.753012 46.4074827,37.6084337 C46.4601542,37.4625625 46.49447,37.3108156 46.5096536,37.1566265 C46.5096536,37.1566265 46.5096536,37.1457831 46.4968822,37.1457831 C46.4973266,37.1143524 46.5104696,37.0844094 46.5333718,37.0626506 C46.554716,37.0403769 46.5844725,37.0279319 46.6154734,37.0283133 C46.6318938,37.0048193 46.6775058,36.9939759 46.7577829,36.9939759 C46.9479098,36.9895261 47.134313,37.0466314 47.2887067,37.1566265 C47.4438236,37.2771695 47.5285573,37.4660175 47.5149423,37.6608434 C47.5153773,37.7754757 47.4930605,37.8890748 47.449261,37.9951807 C47.4054734,38.1 47.3251963,38.273494 47.2066051,38.5156627 L47.077067,38.7740964 C47.0533487,38.8210843 47.0168591,38.889759 46.9694226,38.9783133 C46.9367496,39.0306333 46.9133048,39.0880801 46.9000924,39.1481928 C47.0953118,39.0162651 47.3288453,38.8409639 47.5970439,38.6222892 C47.9911316,38.3090361 48.3146728,38.0680723 48.5676674,37.8993976 C48.7247858,37.7682811 48.9132449,37.6792983 49.1150115,37.6409639 C49.2713409,37.6604142 49.4201241,37.7188673 49.5474134,37.8108434 C49.686122,37.8778401 49.79982,37.9866668 49.8721709,38.1216867 C49.8705692,38.2038805 49.8644787,38.2859281 49.8539261,38.3674699 C49.8429792,38.4777108 49.8320323,38.5753012 49.8247344,38.660241 L49.8375058,39.0216867 C49.8461191,39.115409 49.8497731,39.2095137 49.8484527,39.3036145 C49.8557024,39.4802109 49.8397567,39.6569919 49.8010162,39.8295181 C49.8111738,39.8399602 49.8192242,39.8522283 49.8247344,39.8656627 C49.830804,39.8763646 49.8351151,39.8879554 49.8375058,39.9 L49.8247344,39.923494 C49.849521,40.0542925 49.8931459,40.1808863 49.9542725,40.2993976 C50.0009573,40.3896385 50.0406034,40.4832853 50.0728637,40.5795181 C50.0576875,40.6944731 49.995728,40.798286 49.9013626,40.8668675 C49.8132449,40.9572239 49.7003489,41.0200489 49.5766051,41.0475904 L48.8376905,41.0240964 Z" id="Shape"></path>
                    <path d="M51.0489607,40.8885542 C50.9376674,40.8108434 50.882933,40.7638554 50.882933,40.7475904 C50.876349,40.6994618 50.8582046,40.6536002 50.8300231,40.6138554 C50.7935335,40.5560241 50.7606928,40.5018072 50.7296767,40.4548193 C50.6658199,40.3933735 50.7096074,40.1909639 50.8592148,39.8457831 C51.0088222,39.5006024 51.209515,39.0957831 51.4631178,38.6277108 C51.5321402,38.5520827 51.593267,38.4697364 51.6455658,38.3819277 C51.6857692,38.3095024 51.7354605,38.2426585 51.7933487,38.1831325 C51.7942442,38.150203 51.8072156,38.1187235 51.8298383,38.0945783 C51.8497197,38.0696994 51.8799082,38.0550801 51.91194,38.0548193 L52.0068129,37.8740964 C52.1391265,37.6878351 52.2941654,37.51848 52.4684065,37.3698795 C52.6653219,37.1673104 52.8830012,36.9856073 53.1179215,36.8277108 C53.2600906,36.7288929 53.4295544,36.6758841 53.6032333,36.6759036 C53.7793371,36.6715311 53.9512998,36.7291638 54.088545,36.8385542 L54.4078291,37.1078313 C54.6450115,37.303012 54.7727252,37.4168675 54.8092148,37.4475904 L55.2470901,37.8343373 L55.0463972,38.4198795 C54.9787766,38.6123168 54.9430413,38.8143257 54.9405774,39.0180723 C54.9397422,39.3132101 55.0259859,39.6021582 55.1887067,39.8493976 C55.2219033,39.9290066 55.2768764,39.9978555 55.3474365,40.0481928 C55.4273424,40.1002093 55.5186996,40.1324398 55.6138106,40.1421687 C55.7871363,40.1746988 55.8747113,40.2596386 55.8747113,40.4006024 C55.8835667,40.5360785 55.8504679,40.6710048 55.7798383,40.7873494 C55.7265016,40.8662407 55.6471901,40.9243635 55.5554273,40.9518072 C55.4295381,40.9662651 55.341963,40.9753012 55.2945266,40.9753012 C55.0727215,40.9759344 54.855439,40.9131857 54.6687298,40.7945783 C54.4504948,40.6449355 54.2781491,40.4385754 54.1706467,40.1981928 C54.1220275,40.1156579 54.0805254,40.0292066 54.046582,39.939759 C54.0094939,39.8570632 53.9801783,39.7711578 53.9590069,39.6831325 C53.876132,39.7914284 53.784614,39.8929593 53.6853349,39.986747 C52.8728329,40.7987952 52.2148037,41.2048193 51.7112471,41.2048193 C51.5479355,41.2083811 51.3872491,41.1637137 51.2496536,41.076506 C51.196121,41.0011892 51.1278765,40.9372773 51.0489607,40.8885542 Z M52.6344342,39.6831325 C52.6727483,39.6506024 52.7165358,39.6144578 52.7639723,39.5710843 L52.9172286,39.4355422 C53.1385989,39.2572289 53.3101001,39.1072289 53.4317321,38.9855422 C53.564632,38.8487114 53.6866291,38.7018864 53.7966282,38.5463855 L54.0575289,38.123494 C54.0075847,37.9968138 53.9353057,37.8799356 53.8440647,37.7783133 C53.796344,37.7278098 53.731246,37.6968582 53.6616166,37.6915663 C53.5047113,37.6915663 53.3076674,37.8289157 53.070485,38.1072289 C52.7523546,38.5049746 52.4679825,38.9281038 52.2202771,39.3722892 C52.1331509,39.5105167 52.0615695,39.6577802 52.0068129,39.8114458 C51.9520785,39.963253 51.9155889,40.0626506 51.9009931,40.1096386 C52.0274904,40.1168675 52.2719707,39.9746988 52.6344342,39.6831325 Z" id="Shape"></path>
                    <path d="M56.7413395,41.0114458 C56.5349887,40.9300186 56.3447597,40.8131673 56.1793995,40.6662651 C56.1472453,40.6301485 56.1263343,40.5855835 56.1191917,40.5379518 C56.1196361,40.5065211 56.1327791,40.476578 56.1556813,40.4548193 C56.1810803,40.4307573 56.2154775,40.418308 56.2505543,40.4204819 C56.2979908,40.4204819 56.3527252,40.3807229 56.4147575,40.303012 C56.4878782,40.2000604 56.529092,40.0782161 56.5333487,39.9524096 C56.5416225,39.8581032 56.5618509,39.7652039 56.5935566,39.6759036 C56.61719,39.6179474 56.6331352,39.5571998 56.6409931,39.4951807 C56.6544009,39.4313204 56.6641471,39.3667592 56.6701848,39.3018072 C56.6784965,39.2075676 56.7006225,39.1150298 56.7358661,39.0271084 C56.7814781,38.8228916 56.8599307,38.5355422 56.9657506,38.1650602 C57.0715704,37.7945783 57.16097,37.5144578 57.2321247,37.3283133 C57.2763093,37.1030804 57.3570229,36.8864209 57.4711316,36.686747 C57.620739,36.2891566 57.8640031,35.7228916 58.2009238,34.9879518 C58.3869418,34.5579432 58.5983386,34.1391474 58.8340185,33.7337349 C58.9026299,33.6856602 58.9854112,33.6615056 59.0693764,33.6650602 C59.2226245,33.6571308 59.3724109,33.7120343 59.4835335,33.8168675 C59.5072517,33.8403614 59.5419169,33.876506 59.5838799,33.9271084 C59.6229545,33.9722735 59.6571946,34.0213311 59.6860508,34.073494 C59.7077124,34.1135882 59.719585,34.1581536 59.7207159,34.2036145 C59.7161675,34.2716721 59.6870212,34.3358294 59.6386143,34.3843373 L59.3193303,34.8885542 C59.2288644,35.1280039 59.1259477,35.3626551 59.0109931,35.5915663 C58.8051007,36.0072379 58.6223783,36.4337821 58.463649,36.8692771 C58.4089145,36.9939759 58.3487067,37.1385542 58.2812009,37.303012 C58.2544581,37.4012061 58.2145739,37.4954152 58.1626097,37.5831325 C58.1365691,37.7061067 58.0929503,37.8247721 58.0330716,37.9355422 C57.966157,38.0769116 57.91831,38.226387 57.8907621,38.3801205 L58.3158661,37.9698795 C58.571962,37.6855669 58.8575446,37.4287317 59.1678984,37.2036145 C59.3579236,37.0551772 59.5887475,36.966996 59.8301848,36.9506024 C60.0262981,36.9579097 60.216212,37.0206157 60.3775289,37.1313253 C60.5462782,37.2261749 60.6823192,37.3691156 60.7679677,37.5415663 C60.8353327,37.7143358 60.8675743,37.8985865 60.8628406,38.0837349 C60.8613722,38.3184345 60.8251035,38.5516472 60.7551963,38.7759036 C60.698202,38.9994644 60.5991667,39.210377 60.4632794,39.3975904 C60.3003591,39.6744723 60.0876463,39.919474 59.8356582,40.1204819 C59.6240185,40.3156627 59.485358,40.436747 59.4215012,40.4819277 C59.3446877,40.5393662 59.2642466,40.5918829 59.1806697,40.6391566 C59.096451,40.6863825 59.0070861,40.7239731 58.9142956,40.7512048 C58.7274058,40.8669539 58.5209783,40.9483768 58.3049192,40.9915663 C58.0476674,41.0493976 57.7356813,41.1018072 57.3653118,41.1487952 C57.1480871,41.166533 56.9305353,41.1186453 56.7413395,41.0114458 Z M58.0184758,40.2216867 C58.1496944,40.1907412 58.2736124,40.1348916 58.3833718,40.0572289 C58.820056,39.8554119 59.2025866,39.5545099 59.4999538,39.1789157 C59.7201178,38.9090018 59.8479094,38.5767208 59.8648499,38.2301205 C59.8648499,38.0421687 59.8101155,37.9481928 59.7006467,37.9481928 C59.5181986,37.9481928 59.2116859,38.1759036 58.7537413,38.6277108 C58.5192259,38.845129 58.2980678,39.0762658 58.091455,39.3198795 L57.9090069,39.5186747 C57.8761663,39.5656627 57.8287298,39.6271084 57.7666975,39.6993976 C57.7173187,39.7503724 57.6810269,39.8123528 57.6608776,39.8801205 C57.6354354,39.9759389 57.6195471,40.0739992 57.6134411,40.1728916 C57.6134411,40.2289157 57.628037,40.2560241 57.6608776,40.2560241 C57.7761305,40.2569333 57.8911412,40.2454198 58.0038799,40.2216867 L58.0184758,40.2216867 Z" id="Shape"></path>
                    <path d="M61.3025404,41.463253 C61.2360964,41.3247045 61.2059771,41.1718025 61.2149654,41.0186747 C61.2140761,40.7036307 61.2458674,40.3893298 61.3098383,40.0807229 L61.3207852,39.986747 C61.3207852,39.939759 61.3408545,39.8638554 61.3572748,39.7590361 C61.3736952,39.6542169 61.384642,39.623494 61.39194,39.6704819 L61.4630947,39.3542169 C61.5178291,39.1355422 61.570739,38.9331325 61.6218245,38.7451807 C61.6729099,38.5572289 61.714873,38.4216867 61.7458891,38.3349398 L61.8772517,37.9246988 C62.1132179,37.1680723 62.33398,36.6566265 62.5395381,36.3903614 C62.5475772,36.3596085 62.5592108,36.3298895 62.5742032,36.3018072 C62.5901257,36.2745877 62.6023926,36.2454256 62.6106928,36.2150602 C62.6049865,36.1126763 62.6297262,36.0108833 62.6818476,35.9222892 C62.7530023,35.8048193 62.8113857,35.7 62.8642956,35.6060241 L62.9117321,35.4759036 L63.241963,34.8090361 C63.2748289,34.714653 63.3249214,34.6270542 63.389746,34.5506024 C63.4494884,34.4711241 63.5294429,34.408763 63.621455,34.3698795 L63.6086836,34.3572289 C63.6639183,34.2824416 63.7400181,34.2252783 63.8276212,34.1927711 C63.9147912,34.150525 64.0098171,34.1265317 64.1067667,34.1222892 C64.1988972,34.1191229 64.2884002,34.153021 64.3548961,34.2162651 C64.4196598,34.2866634 64.4537545,34.3795372 64.4497691,34.4746988 L64.4497691,34.5921687 C64.4510801,34.6469507 64.4449435,34.7016584 64.4315242,34.7548193 C64.4131648,34.8053046 64.3873406,34.8528104 64.3548961,34.8957831 L64.365843,34.8957831 C64.365843,34.9048193 64.365843,34.9301205 64.3475982,34.9716867 L64.2946882,35.0945783 C64.270617,35.1796555 64.2303657,35.2593969 64.176097,35.3295181 C64.1213626,35.4006024 63.9389145,35.7307229 63.6287529,36.3198795 C63.3185912,36.9090361 63.1215473,37.3168675 63.0376212,37.5433735 L62.9901848,37.7240964 L62.9664665,37.7927711 C62.8807159,37.973494 62.8332794,38.0819277 62.824157,38.0981928 L62.641709,38.8210843 L62.5942725,39.0668675 L62.4866282,39.3361446 L62.4172979,39.5584337 C62.3977565,39.6079891 62.3836869,39.6594938 62.3753349,39.7120482 C62.3713836,39.7534832 62.3569513,39.793263 62.3333718,39.8277108 L62.3224249,39.8873494 C62.3133025,39.9180723 62.2859353,40.0084337 62.2384988,40.1566265 C62.1673441,40.3753012 62.1162587,40.5560241 62.0852425,40.6987952 C62.0530089,40.8511657 62.033482,41.0059042 62.0268591,41.1614458 L62.0140878,41.2084337 C62.0031774,41.3486955 61.9518893,41.4829162 61.8663048,41.5951807 C61.7966413,41.6802088 61.6809473,41.7133635 61.5762125,41.6783133 C61.4606045,41.6438851 61.3626826,41.5669349 61.3025404,41.463253 Z" id="Shape"></path>
                    <path d="M63.9462125,41.0240964 C63.8007417,40.8085393 63.7134332,40.5596673 63.6926097,40.3012048 C63.7236259,40.0120482 63.7473441,39.8006024 63.76194,39.6686747 C63.849515,39.2855422 63.9571594,38.8337349 64.0885219,38.3150602 C64.2198845,37.7963855 64.2946882,37.5090361 64.3184065,37.453012 C64.3549123,37.3872804 64.4251273,37.3469408 64.5008545,37.3481928 C64.6050096,37.353921 64.7054802,37.3883464 64.7909469,37.4475904 C64.9003428,37.5178609 64.9915768,37.6125651 65.057321,37.7240964 C65.1194413,37.8091729 65.1520851,37.9118845 65.1503695,38.0168675 C65.1105717,38.3677983 65.0316374,38.7132801 64.9150115,39.046988 C64.8037182,39.4373494 64.7325635,39.7156627 64.7015473,39.8783133 C64.6692583,40.0522762 64.6576242,40.2293833 64.6668822,40.4060241 C64.6489754,40.6485603 64.6173009,40.8899058 64.5720092,41.1289157 C64.5391686,41.2626506 64.4935566,41.3240964 64.4296998,41.3096386 C64.23039,41.300804 64.0488276,41.1935753 63.9462125,41.0240964 Z M65.4532333,36.489759 C65.3970608,36.4791461 65.3444114,36.4549329 65.2999769,36.4192771 C65.1775679,36.3857867 65.068202,36.3165047 64.9861663,36.2204819 C64.8566282,36.0957831 64.7909469,36.0126506 64.7909469,35.9746988 C64.7854422,35.8393152 64.7933864,35.7037234 64.8146651,35.5698795 C64.8351679,35.4053856 64.8813297,35.2450421 64.9515012,35.0945783 C64.9915069,34.9770824 65.094188,34.891395 65.2178753,34.8722892 C65.2936191,34.8855426 65.3685431,34.9030406 65.4422864,34.9246988 C65.5371594,34.9536145 65.6429792,34.989759 65.7615704,35.036747 C65.8933265,35.2703592 65.9700435,35.5304605 65.9859815,35.7975904 C65.9980814,36.0940668 65.8093838,36.3622468 65.524388,36.4536145 C65.5055616,36.472568 65.4800656,36.4835766 65.4532333,36.4843373 L65.4532333,36.489759 Z" id="Shape"></path>
                    <path d="M69.2153118,41.0240964 L69.2153118,40.2144578 C69.2147758,40.0691801 69.2263704,39.9241074 69.2499769,39.7807229 C69.2663972,39.6090361 69.2736952,39.4879518 69.2736952,39.4192771 L69.2736952,39.2385542 C69.2499769,39.0813253 69.1988915,39.0036145 69.1204388,39.0036145 C68.9781293,39.0036145 68.7172286,39.1391566 68.3340878,39.4084337 C67.91479,39.7066929 67.5139029,40.0295602 67.1335797,40.3753012 C67.0191296,40.493059 66.9124794,40.6180181 66.8142956,40.7493976 C66.762801,40.8182138 66.7013207,40.8791128 66.6318476,40.9301205 C66.5747048,40.955935 66.5121185,40.967714 66.4493995,40.9644578 C66.2996721,40.9258474 66.1669475,40.8394712 66.0717321,40.7186747 C65.9534462,40.6042168 65.8570229,40.469521 65.7871132,40.3210843 C65.7865673,40.106529 65.8267982,39.893789 65.9057044,39.6939759 C65.984157,39.4951807 66.1027483,39.2421687 66.2596536,38.9385542 C66.3331394,38.698065 66.4239896,38.4631217 66.5315012,38.2355422 C66.6500924,37.9626506 66.735843,37.753012 66.7869284,37.6084337 C66.8381432,37.4622489 66.8718234,37.3106049 66.8872748,37.1566265 C66.8872748,37.1566265 66.8872748,37.1457831 66.8745035,37.1457831 C66.8749479,37.1143524 66.8880909,37.0844094 66.9109931,37.0626506 C66.9323373,37.0403769 66.9620937,37.0279319 66.9930947,37.0283133 C67.009515,37.0048193 67.0569515,36.9939759 67.1354042,36.9939759 C67.3260955,36.989527 67.5130773,37.0466135 67.6681524,37.1566265 C67.8228473,37.277355 67.9069343,37.4662853 67.8925635,37.6608434 C67.8929986,37.7754757 67.8706818,37.8890748 67.8268822,37.9951807 C67.7830947,38.1 67.7028176,38.273494 67.5842263,38.5156627 L67.4546882,38.7740964 C67.43097,38.8210843 67.3963048,38.889759 67.3488684,38.9783133 C67.31604,39.0307598 67.2920102,39.0881302 67.2777136,39.1481928 C67.4747575,39.0168675 67.7070747,38.8415663 67.9746651,38.6222892 C68.3687529,38.3090361 68.6922941,38.0680723 68.9452887,37.8993976 C69.1025838,37.768553 69.2909681,37.6796056 69.4926328,37.6409639 C69.6490426,37.6601031 69.797902,37.7185861 69.9250346,37.8108434 C70.0643382,37.8769958 70.1782728,37.9860489 70.2497921,38.1216867 C70.2497921,38.1759036 70.2497921,38.2590361 70.2333718,38.3674699 C70.2169515,38.4759036 70.2114781,38.5753012 70.2023557,38.660241 L70.215127,39.0216867 C70.2237404,39.115409 70.2273944,39.2095137 70.2260739,39.3036145 C70.2342701,39.4802324 70.2183133,39.657137 70.1786374,39.8295181 C70.188795,39.8399602 70.1968454,39.8522283 70.2023557,39.8656627 C70.2092498,39.8759693 70.2136227,39.8877264 70.215127,39.9 L70.2023557,39.923494 C70.2289109,40.0540677 70.2730955,40.1805049 70.3337182,40.2993976 C70.3794208,40.3900879 70.4190371,40.4836644 70.4523095,40.5795181 C70.4363279,40.6941965 70.3745409,40.7977204 70.2808083,40.8668675 C70.1918058,40.9570259 70.0783953,41.0197846 69.9542263,41.0475904 L69.2153118,41.0240964 Z" id="Shape"></path>
                    <path d="M71.6637644,43.4259036 C71.4460414,43.3143814 71.2531013,43.1607514 71.096351,42.9740964 C70.9654644,42.8413272 70.8854531,42.667478 70.8701155,42.4825301 C70.860043,42.3673249 70.8938899,42.2525599 70.9649885,42.1608434 C71.0259111,42.0954259 71.112349,42.0592018 71.2021709,42.0614458 C71.2844724,42.065582 71.3632065,42.096017 71.426582,42.1481928 C71.5242992,42.2247162 71.6152451,42.3093607 71.6984296,42.4012048 C71.7832163,42.4870115 71.8740617,42.566731 71.9702771,42.639759 C72.0337653,42.6931847 72.1133049,42.7243185 72.1965127,42.7283133 C72.4628868,42.7283133 72.6690531,42.560241 72.8113626,42.2240964 C72.9924039,41.7589962 73.1381588,41.2811637 73.2474134,40.7945783 L73.4134411,40.0915663 L73.4371594,40.010241 C73.4371594,40.010241 73.4371594,40.0012048 73.4262125,40.010241 C73.4191521,40.0153636 73.4095546,40.0153636 73.4024942,40.010241 C73.1699925,40.1498658 72.9187844,40.2563346 72.6562818,40.326506 C72.3556172,40.4320926 72.0408248,40.4929941 71.7221478,40.5072289 C71.5587219,40.4997375 71.4100056,40.4114872 71.3262356,40.2722892 C71.2046338,40.0927378 71.1445104,39.879227 71.1547344,39.663253 L71.1547344,39.5783133 C71.1711547,39.5475904 71.2605543,39.3126506 71.426582,38.8753012 C71.5926097,38.4379518 71.7148499,38.2283133 71.7914781,38.2427711 C71.8151963,38.2427711 71.8535104,38.1975904 71.9045958,38.1090361 C71.9420406,38.0544547 71.9680936,37.9930101 71.981224,37.9283133 C72.0166119,37.8751314 72.0625461,37.8296316 72.1162356,37.7945783 L72.311455,37.6355422 L72.6197921,37.4006024 C72.8515594,37.1827026 73.1052727,36.988918 73.3769515,36.8222892 C73.5585381,36.7058951 73.7643801,36.6317512 73.97903,36.6054217 L74.0976212,36.6162651 L74.2344573,36.6162651 C74.3594092,36.6360057 74.4817813,36.6693399 74.5993533,36.7156627 C74.8239898,36.8328469 75.009161,37.0124983 75.1321016,37.2325301 C75.2907696,37.4448495 75.3924638,37.6935721 75.4276674,37.9554217 C75.4131551,38.1341798 75.3732305,38.3100123 75.3090762,38.4777108 C75.2470439,38.6457831 75.1831871,38.7289157 75.1266282,38.7289157 C75.0362236,38.7217096 74.9467221,38.7510441 74.8784988,38.810241 C74.8083054,38.8889149 74.7554829,38.9812495 74.723418,39.0813253 C74.6715299,39.1950184 74.6105182,39.3044053 74.54097,39.4084337 L74.3585219,40.3120482 L74.1943187,41.0620482 C74.1148908,41.3802915 74.0161903,41.6935088 73.8987529,42 C73.8575884,42.2838474 73.750137,42.5542674 73.5849423,42.789759 C73.4225529,43.0208965 73.2169323,43.2190515 72.9792148,43.373494 C72.7938293,43.5073714 72.5747739,43.588037 72.3461201,43.6066265 C72.1070354,43.6035282 71.8725058,43.5414128 71.6637644,43.4259036 Z M72.9938106,39.3831325 C73.2058866,39.3197636 73.3989033,39.2055452 73.5557506,39.0506024 C73.5958891,39.0036145 73.6725173,38.8987952 73.7856351,38.739759 C73.8875342,38.5943666 74.0185797,38.4713273 74.1706005,38.3783133 C74.2265019,38.3469861 74.2735559,38.3022414 74.3074365,38.2481928 C74.3468513,38.1958231 74.3691354,38.1327561 74.3712933,38.0674699 L74.3712933,38.0439759 C74.3528887,37.9870474 74.3290634,37.9319805 74.3001386,37.8795181 C74.2567162,37.7959436 74.1986464,37.7206773 74.1286374,37.6572289 C74.061122,37.59089 73.9701284,37.5532805 73.8750346,37.5524096 C73.6686719,37.6592795 73.483298,37.8018919 73.3276905,37.973494 C73.0414222,38.2373616 72.7726638,38.519274 72.5230947,38.8174699 C72.2749654,39.1138554 72.1581986,39.3216867 72.1581986,39.4373494 C72.1581986,39.5240964 72.212933,39.5674699 72.3224018,39.5674699 C72.5551351,39.5441643 72.7821736,39.4818302 72.9938106,39.3831325 Z" id="Shape"></path>
                    <path d="M78.3450115,41.4271084 L78.3450115,41.053012 C78.3456487,40.9733636 78.3579397,40.8942273 78.3815012,40.8180723 C78.4435335,40.5379518 78.5639492,40.1349398 78.7299769,39.6126506 C78.852831,39.2076363 79.0052735,38.8120134 79.186097,38.4289157 C79.2404287,38.336549 79.2838918,38.2383174 79.3156351,38.1361446 C79.3466513,38.0349398 79.3667206,37.9680723 79.3740185,37.9373494 C79.414157,37.7963855 79.4378753,37.7150602 79.4451732,37.6915663 L79.4342263,37.5740964 C79.4342636,37.5413222 79.4424071,37.5090562 79.4579446,37.4801205 C79.4787887,37.4406146 79.506593,37.4051167 79.5400462,37.3753012 C79.6938677,37.2163654 79.8147386,37.0290985 79.8958199,36.8240964 L80.344642,35.5463855 L80.4869515,35.1487952 C80.4869515,35.1180723 80.5106697,35.0620482 80.534388,34.9843373 C80.5530306,34.9312217 80.5646817,34.8759467 80.5690531,34.8198795 C80.5690531,34.7891566 80.5690531,34.7728916 80.5453349,34.7728916 C80.4207637,34.7959169 80.2943847,34.8080119 80.1676674,34.8090361 C80.0727945,34.8253012 80.0016397,34.8343373 79.9542032,34.8379518 C79.9183705,34.8401384 79.8828864,34.8461985 79.8483834,34.8560241 L79.7644573,34.8560241 C79.6148499,34.8560241 79.5400462,34.8018072 79.5400462,34.6915663 C79.5637178,34.5510335 79.6138494,34.4161612 79.6878291,34.2939759 C79.7407445,34.185509 79.8447371,34.1102851 79.9651501,34.0933735 L80.4267436,33.9885542 C80.5241384,33.9703084 80.6232237,33.9624323 80.7223095,33.9650602 C80.8375691,33.9658409 80.9524661,33.9779484 81.0653118,34.0012048 C81.1601848,33.9379518 81.2112702,33.8837349 81.2203926,33.836747 C81.2480812,33.7086315 81.3236919,33.5956423 81.4320323,33.5204819 C81.5309847,33.4464482 81.6510498,33.4053288 81.7750346,33.403012 C81.860639,33.3999527 81.9446013,33.4268225 82.0122171,33.4789157 C82.0778786,33.5360689 82.1129462,33.6202371 82.1070901,33.7066265 C82.1088937,33.7426264 82.1045764,33.7786706 82.0943187,33.813253 L82.0943187,33.8548193 C82.0943187,33.8728916 82.118037,33.8837349 82.1654734,33.8837349 C82.4011511,33.8563862 82.6346346,33.8129087 82.8642494,33.7536145 L83.1890069,33.7246988 C83.3422633,33.7138554 83.4699769,33.7066265 83.5739723,33.7066265 C83.6893971,33.7040783 83.8046744,33.7162259 83.9169746,33.7427711 C83.9767184,33.7282382 84.0379134,33.7203581 84.0994226,33.7192771 C84.1471865,33.7203166 84.1949183,33.7160735 84.2417321,33.7066265 C84.3260371,33.7157596 84.4113113,33.7039589 84.4898614,33.6722892 C84.5610162,33.6885542 84.6431178,33.7012048 84.7325173,33.7138554 C84.7988461,33.7201054 84.8642991,33.7334358 84.9277367,33.7536145 C84.9659103,33.7691307 85.0020532,33.7891551 85.0353811,33.813253 C85.0548138,33.8363616 85.0668791,33.864667 85.0700462,33.8945783 C85.0700462,33.9180723 85.0700462,33.9343373 85.0572748,33.9415663 L85.0353811,33.9307229 C85.0497079,33.933485 85.0633463,33.9390116 85.0755196,33.946988 C85.099308,33.9626813 85.1213278,33.9808576 85.1412009,34.0012048 C85.2032333,34.0319277 85.2360739,34.1096386 85.2360739,34.2343373 C85.2403804,34.3300421 85.2292951,34.4258163 85.2032333,34.5180723 C85.199081,34.5566888 85.1801459,34.5922607 85.1503233,34.6174699 C85.0888525,34.6438672 85.0219917,34.6556274 84.9551039,34.6518072 C84.8511085,34.6518072 84.7179215,34.6518072 84.5518938,34.6518072 C84.3051921,34.6174671 84.0565957,34.5981537 83.8075058,34.5939759 C83.3797174,34.6063929 82.9531519,34.6456281 82.5303695,34.7114458 C82.3961951,34.7177386 82.2629728,34.7371093 82.1326328,34.7692771 L81.9027483,34.8271084 C81.8626097,34.8271084 81.8042263,34.886747 81.7203002,35.0078313 C81.6309719,35.1467718 81.5592764,35.2960907 81.506836,35.4524096 C81.4593995,35.5222892 81.3134411,35.8620482 81.0689607,36.4716867 L80.7861663,37.1277108 C80.9656642,37.1675987 81.149761,37.1834029 81.3335104,37.1746988 C81.6874596,37.1746988 82.2037875,37.1433735 82.8824942,37.0807229 C83.0871621,37.0273022 83.2985688,37.0035612 83.5101155,37.010241 C83.5918649,37.0256445 83.6603761,37.0806138 83.6925635,37.1566265 C83.7438401,37.2477362 83.7702513,37.3505136 83.7691917,37.4548193 C83.7712201,37.5280972 83.7549243,37.6007349 83.7217552,37.6662651 C83.6942389,37.7253309 83.6490044,37.7745553 83.5922171,37.8072289 C83.4267975,37.9084337 83.0837952,37.986747 82.5632102,38.0421687 C82.2165589,38.0728916 81.738545,38.0873494 81.1328176,38.0873494 C80.9391483,38.0936935 80.7452686,38.0864465 80.5526328,38.0656627 C80.5262978,38.0839442 80.5039581,38.107302 80.4869515,38.1343373 C80.4593132,38.1761445 80.4453021,38.2253502 80.4468129,38.2753012 C80.2217494,38.7211554 80.0219627,39.1790953 79.8483834,39.646988 C79.5929561,40.3024096 79.4652425,40.7006024 79.4652425,40.8415663 C79.4054186,40.9970793 79.361413,41.1581184 79.3338799,41.3222892 C79.3338799,41.353012 79.3156351,41.3963855 79.2992148,41.4506024 C79.2915413,41.4886247 79.2753287,41.5244493 79.2517783,41.5554217 C79.2366394,41.6701898 79.1304663,41.7510892 79.0145958,41.7361446 C78.916485,41.7407675 78.8214356,41.7016486 78.7555196,41.6295181 L78.3450115,41.4271084 Z" id="Shape"></path>
                    <path d="M84.3238337,40.8777108 C84.2326097,40.8379518 84.1724018,40.8108434 84.1413857,40.7945783 C84.1365196,40.7526282 84.1267227,40.7113848 84.112194,40.6716867 C84.0978513,40.6361621 84.0874515,40.5991979 84.0811778,40.5614458 C84.0078749,40.5286102 83.9475817,40.4726992 83.9096767,40.4024096 C83.86778,40.3340432 83.8571685,40.2512679 83.880485,40.1746988 C84.1011037,39.753542 84.300223,39.3216724 84.4770901,38.8807229 C84.765358,38.2048193 84.9253041,37.8162651 84.9569284,37.7150602 C84.9428336,37.5738046 85.0061843,37.4358888 85.1229561,37.3536145 C85.1697638,37.3167118 85.2273636,37.2957915 85.2871594,37.2939759 C85.4221709,37.2939759 85.54806,37.3843373 85.6666513,37.563253 C85.7893765,37.7515408 85.8528776,37.9716932 85.8490993,38.1957831 C85.7931065,38.4728642 85.7036729,38.7422688 85.5827252,38.9981928 C85.4063587,39.4415663 85.2074904,39.8849398 84.9861201,40.3283133 C84.9056852,40.4985366 84.8130062,40.662815 84.7087991,40.8198795 C84.6634363,40.8907906 84.5855194,40.9347968 84.5008083,40.9373494 C84.4393341,40.9256061 84.3797838,40.9055383 84.3238337,40.8777108 Z M85.7615242,36.3253012 C85.6244339,36.2374719 85.5060452,36.1238865 85.4130485,35.9909639 C85.3203149,35.8715566 85.268535,35.7259175 85.2652656,35.5753012 C85.3234317,35.4182358 85.4072582,35.2717054 85.5133949,35.1415663 C85.5841741,35.0624223 85.6398157,34.9711755 85.6775982,34.8722892 C85.7500153,34.8752947 85.8217493,34.887441 85.8910624,34.9084337 C85.9683819,34.9281729 86.0435489,34.955413 86.1154734,34.989759 C86.1910655,35.1420072 86.2867789,35.283612 86.4000924,35.4108434 C86.4777174,35.5026199 86.5467256,35.6012215 86.6062587,35.7054217 C86.6493746,35.7802907 86.6720147,35.865011 86.67194,35.9512048 C86.6839033,36.0913622 86.6339957,36.2297823 86.5351039,36.3307229 C86.4122118,36.4237169 86.2585314,36.467579 86.1045266,36.4536145 C85.9802142,36.4439615 85.8612442,36.3994562 85.7615242,36.3253012 Z" id="Shape"></path>
                    <path d="M89.782679,40.8777108 C89.66239,40.812828 89.5635622,40.7149348 89.49806,40.5957831 L89.4396767,40.4783133 C89.34792,40.2310702 89.2997817,39.9700354 89.2973672,39.7066265 L89.2973672,39.189759 C89.2973672,39.1048193 89.2973672,39.0614458 89.273649,39.0614458 C89.2116166,39.0614458 88.9379446,39.3144578 88.4581062,39.8222892 C88.1842288,40.1143116 87.8897457,40.3866845 87.5768822,40.6373494 C87.3336182,40.8289157 87.162117,40.9246988 87.0623788,40.9246988 C86.9861682,40.9089741 86.9129111,40.8815337 86.8452656,40.8433735 C86.7648069,40.8088477 86.6893416,40.763875 86.6208545,40.7096386 C86.5652307,40.6551574 86.5276825,40.5851838 86.5132102,40.5090361 C86.4936428,40.36168 86.4857127,40.2130361 86.4894919,40.0644578 C86.4961866,39.7750505 86.5485118,39.4884584 86.6445727,39.2150602 C86.7941863,38.7841876 86.9677778,38.361854 87.1645497,37.95 C87.2336872,37.8207532 87.2946214,37.6873618 87.3469977,37.5506024 C87.4673174,37.2432034 87.6387568,36.957933 87.8542032,36.7066265 C87.8983634,36.7050527 87.9425387,36.7093069 87.9855658,36.7192771 C88.117063,36.7357758 88.2424086,36.7841983 88.3504619,36.860241 C88.479472,36.933523 88.5719773,37.0565698 88.6058891,37.2 C88.6055634,37.334734 88.585278,37.4686913 88.5456813,37.5975904 C88.4835442,37.7753906 88.3916453,37.9415662 88.2738337,38.0891566 C88.1305171,38.3295873 88.015435,38.5854673 87.9308314,38.8518072 C87.8925173,38.913253 87.8377829,39.0090361 87.7721016,39.1391566 C87.7309938,39.2077218 87.6973562,39.2804189 87.6717552,39.3560241 C87.6717552,39.3560241 87.7027714,39.3451807 87.7410855,39.3018072 L87.8596767,39.1789157 L88.1789607,38.8626506 C88.802933,38.2457831 89.2839877,37.9295181 89.6221247,37.9138554 C89.8113024,37.9230599 89.983849,38.0237174 90.0837182,38.1831325 C90.2195176,38.3709254 90.2899595,38.5973796 90.2844111,38.8283133 C90.2844111,38.8753012 90.2844111,39.0090361 90.2606928,39.2259036 L90.2606928,39.8945783 C90.402354,39.8589914 90.541349,39.8137017 90.6766744,39.7590361 C90.8750991,39.6898913 91.0818026,39.6467542 91.2915242,39.6307229 C91.255084,39.8194117 91.180622,39.9988893 91.0725866,40.1584337 C90.9487456,40.3699096 90.7958531,40.5633235 90.618291,40.7331325 C90.4973093,40.8716233 90.3277702,40.9594668 90.1439261,40.9789157 C90.0168781,40.9755244 89.8927,40.9407354 89.782679,40.8777108 Z" id="Shape"></path>
                    <path d="M93.9808083,41.8608434 L93.9333718,41.8608434 C93.8624612,41.8505898 93.7942735,41.8266427 93.732679,41.7903614 C93.6003375,41.7599939 93.4794643,41.6929199 93.3842032,41.596988 C93.2906886,41.5111216 93.2371986,41.3907624 93.2364203,41.2644578 C93.2442782,41.2024388 93.2602234,41.1416911 93.2838568,41.0837349 C93.3556197,40.9512048 93.5380677,40.2987952 93.8312009,39.126506 L94.0318938,38.3548193 C94.0318938,38.3457831 94.0483141,38.2246988 94.0793303,37.9933735 C94.1030485,37.8759036 94.1395381,37.6608434 94.1851501,37.3481928 C94.2823703,37.163088 94.3483169,36.963456 94.3803695,36.7572289 C94.4168591,36.5421687 94.4387529,36.4192771 94.4460508,36.3957831 C94.4773687,36.2574293 94.5169691,36.1210438 94.564642,35.9873494 L94.6704619,35.5771084 L94.7416166,35.3078313 C94.7815855,35.1855596 94.80909,35.0596299 94.8237182,34.9319277 L94.8237182,34.7512048 L94.3876674,34.7512048 L94.2052194,34.7638554 C94.1065316,34.7654311 94.0078363,34.7612068 93.9096536,34.7512048 L93.4954965,34.7403614 C93.2427744,34.744701 92.991121,34.7068212 92.7511085,34.6283133 C92.619755,34.5639703 92.5400016,34.4280346 92.5485912,34.2831325 C92.5175751,34.1277108 92.5960277,34.0048193 92.7857737,33.9216867 C92.9755196,33.8385542 93.360485,33.7951807 93.9443187,33.8096386 C94.055612,33.8096386 94.2052194,33.7987952 94.3949654,33.7987952 C94.5847113,33.7987952 94.7379677,33.7987952 94.8547344,33.8096386 L95.0554273,33.7951807 C95.0810253,33.7680291 95.1008765,33.7360759 95.1138106,33.7012048 C95.1302309,33.6614458 95.1411778,33.6307229 95.1484758,33.6072289 C95.1484758,33.4753012 95.1922633,33.3921687 95.2798383,33.3614458 C95.3367161,33.2546967 95.4545517,33.1941744 95.5754042,33.2096386 C95.6649129,33.2106099 95.7532028,33.230318 95.8344804,33.2674699 C95.9163316,33.3022109 95.9865552,33.3592373 96.0369977,33.4319277 C96.0560926,33.5007332 96.0640973,33.5720942 96.0607159,33.6433735 C96.0536162,33.7238979 96.0792257,33.8039026 96.1318707,33.8656627 C96.2270206,33.8195809 96.3327058,33.7990176 96.4383834,33.8060241 C96.6208314,33.8060241 96.7339492,33.7915663 96.8032794,33.7825301 C96.9528868,33.7825301 97.1061432,33.7825301 97.264873,33.7662651 C97.4236028,33.75 97.5294226,33.7481928 97.584157,33.7481928 C97.6876627,33.7018898 97.8010454,33.6814133 97.914388,33.6885542 C98.0132571,33.691257 98.1119148,33.6990992 98.2099538,33.7120482 C98.3331668,33.7008934 98.4559882,33.7371326 98.5529561,33.813253 C98.6236059,33.8808887 98.68495,33.9574514 98.7354042,34.0409639 C98.7311582,34.1066462 98.7527337,34.1714084 98.795612,34.2216867 C98.8216228,34.2366018 98.8391535,34.2626491 98.8430485,34.2921687 C98.8333908,34.3295338 98.8173469,34.3649855 98.795612,34.396988 C98.7390531,34.4674699 98.5985681,34.5018072 98.3686836,34.5018072 L98.1205543,34.5144578 C97.9472286,34.5307229 97.8213395,34.5379518 97.7428868,34.5379518 C97.3444994,34.6133326 96.9405455,34.6562473 96.5350808,34.6662651 C96.2121478,34.6662651 96.0515935,34.696988 96.0515935,34.760241 C96.004157,34.760241 95.912933,35.013253 95.779746,35.5210843 C95.7323095,35.7090361 95.6830485,35.8789157 95.631963,36.0307229 C95.5992245,36.1377731 95.5571011,36.2417834 95.5060739,36.3415663 C95.5290243,36.3718558 95.5417884,36.4085217 95.5425635,36.4463855 C95.5301011,36.53519 95.5061876,36.6220436 95.4714088,36.7048193 C95.4476905,36.7915663 95.4203233,36.8746988 95.3893072,36.9560241 C95.3620092,37.017174 95.3459453,37.082658 95.3418707,37.1493976 C95.3327483,37.1819277 95.312679,37.2578313 95.2761894,37.3789157 C95.2383114,37.5113691 95.2084584,37.6459463 95.1867898,37.7819277 C95.1478676,38.1578313 95.0967821,38.376506 95.0335335,38.4379518 C95.0335335,38.4542169 95.0079908,38.4849398 94.9806236,38.5319277 C94.9530137,38.5784917 94.9385222,38.6315408 94.9386605,38.6855422 C94.9272708,38.8802095 94.8998119,39.0736265 94.8565589,39.2638554 C94.8408924,39.4208984 94.7970237,39.5739053 94.7270208,39.7156627 C94.750739,39.7156627 94.7616859,39.7391566 94.7616859,39.7861446 C94.7533753,39.8716995 94.7292562,39.9550121 94.6905312,40.0319277 C94.6890186,40.1072224 94.6773605,40.1819796 94.6558661,40.2542169 C94.6371907,40.3129862 94.624957,40.3735763 94.6193764,40.4349398 C94.5403156,40.653012 94.4302386,40.9307229 94.2891455,41.2680723 C94.2179455,41.4558339 94.1306604,41.6372181 94.0282448,41.810241 L93.9808083,41.8608434 Z" id="Shape"></path>
                    <path d="M96.7138799,40.9481928 C96.4256521,40.669475 96.2744244,40.2801328 96.2997229,39.8819277 C96.3005182,39.682061 96.3120898,39.482379 96.334388,39.2837349 C96.3735122,39.0161734 96.451559,38.7556367 96.566097,38.510241 C96.7125132,38.1673868 96.9032449,37.8448116 97.1335104,37.5506024 C97.3534023,37.2583252 97.6421631,37.0237927 97.9745958,36.8674699 C98.0965143,36.807745 98.2235012,36.758761 98.3540878,36.7210843 C98.4698399,36.6927326 98.5888149,36.6793682 98.708037,36.6813253 C98.98174,36.6709646 99.2532536,36.7333651 99.494388,36.8620482 C99.6699458,36.9544943 99.8173481,37.0917673 99.9213164,37.2596386 C99.9939453,37.3765795 100.036542,37.5093665 100.045381,37.6463855 L100.045381,37.7403614 C100.01917,37.9199605 99.963066,38.0940092 99.8793533,38.2554217 C99.7552622,38.5232861 99.5763294,38.7626844 99.353903,38.9584337 C99.0968257,39.1832344 98.7680496,39.311198 98.4252425,39.3198795 C98.2415198,39.3198372 98.0582274,39.3022865 97.8778984,39.2674699 C97.7667208,39.2424282 97.6539501,39.2249178 97.5403695,39.2150602 C97.4449165,39.2028262 97.3530041,39.2553797 97.3159584,39.3433735 C97.2778358,39.4846961 97.2618374,39.6309776 97.2685219,39.7771084 C97.2709711,39.9464653 97.3358626,40.1090884 97.45097,40.2343373 C97.5740442,40.3274025 97.7270633,40.3730027 97.8815473,40.3626506 C97.9966372,40.358005 98.1095884,40.3303416 98.2136028,40.2813253 C98.3717626,40.1972506 98.5219742,40.0992661 98.6624249,39.9885542 C98.7322781,39.9273994 98.8073643,39.8723732 98.886836,39.8240964 C98.9491501,39.7914721 99.0188946,39.77529 99.0893533,39.7771084 C99.187148,39.7911392 99.2758739,39.8415449 99.3374827,39.9180723 C99.4190655,39.9870899 99.4733562,40.0824807 99.490739,40.1873494 C99.4371703,40.3455092 99.3479481,40.4895104 99.2298383,40.6084337 C99.0560345,40.8106294 98.8479684,40.981257 98.6149885,41.1126506 C98.3688095,41.2593002 98.0867107,41.3361907 97.7994457,41.3349398 C97.4008455,41.3491006 97.0120622,41.2105915 96.7138799,40.9481928 Z M98.52194,38.4524096 C98.6569073,38.3702041 98.7797097,38.2698501 98.886836,38.1542169 C98.9982431,38.0650845 99.0859362,37.9502999 99.1422633,37.8198795 C99.1424403,37.7431194 99.1050357,37.6710385 99.0419169,37.626506 C98.9588729,37.570482 98.8628188,37.5362792 98.7627714,37.5271084 L98.6332333,37.5271084 C98.4623364,37.5622591 98.3071058,37.650214 98.1898845,37.7783133 C97.9955354,37.9474732 97.8260397,38.1427401 97.6863279,38.3584337 C97.6954503,38.3981928 97.7538337,38.4307229 97.868776,38.4578313 C97.9846017,38.4859577 98.1034708,38.4999172 98.2227252,38.4993976 C98.3247522,38.5060181 98.4269831,38.489964 98.52194,38.4524096 Z" id="Shape"></path>
                    <path d="M101.503141,41.3855422 C101.188604,41.3889603 100.883646,41.278414 100.645635,41.0746988 C100.407065,40.8816486 100.272299,40.5899695 100.280739,40.2849398 L100.267968,40.1042169 C100.281331,39.6677649 100.365734,39.2363115 100.517921,38.826506 C100.652109,38.400186 100.860162,38.0002453 101.132771,37.6445783 C101.329815,37.4168675 101.497667,37.2343373 101.639977,37.0933735 C101.750149,36.9748894 101.882826,36.8790863 102.030416,36.8114458 C102.157534,36.7662563 102.288096,36.7312049 102.420855,36.7066265 C102.537831,36.6806942 102.656878,36.6649714 102.776628,36.6596386 C102.93016,36.6978467 103.078875,36.7530117 103.219977,36.8240964 C103.356813,36.8945783 103.426143,36.9722892 103.426143,37.0572289 L103.486351,37.1168675 C103.541085,37.1168675 103.606767,37.2036145 103.68157,37.3753012 C103.750413,37.5222063 103.788283,37.6814766 103.792864,37.8433735 C103.796079,37.9054945 103.784191,37.9674723 103.758199,38.0240964 C103.723962,38.1782889 103.662174,38.3251774 103.575751,38.4578313 C103.486351,38.5987952 103.407898,38.6692771 103.345866,38.6692771 C103.283834,38.6692771 103.216328,38.6927711 103.216328,38.739759 C103.216328,38.786747 103.168891,38.7975904 103.074018,38.7975904 C102.988667,38.7961682 102.904402,38.77837 102.825889,38.7451807 C102.755984,38.7258796 102.698846,38.6759406 102.670808,38.6096386 C102.694311,38.4521066 102.725977,38.2958762 102.765681,38.1415663 C102.787166,38.0453389 102.799384,37.9473091 102.802171,37.8487952 C102.802171,37.7078313 102.754734,37.6373494 102.659861,37.6373494 C102.597469,37.646235 102.536274,37.6619953 102.477413,37.6843373 C102.291844,37.7778028 102.125909,37.9053699 101.988453,38.060241 C101.847285,38.2379425 101.73692,38.4376523 101.661871,38.6512048 C101.568822,38.9006024 101.457529,39.2638554 101.33164,39.7355422 C101.308859,39.8198856 101.296604,39.9066778 101.29515,39.9939759 C101.29283,40.071472 101.305207,40.1487114 101.33164,40.2216867 C101.355358,40.2795181 101.379076,40.3138554 101.402794,40.3210843 C101.471446,40.340942 101.543048,40.3488905 101.614434,40.3445783 C101.779216,40.352773 101.943156,40.3165475 102.088799,40.239759 C102.232091,40.1601518 102.370396,40.0720394 102.502956,39.9759036 L102.751085,39.7951807 C102.786164,39.7531076 102.817884,39.7083943 102.845958,39.6614458 C102.881218,39.598645 102.934575,39.5476801 102.999215,39.5150602 C103.039307,39.4489601 103.105444,39.4024466 103.181663,39.386747 C103.251685,39.3709063 103.323302,39.3630241 103.395127,39.363253 L103.537436,39.363253 C103.653908,39.4041964 103.756354,39.4768593 103.833002,39.5728916 C103.927875,39.6831325 103.942471,39.7536145 103.880439,39.7843373 C103.861183,39.7813223 103.842121,39.7907631 103.833002,39.8078313 C103.826108,39.818138 103.821735,39.8298951 103.820231,39.8421687 C103.836651,39.8819277 103.772794,39.9849398 103.637783,40.153012 C103.493037,40.3250987 103.335051,40.4858204 103.165242,40.6337349 C102.982794,40.7855422 102.873326,40.8614458 102.811293,40.8614458 C102.78283,40.8613997 102.754528,40.8656659 102.727367,40.8740964 C102.703649,40.8740964 102.692702,40.9012048 102.692702,40.9319277 C102.692702,40.9626506 102.572286,41.0349398 102.327806,41.1487952 C102.141553,41.242922 101.945062,41.3156821 101.742148,41.3656627 C101.663214,41.37916 101.583242,41.3858118 101.503141,41.3855422 Z" id="Shape"></path>
                    <path d="M107.94903,41.2518072 C107.733526,41.2542672 107.529929,41.1541035 107.401686,40.9825301 C107.246061,40.7512169 107.171683,40.4755701 107.190046,40.1981928 C107.195655,39.8187929 107.263435,39.4428138 107.390739,39.0849398 C107.414457,39.0307229 107.445473,38.9638554 107.485612,38.8861446 C107.525751,38.8084337 107.533048,38.7686747 107.50933,38.7686747 C107.485612,38.7686747 107.398037,38.8192771 107.295866,38.9204819 C106.932384,39.2380045 106.608935,39.5978373 106.33254,39.9921687 C106.075289,40.3644578 105.947575,40.65 105.947575,40.8542169 C105.950908,40.9331751 105.912998,41.0082782 105.847229,41.053012 C105.780003,41.0998948 105.699553,41.1245608 105.617344,41.123494 C105.563495,41.1237374 105.510353,41.1113516 105.462263,41.0873494 C105.286174,40.983401 105.139839,40.8365832 105.037159,40.6608434 C104.922194,40.4556916 104.876785,40.2193895 104.907621,39.986747 C104.930882,39.5086417 104.988191,39.0327598 105.079122,38.5626506 C105.161832,38.1542169 105.32117,37.5704819 105.557136,36.8114458 C105.564434,36.7885542 105.639238,36.589759 105.781547,36.2150602 C106.026028,35.526506 106.164688,35.1524096 106.195704,35.0891566 C106.302759,34.932757 106.384621,34.7608252 106.43836,34.5795181 C106.511151,34.4124412 106.564998,34.2378789 106.598915,34.0590361 C106.598617,33.9950057 106.61699,33.9322519 106.651824,33.8783133 C106.68649,33.8186747 106.708383,33.7825301 106.715681,33.7662651 C106.803256,33.5710843 106.87806,33.473494 106.941917,33.473494 C107.062635,33.4921855 107.177452,33.5379255 107.277621,33.6072289 C107.432702,33.6975904 107.520277,33.7879518 107.543995,33.860241 C107.603052,33.9680769 107.635559,34.0882059 107.638868,34.2108434 C107.633635,34.3540387 107.60146,34.4950078 107.543995,34.626506 C107.44985,34.8531891 107.343263,35.0746039 107.224711,35.289759 C106.975181,35.7935353 106.761797,36.3141014 106.586143,36.8475904 C106.49127,37.096988 106.378152,37.453012 106.243141,37.9138554 C106.153917,38.1815131 106.086798,38.45591 106.042448,38.7343373 C106.039395,38.7566974 106.047058,38.779187 106.063165,38.7951418 C106.079272,38.8110967 106.101976,38.8186867 106.12455,38.8156627 C106.188406,38.8156627 106.255912,38.7686747 106.325242,38.6746988 C106.365554,38.6057171 106.418087,38.5444974 106.480323,38.4939759 C106.54499,38.4376737 106.605932,38.3773081 106.662771,38.313253 C106.840018,38.0991192 107.030107,37.8957399 107.232009,37.7042169 C107.443649,37.5018072 107.596905,37.3987952 107.715497,37.3987952 C108.000115,37.3987952 108.21358,37.5795181 108.355889,37.926506 C108.383808,37.9540565 108.407201,37.9857655 108.425219,38.0204819 C108.438188,38.0457364 108.454109,38.0693928 108.472656,38.0909639 C108.525124,38.1791727 108.546317,38.2822245 108.532864,38.3837349 C108.523026,38.7116792 108.461466,39.0360814 108.350416,39.3451807 C108.283099,39.5739026 108.239691,39.808872 108.220878,40.0463855 C108.220878,40.1493976 108.248245,40.2 108.302979,40.2 C108.326697,40.1837349 108.374134,40.1566265 108.445289,40.1168675 C108.516443,40.0771084 108.598545,40.0319277 108.693418,39.9777108 C108.816661,39.893633 108.958893,39.840878 109.107575,39.8240964 C109.16984,39.8183257 109.231592,39.8394296 109.277018,39.8820031 C109.322444,39.9245767 109.347132,39.9844851 109.344758,40.0463855 C109.334861,40.1331321 109.308228,40.2171865 109.266305,40.2939759 C109.234856,40.3515892 109.20919,40.4121201 109.189677,40.4746988 L109.189677,40.5343373 C109.189677,40.5650602 109.083857,40.6662651 108.870393,40.8379518 C108.735889,40.9626709 108.579437,41.0619022 108.408799,41.1307229 C108.266357,41.2039822 108.109394,41.2453197 107.94903,41.2518072 Z" id="Shape"></path>
                    <path d="M110.492356,39.2493976 C110.315828,39.2608792 110.148846,39.1689887 110.065427,39.0144578 C110.030274,38.9690179 110.01279,38.9125713 110.016166,38.8554217 C110.016166,38.7216867 110.236928,38.6331325 110.678453,38.5861446 C111.222905,38.4713297 111.778455,38.4161789 112.335081,38.4216867 C112.632212,38.3955125 112.928127,38.4835124 113.16157,38.6674699 C113.230104,38.7312089 113.26905,38.8201342 113.269215,38.913253 C113.269999,38.9981398 113.227449,39.0776768 113.156097,39.1246988 C113.075298,39.1801988 112.975307,39.2010505 112.878776,39.1825301 L112.050462,39.2421687 C112.010323,39.2421687 111.868014,39.2512048 111.636305,39.2710843 C111.404596,39.2909639 111.160115,39.3 110.906513,39.3 C110.766642,39.3046132 110.626902,39.2875397 110.492356,39.2493976 Z" id="Shape"></path>
                    <path d="M114.017252,40.8885542 C113.905958,40.8108434 113.851224,40.7638554 113.851224,40.7475904 C113.84464,40.6994618 113.826496,40.6536002 113.798314,40.6138554 C113.761824,40.5560241 113.728984,40.5018072 113.696143,40.4548193 C113.634111,40.3933735 113.677898,40.1909639 113.827506,39.8457831 C113.977113,39.5006024 114.177806,39.0957831 114.429584,38.6277108 C114.498695,38.5521539 114.559828,38.4697983 114.612032,38.3819277 C114.652236,38.3095024 114.701927,38.2426585 114.759815,38.1831325 C114.760043,38.1504074 114.772376,38.1189008 114.79448,38.0945783 C114.814759,38.0692019 114.845735,38.0545275 114.878406,38.0548193 L114.973279,37.8740964 C115.105593,37.6878351 115.260632,37.51848 115.434873,37.3698795 C115.631788,37.1673104 115.849468,36.9856073 116.084388,36.8277108 C116.226557,36.7288929 116.396021,36.6758841 116.5697,36.6759036 C116.745756,36.6718442 116.917613,36.7294415 117.055012,36.8385542 L117.374296,37.1078313 C117.609654,37.303012 117.739192,37.4168675 117.775681,37.4475904 L118.213557,37.8343373 L118.012864,38.4198795 C117.944715,38.6122392 117.908366,38.8142357 117.905219,39.0180723 C117.905226,39.3130901 117.9914,39.6018058 118.153349,39.8493976 C118.187214,39.9291323 118.242804,39.9979632 118.313903,40.0481928 C118.393679,40.1004673 118.485102,40.1327211 118.580277,40.1421687 C118.753603,40.1746988 118.839353,40.2596386 118.839353,40.4006024 C118.848757,40.5358908 118.816298,40.6708037 118.746305,40.7873494 C118.692624,40.8666832 118.612573,40.9248746 118.520069,40.9518072 C118.39418,40.9662651 118.30843,40.9753012 118.260993,40.9753012 C118.038611,40.9759751 117.820733,40.9132372 117.633372,40.7945783 C117.415745,40.6447571 117.244033,40.4384005 117.137113,40.1981928 C117.088494,40.1156579 117.046992,40.0292066 117.013048,39.939759 C116.976514,39.8566665 116.946622,39.7708607 116.923649,39.6831325 C116.841516,39.7914894 116.750599,39.8930307 116.651801,39.986747 C115.841732,40.7987952 115.184311,41.2048193 114.679538,41.2048193 C114.516198,41.2086014 114.355448,41.1639163 114.217945,41.076506 C114.164412,41.0011892 114.096168,40.9372773 114.017252,40.8885542 Z M115.600901,39.6831325 C115.641039,39.6506024 115.684827,39.6144578 115.732263,39.5710843 C115.7797,39.5277108 115.830785,39.4825301 115.88552,39.4355422 C116.10689,39.2572289 116.278391,39.1072289 116.400023,38.9855422 C116.532923,38.8487114 116.65492,38.7018864 116.764919,38.5463855 L117.02582,38.123494 C116.974447,37.9975218 116.902311,37.8808748 116.812356,37.7783133 C116.764425,37.7280943 116.699444,37.6971987 116.629908,37.6915663 C116.473002,37.6915663 116.275958,37.8289157 116.038776,38.1072289 C115.719941,38.5048547 115.434953,38.9279921 115.186744,39.3722892 C115.100924,39.5109608 115.029991,39.658148 114.975104,39.8114458 C114.918545,39.963253 114.88388,40.0626506 114.86746,40.1096386 C114.993957,40.1168675 115.238437,39.9746988 115.600901,39.6831325 Z" id="Shape"></path>
                    <path d="M119.622055,41.0349398 C119.494496,40.905748 119.394041,40.7528037 119.32649,40.5849398 C119.325451,40.565153 119.316993,40.5464629 119.302771,40.5325301 C119.292236,40.5178707 119.280651,40.5039795 119.268106,40.4909639 C119.23709,40.4674699 119.22067,40.3391566 119.22067,40.1042169 C119.22067,39.923494 119.22067,39.7210843 119.249861,39.5186747 C119.262429,39.3564107 119.286203,39.19519 119.321016,39.0361446 L119.53448,38.4144578 L119.700508,37.9463855 L120.019792,37.2668675 L119.545427,37.136747 C119.490864,37.1296976 119.441838,37.1001663 119.410416,37.0554217 C119.378967,37.0196065 119.360364,36.9744913 119.357506,36.9271084 C119.368609,36.8306628 119.403031,36.7382923 119.457852,36.6578313 C119.523533,36.5403614 119.578268,36.4771084 119.616582,36.4771084 C119.676665,36.4885597 119.737922,36.4928071 119.79903,36.489759 C119.977355,36.4938587 120.155683,36.4817599 120.331778,36.4536145 C120.411588,36.4214934 120.472111,36.3548816 120.495982,36.2728916 C120.530013,36.197782 120.569653,36.1252917 120.614573,36.0560241 C120.654711,35.9963855 120.693025,35.9331325 120.733164,35.8626506 L120.846282,35.6457831 C120.897367,35.5481928 120.961224,35.4361446 121.041501,35.3114458 C121.056097,35.2879518 121.092587,35.2319277 121.147321,35.1415663 C121.199708,35.0542236 121.267715,34.9770611 121.348014,34.9138554 C121.402478,34.8703853 121.464234,34.8367405 121.530462,34.8144578 C121.606347,34.7865535 121.6867,34.7724715 121.767644,34.7728916 C121.892851,34.7677461 122.015387,34.8097117 122.110647,34.8903614 C122.166551,34.9619816 122.202984,35.0466035 122.216467,35.1361446 C122.207448,35.2249663 122.1747,35.3098039 122.121594,35.3819277 C122.051758,35.5121371 121.97249,35.6371632 121.884411,35.7560241 C121.791363,35.896988 121.720208,36.0108434 121.672771,36.0957831 C121.610715,36.1607974 121.569454,36.2425383 121.55418,36.3307229 C121.55418,36.3849398 121.605266,36.4120482 121.707436,36.4120482 C121.891338,36.402483 122.07428,36.3795295 122.254781,36.3433735 C122.30951,36.333307 122.365169,36.329066 122.420808,36.3307229 C122.574009,36.3152033 122.724826,36.3769969 122.822194,36.4951807 C122.904585,36.6160376 122.94611,36.7596854 122.940785,36.9054217 C122.940785,37.0138554 122.902471,37.0861446 122.827667,37.1042169 C122.66235,37.1350232 122.493959,37.1465475 122.325935,37.1385542 C122.067628,37.1787202 121.806528,37.1986614 121.545058,37.1981928 L121.384503,37.1981928 C121.322983,37.2028054 121.261957,37.2124773 121.202055,37.2271084 C121.15046,37.2368246 121.102881,37.2613321 121.065219,37.2975904 C121.029132,37.3439717 120.999664,37.3950537 120.977644,37.4493976 C120.914165,37.5346168 120.858596,37.6253477 120.811617,37.7204819 C120.700323,37.9463855 120.629169,38.0819277 120.598152,38.1289157 C120.391758,38.728822 120.233748,39.3440059 120.125612,39.9686747 C120.116554,40.0284882 120.112283,40.0889174 120.112841,40.1493976 C120.10439,40.2347392 120.143551,40.3178624 120.215012,40.3662651 C120.339247,40.420958 120.475515,40.4433509 120.610924,40.4313253 C120.822285,40.4325269 121.032825,40.4051663 121.236721,40.35 C121.419253,40.2742508 121.597142,40.187958 121.769469,40.0915663 C121.840624,40.0518072 121.906305,40.0156627 121.964688,39.9795181 L122.088753,39.9036145 C122.119769,39.8421687 122.172679,39.8493976 122.249307,39.9271084 C122.323676,40.0049142 122.38194,40.0963953 122.420808,40.1963855 C122.422183,40.3281328 122.393494,40.4584857 122.336882,40.5777108 C122.236418,40.7348207 122.092726,40.8602249 121.922725,40.9391566 C121.681008,41.090375 121.417799,41.2048971 121.141848,41.2789157 C120.895709,41.3460824 120.641809,41.3813166 120.386513,41.3837349 C120.263999,41.3850559 120.141688,41.3735462 120.021617,41.3493976 C119.858706,41.288202 119.719061,41.1783005 119.622055,41.0349398 Z" id="Shape"></path>
                    <path d="M123.53739,39.2493976 C123.361183,39.2615575 123.194385,39.1693742 123.112286,39.0144578 C123.074276,38.9727744 123.052875,38.9188155 123.052079,38.8626506 C123.052079,38.7289157 123.272841,38.6403614 123.714365,38.5933735 C124.258817,38.4785587 124.814367,38.4234078 125.370993,38.4289157 C125.668639,38.403202 125.964954,38.4911266 126.199307,38.6746988 C126.26681,38.7389942 126.30501,38.8277198 126.305127,38.9204819 C126.305911,39.0053687 126.263361,39.0849057 126.192009,39.1319277 C126.11121,39.1874277 126.011219,39.2082794 125.914688,39.189759 L125.086374,39.2493976 C125.046236,39.2493976 124.903926,39.2584337 124.672217,39.2783133 C124.440508,39.2981928 124.196028,39.3072289 123.942425,39.3072289 C123.805224,39.3085624 123.668626,39.2890589 123.53739,39.2493976 Z" id="Shape"></path>
                    <path d="M128.468961,41.9439759 L128.481732,41.9078313 C128.481732,41.8301205 128.414226,41.786747 128.279215,41.7795181 C128.072152,41.6382486 127.892334,41.4613544 127.748291,41.2572289 C127.600106,41.0861703 127.477243,40.8950994 127.383395,40.689759 C127.36523,40.6490142 127.353537,40.6057315 127.34873,40.5614458 C127.34644,40.5254334 127.364777,40.4912025 127.396166,40.4728916 C127.434017,40.4504035 127.473683,40.4310602 127.514758,40.4150602 C127.549287,40.3994141 127.584607,40.3855403 127.620577,40.373494 C127.712843,40.2998419 127.822882,40.2512597 127.939861,40.2325301 C128.018314,40.2325301 128.08582,40.2831325 128.140554,40.3861446 C128.26705,40.5957259 128.452076,40.7645661 128.673303,40.8722892 C128.924807,41.0026019 129.205032,41.0690459 129.488845,41.0656627 C129.739466,41.070672 129.988278,41.0226125 130.218637,40.9246988 C130.397766,40.865447 130.520288,40.7014625 130.52515,40.5144578 C130.50992,40.3406915 130.44681,40.1744045 130.342702,40.0337349 C130.325609,39.9848729 130.296811,39.9408443 130.258776,39.9054217 C130.215458,39.8623222 130.168454,39.8230188 130.118291,39.7879518 C129.971645,39.6774896 129.833234,39.5566943 129.704134,39.426506 C129.56906,39.3773155 129.438445,39.3168576 129.313695,39.2457831 L129.065566,39.1283133 C128.826309,39.0069444 128.603735,38.8557134 128.403279,38.6783133 C128.199162,38.5174569 128.02662,38.3208186 127.894249,38.0981928 C127.705974,37.8948911 127.61147,37.6232243 127.633349,37.3481928 C127.631774,36.9885856 127.72149,36.6343565 127.894249,36.3180723 C128.083845,35.9685787 128.314079,35.6422631 128.580254,35.3457831 C128.812802,35.0355802 129.085808,34.757256 129.392148,34.5180723 L129.698661,34.2253012 C129.698661,34.1945783 129.71873,34.176506 129.73515,34.1728916 C129.746627,34.1710041 129.758339,34.1710041 129.769815,34.1728916 C129.793533,34.1584337 129.87746,34.1204819 130.017945,34.0626506 C130.18542,33.9860494 130.337966,33.8808275 130.468591,33.7518072 C130.87705,33.5450947 131.304758,33.37805 131.745727,33.253012 C132.051551,33.1656372 132.367199,33.116461 132.685335,33.1066265 C133.001768,33.122595 133.305044,33.2370665 133.551963,33.4337349 C133.792719,33.5982966 133.956972,33.8514575 134.008083,34.136747 C134.021781,34.1961024 134.029723,34.2566182 134.031801,34.3174699 C134.007448,34.669657 133.880718,35.0073372 133.666905,35.289759 C133.479904,35.599953 133.220185,35.8609358 132.909746,36.0506024 C132.80287,36.102448 132.685735,36.1302206 132.566744,36.1319277 C132.449222,36.1372894 132.333759,36.1000223 132.241986,36.0271084 C132.16161,35.9615437 132.119809,35.8604045 132.130693,35.7578313 C132.13528,35.6725768 132.161647,35.5898721 132.207321,35.5174699 C132.310027,35.3610843 132.42665,35.2141131 132.555797,35.0783133 C132.823387,34.6879518 132.957182,34.4066265 132.957182,34.2343373 C132.957182,34.1168675 132.887852,34.0536145 132.745543,34.0246988 C132.506805,34.0180953 132.268668,34.0517058 132.041293,34.1240964 C131.658152,34.2126506 131.468406,34.2777108 131.468406,34.3174699 C131.470012,34.3306752 131.470012,34.3440236 131.468406,34.3572289 C131.468406,34.3771084 131.451986,34.3825301 131.428268,34.3753012 C131.191228,34.4791114 130.96664,34.6088318 130.758684,34.7620482 C130.528419,34.8916779 130.312551,35.04493 130.114642,35.2192771 C130.099836,35.2686409 130.069067,35.3118189 130.027067,35.3421687 C129.97179,35.3872357 129.910368,35.4243488 129.844619,35.4524096 C129.695605,35.5455517 129.56512,35.6650016 129.459654,35.8048193 C129.297611,36.0300315 129.149554,36.2648027 129.016305,36.5078313 C128.920463,36.6415898 128.843147,36.7874661 128.78642,36.9415663 C128.731018,37.0753749 128.700722,37.218072 128.697021,37.3626506 C128.695421,37.4383295 128.707787,37.5136617 128.73351,37.5849398 C128.776793,37.7185992 128.866693,37.8326339 128.987113,37.9066265 C129.125774,38.0060241 129.390323,38.1704819 129.786236,38.4054217 C130.169623,38.6177096 130.535638,38.8594124 130.880924,39.1283133 C131.116221,39.2882022 131.317146,39.4927556 131.472055,39.7301205 C131.603802,39.9405545 131.667462,40.1858511 131.654503,40.4331325 C131.656165,40.651719 131.624173,40.8692788 131.55963,41.0783133 C131.487464,41.2278859 131.396092,41.3675964 131.287783,41.4939759 C131.17649,41.6222892 131.077968,41.6746988 130.992217,41.6746988 C130.921702,41.694588 130.854201,41.7237643 130.791524,41.7614458 C130.746767,41.7913934 130.699092,41.8168218 130.649215,41.8373494 C130.415498,41.9285531 130.169686,41.9857727 129.919423,42.0072289 C129.596992,42.0614762 129.270364,42.0874803 128.943326,42.0849398 L128.468961,41.9439759 Z" id="Shape"></path>
                    <path d="M133.803741,41.3855422 C133.489205,41.3889603 133.184247,41.278414 132.946236,41.0746988 C132.707665,40.8816486 132.572899,40.5899695 132.581339,40.2849398 L132.568568,40.1042169 C132.582101,39.6679467 132.665865,39.2366145 132.816697,38.826506 C132.951635,38.400491 133.159624,38.0006735 133.431547,37.6445783 C133.628591,37.4168675 133.796443,37.2343373 133.940577,37.0933735 C134.05075,36.9748894 134.183426,36.8790863 134.331016,36.8114458 C134.458061,36.7660228 134.588642,36.7309662 134.721455,36.7066265 C134.837819,36.6807165 134.956259,36.6649932 135.075404,36.6596386 C135.229617,36.6975398 135.37897,36.7527146 135.520577,36.8240964 C135.657413,36.8945783 135.726744,36.9722892 135.726744,37.0572289 L135.785127,37.1168675 C135.841686,37.1168675 135.905543,37.2036145 135.980346,37.3753012 C136.049673,37.5221241 136.088158,37.6813701 136.093464,37.8433735 C136.096109,37.9056414 136.083594,37.9676259 136.056975,38.0240964 C136.02363,38.1785663 135.961777,38.3256096 135.874527,38.4578313 C135.783303,38.5987952 135.706674,38.6692771 135.644642,38.6692771 C135.557067,38.6692771 135.513279,38.6927711 135.513279,38.739759 C135.513279,38.7777108 135.465843,38.7975904 135.37097,38.7975904 C135.28566,38.7958114 135.201463,38.7780275 135.122841,38.7451807 C135.053626,38.7253984 134.997239,38.6755288 134.969584,38.6096386 C134.992049,38.4519293 135.023727,38.295643 135.064457,38.1415663 C135.085472,38.0453041 135.09708,37.9472614 135.099122,37.8487952 C135.099122,37.7078313 135.051686,37.6373494 134.958637,37.6373494 C134.8963,37.646505 134.835134,37.6622578 134.776189,37.6843373 C134.589085,37.7778911 134.42137,37.9053997 134.281755,38.060241 C134.141233,38.2380694 134.031488,38.4377721 133.956998,38.6512048 C133.862125,38.9006024 133.752048,39.2620482 133.626767,39.7355422 C133.603986,39.8198856 133.591731,39.9066778 133.590277,39.9939759 C133.587957,40.071472 133.600334,40.1487114 133.626767,40.2216867 C133.650485,40.2795181 133.674203,40.3138554 133.696097,40.3210843 C133.765402,40.3407976 133.837578,40.3487412 133.909561,40.3445783 C134.073731,40.3524438 134.236997,40.3162281 134.382102,40.239759 C134.525902,40.1609915 134.664259,40.0728455 134.796259,39.9759036 L135.044388,39.7951807 C135.080107,39.7535949 135.111867,39.7088259 135.139261,39.6614458 C135.175005,39.5983807 135.229027,39.5473876 135.294342,39.5150602 C135.334434,39.4489601 135.400571,39.4024466 135.47679,39.386747 C135.546812,39.3709063 135.618429,39.3630241 135.690254,39.363253 L135.830739,39.363253 C135.947492,39.4036605 136.050078,39.4764225 136.126305,39.5728916 C136.221178,39.6831325 136.237598,39.7536145 136.173741,39.7843373 C136.154574,39.7818638 136.135808,39.791158 136.126305,39.8078313 C136.120576,39.8185215 136.116866,39.8301582 136.115358,39.8421687 C136.131778,39.8819277 136.067921,39.9849398 135.93291,40.153012 C135.787683,40.3246687 135.629731,40.4853555 135.46037,40.6337349 C135.287652,40.7855422 135.169061,40.8614458 135.104596,40.8614458 C135.076743,40.8615547 135.049065,40.8658194 135.022494,40.8740964 C134.998776,40.8740964 134.987829,40.9012048 134.987829,40.9319277 C134.987829,40.9626506 134.867413,41.0349398 134.622933,41.1487952 C134.43668,41.242922 134.240189,41.3156821 134.037275,41.3656627 C133.960142,41.3788495 133.882015,41.3855 133.803741,41.3855422 Z" id="Shape"></path>
                    <path d="M136.985635,40.8885542 C136.874342,40.8108434 136.819607,40.7638554 136.819607,40.7475904 C136.813023,40.6994618 136.794879,40.6536002 136.766697,40.6138554 C136.730208,40.5560241 136.697367,40.5018072 136.664527,40.4548193 C136.602494,40.3933735 136.646282,40.1909639 136.795889,39.8457831 C136.945497,39.5006024 137.146189,39.0957831 137.397968,38.6277108 C137.467078,38.5521539 137.528212,38.4697983 137.580416,38.3819277 C137.620619,38.3095024 137.67031,38.2426585 137.728199,38.1831325 C137.728426,38.1504074 137.74076,38.1189008 137.762864,38.0945783 C137.783142,38.0692019 137.814118,38.0545275 137.84679,38.0548193 L137.941663,37.8740964 C138.073669,37.6881453 138.228064,37.5188246 138.401432,37.3698795 C138.598884,37.1671737 138.817183,36.9854638 139.052771,36.8277108 C139.19494,36.7288929 139.364404,36.6758841 139.538083,36.6759036 C139.714139,36.6718442 139.885996,36.7294415 140.023395,36.8385542 L140.342679,37.1078313 C140.578037,37.303012 140.707575,37.4168675 140.744065,37.4475904 L141.18194,37.8343373 L140.981247,38.4198795 C140.913099,38.6122392 140.876749,38.8142357 140.873603,39.0180723 C140.873609,39.3130901 140.959783,39.6018058 141.121732,39.8493976 C141.155597,39.9291323 141.211188,39.9979632 141.282286,40.0481928 C141.362062,40.1004673 141.453485,40.1327211 141.548661,40.1421687 C141.721986,40.1746988 141.807737,40.2596386 141.807737,40.4006024 C141.81714,40.5358908 141.784681,40.6708037 141.714688,40.7873494 C141.661007,40.8666832 141.580957,40.9248746 141.488453,40.9518072 C141.362564,40.9662651 141.276813,40.9753012 141.229376,40.9753012 C141.006995,40.9759751 140.789116,40.9132372 140.601755,40.7945783 C140.384128,40.6447571 140.212417,40.4384005 140.105497,40.1981928 C140.056877,40.1156579 140.015375,40.0292066 139.981432,39.939759 C139.944036,39.8570014 139.914119,39.7711232 139.892032,39.6831325 C139.8099,39.7914894 139.718982,39.8930307 139.620185,39.986747 C138.810115,40.7987952 138.152694,41.2048193 137.647921,41.2048193 C137.484582,41.2086014 137.323832,41.1639163 137.186328,41.076506 C137.132795,41.0011892 137.064551,40.9372773 136.985635,40.8885542 Z M138.569284,39.6831325 C138.609423,39.6506024 138.65321,39.6144578 138.698822,39.5710843 C138.744434,39.5277108 138.797344,39.4825301 138.853903,39.4355422 C139.075273,39.2572289 139.246774,39.1072289 139.368406,38.9855422 C139.501306,38.8487114 139.623303,38.7018864 139.733303,38.5463855 L139.994203,38.123494 C139.94283,37.9975218 139.870694,37.8808748 139.780739,37.7783133 C139.732808,37.7280943 139.667828,37.6971987 139.598291,37.6915663 C139.441386,37.6915663 139.244342,37.8289157 139.007159,38.1072289 C138.688325,38.5048547 138.403337,38.9279921 138.155127,39.3722892 C138.069308,39.5109608 137.998375,39.658148 137.943487,39.8114458 C137.886928,39.963253 137.852263,40.0626506 137.835843,40.1096386 C137.961124,40.1168675 138.205604,39.9746988 138.569284,39.6831325 Z" id="Shape"></path>
                    <path d="M142.207298,40.8253012 C142.135108,40.7593487 142.09024,40.6691735 142.081409,40.5722892 C142.084803,40.4310892 142.09883,40.290337 142.123372,40.1512048 C142.148204,39.9934896 142.181703,39.8372334 142.223718,39.6831325 C142.247436,39.4879518 142.272979,39.3216867 142.300346,39.2078313 C142.331156,39.0807302 142.380967,38.9589029 142.448129,38.8463855 C142.48097,38.7307229 142.535704,38.5536145 142.614157,38.3204819 C142.796605,37.7783133 142.906074,37.3518072 142.979053,37.0554217 L143.143256,36.6 C143.190693,36.4662651 143.23448,36.3457831 143.274619,36.2385542 C143.258807,36.2855422 143.357329,36.0198795 143.570185,35.4415663 C143.632217,35.2608434 143.676005,35.1090361 143.699723,35.0078313 C143.759673,34.7296527 143.859188,34.4613129 143.995289,34.2108434 C144.041245,34.1475069 144.0827,34.0810816 144.119353,34.0120482 C144.140948,33.967081 144.166594,33.9241358 144.195982,33.8837349 C144.205104,33.853012 144.245242,33.8240964 144.320046,33.8006024 C144.395049,33.7774594 144.473199,33.7658783 144.551755,33.7662651 C144.616407,33.7581243 144.681742,33.7749506 144.734203,33.813253 C144.774342,33.796988 144.841848,33.8620482 144.942194,34.0066265 C145.017966,34.0942903 145.06505,34.2026952 145.077206,34.3174699 C145.077869,34.416758 145.049341,34.5140905 144.995104,34.5975904 C144.950713,34.6484676 144.914415,34.7057525 144.88746,34.7674699 C144.849145,34.8487952 144.812656,34.9174699 144.78164,34.973494 C144.750624,35.0295181 144.739677,35.1198795 144.705012,35.2481928 C144.670346,35.376506 144.635681,35.4849398 144.604665,35.5698795 C144.573649,35.6548193 144.528037,35.7506024 144.491547,35.8337349 C144.455058,35.9168675 144.427691,35.9873494 144.403972,36.0506024 C144.371132,36.1518072 144.316397,36.3036145 144.237945,36.5078313 C144.149408,36.709324 144.07444,36.9164036 144.013533,37.1277108 C143.997113,37.1746988 143.969746,37.2722892 143.929607,37.4204819 C143.855854,37.7169526 143.748757,38.0042917 143.610323,38.2771084 C143.539332,38.404081 143.493506,38.5433281 143.475312,38.6873494 C143.447945,38.8590361 143.4297,38.9638554 143.422402,39.0036145 C143.342983,39.2044169 143.281922,39.411876 143.239954,39.623494 C143.225358,39.6939759 143.196166,39.8313253 143.157852,40.0337349 C143.128812,40.2187116 143.081137,40.4003413 143.015543,40.5759036 C142.998016,40.6980656 142.951771,40.8144429 142.880531,40.9156627 C142.829499,41.0102478 142.733087,41.0723235 142.625104,41.0801205 C142.579829,41.0787211 142.535495,41.0669691 142.495566,41.0457831 C142.387722,40.9887491 142.290284,40.9142239 142.207298,40.8253012 Z" id="Shape"></path>
                    <path d="M144.133949,40.010241 C144.147592,39.5811486 144.241629,39.1583055 144.41127,38.763253 C144.586713,38.3161958 144.821721,37.8943853 145.110046,37.5090361 C145.322667,37.1973339 145.608877,36.9417454 145.943834,36.7644578 C146.104894,36.6840631 146.283513,36.6443316 146.463811,36.6487952 C146.788302,36.6415245 147.108876,36.7201306 147.392471,36.876506 C147.657629,37.0283133 147.7896,37.3150602 147.788383,37.736747 C147.77701,38.0192563 147.691489,38.2939498 147.540254,38.5337349 C147.380953,38.8110151 147.170537,39.0562223 146.919931,39.2566265 C146.719588,39.4381144 146.461342,39.5442728 146.190139,39.5566265 C145.857053,39.5639217 145.534276,39.4419981 145.29067,39.2168675 C145.165059,39.4516137 145.096348,39.712104 145.089977,39.9777108 C145.082957,40.1315111 145.107152,40.2851438 145.161132,40.4295181 C145.208568,40.5343373 145.318037,40.586747 145.491363,40.586747 C145.6293,40.5919753 145.766773,40.5679447 145.894573,40.5162651 C145.993863,40.4711139 146.08856,40.4166485 146.177367,40.3536145 C146.264942,40.2909639 146.332448,40.2439759 146.379885,40.2126506 L146.427321,40.1891566 L146.41455,40.1891566 C146.556859,40.1114458 146.660855,40.05 146.72836,40.0084337 C146.781806,39.9728065 146.839388,39.9436813 146.899861,39.9216867 C147.018322,39.9213919 147.133867,39.9580671 147.230092,40.026506 C147.323713,40.0800019 147.382468,40.1779145 147.385173,40.2849398 C147.351236,40.4287254 147.277283,40.5602067 147.171709,40.6644578 C147.056128,40.819362 146.906363,40.9460769 146.733834,41.0349398 L146.591524,41.1036145 L146.604296,41.1036145 C146.559549,41.1813037 146.480439,41.2335447 146.390831,41.2445783 L146.295958,41.2445783 C146.264942,41.3078313 146.160947,41.3692771 145.983972,41.4253012 C145.822569,41.4841661 145.652378,41.515928 145.480416,41.5192771 C144.582771,41.5289157 144.133949,41.0259036 144.133949,40.010241 Z M146.648083,38.4289157 C146.781533,38.2706914 146.857931,38.0729183 146.865196,37.8668675 C146.866773,37.7841478 146.844631,37.7026817 146.801339,37.6319277 C146.768519,37.5679147 146.702318,37.5274538 146.629838,37.5271084 C146.463771,37.5371683 146.305551,37.6006195 146.179192,37.7078313 C146.004337,37.8434973 145.856474,38.0101857 145.743141,38.1993976 L145.58806,38.4451807 C145.60988,38.4325527 145.63411,38.4245523 145.659215,38.4216867 C145.718552,38.4191915 145.774003,38.4508799 145.801524,38.503012 C145.829884,38.5547243 145.865513,38.602186 145.907344,38.6439759 C145.958102,38.6864487 146.023483,38.7078202 146.089792,38.7036145 C146.308276,38.7068822 146.514625,38.6043457 146.64261,38.4289157 L146.648083,38.4289157 Z" id="Shape"></path>
                </g>
            </g>
        </g>
    </g>
</svg>