<?xml version="1.0" encoding="UTF-8"?>
<svg width="230px" height="100px" viewBox="0 0 230 100" version="1.1" xmlns="http://www.w3.org/2000/svg" xmlns:xlink="http://www.w3.org/1999/xlink">
    <!-- Generator: Sketch 48.1 (47250) - http://www.bohemiancoding.com/sketch -->
    <title>medici-logo</title>
    <desc>Created with Sketch.</desc>
    <defs></defs>
    <g id="Page-1" stroke="none" stroke-width="1" fill="none" fill-rule="evenodd">
        <g id="medici-logo" fill-rule="nonzero">
            <rect id="Rectangle-5" fill="#D0021B" x="0" y="0" width="230" height="100"></rect>
            <g id="logo/white" transform="translate(40.000000, 35.000000)" fill="#FFFFFF">
                <polygon id="Shape" points="61.3226097 28.5433735 55.9367436 28.5433735 55.9367436 20.2825301 53.0175751 28.5433735 47.6189376 28.5433735 44.6359122 20.0259036 44.6359122 28.5433735 39.2536952 28.5433735 39.2536952 4.90120482 44.7362587 4.90120482 50.3191686 20.8518072 55.9367436 4.90120482 61.3226097 4.90120482"></polygon>
                <polygon id="Shape" points="72.2275289 10.2379518 72.2275289 14.0512048 79.0291917 14.0512048 79.0291917 19.389759 72.2275289 19.389759 72.2275289 23.2066265 81.4685219 23.2066265 81.4685219 28.5433735 66.8398383 28.5433735 66.8398383 4.90120482 81.4685219 4.90120482 81.4685219 10.2379518"></polygon>
                <path d="M103.668799,16.7204819 C103.6669,21.4096376 100.867465,25.6545212 96.5332564,27.5403614 C95.2005629,28.1225371 93.7729425,28.4622936 92.3187067,28.5433735 L86.7941801,28.5433735 L86.7941801,4.90113402 L91.6053349,4.90120482 C93.1813847,4.89587378 94.7436861,5.19163467 96.2066744,5.77228916 C99.176038,6.95467059 101.542219,9.26787822 102.774804,12.1933735 C103.374769,13.6252216 103.680551,15.1611767 103.674273,16.7114458" id="Shape"></path>
                <polygon id="Shape" points="108.640508 28.5433735 114.030023 28.5433735 114.030023 4.90120482 108.640508 4.90120482"></polygon>
                <path d="M128.443418,23.2337349 C128.96057,23.2389778 129.471952,23.1257934 129.937667,22.903012 C130.398046,22.681878 130.811193,22.3751015 131.154596,21.9993976 C131.894723,21.1928771 132.301174,20.1399029 132.293072,19.05 L137.682587,19.05 C137.686399,20.2855832 137.458744,21.5111429 137.011178,22.6644578 C136.557639,23.8080183 135.881279,24.8519599 135.02067,25.736747 C134.175661,26.6292473 133.156463,27.3424571 132.024873,27.8331325 C130.896454,28.3255453 129.676481,28.5785601 128.443418,28.5759036 L128.412402,28.5759036 C127.186315,28.5828801 125.972611,28.3328265 124.851016,27.8421687 C123.71776,27.344121 122.693372,26.6320494 121.83515,25.7457831 C121.010258,24.8689167 120.352557,23.851281 119.893903,22.7421687 C119.432262,21.6281019 119.184753,20.4384255 119.164111,19.2343373 L119.164111,14.3385542 C119.179932,13.1088695 119.418464,11.8919826 119.86836,10.7457831 C120.316867,9.6248765 120.981143,8.60105605 121.824203,7.7313253 C122.685355,6.84532521 123.709659,6.13067568 124.841894,5.62590361 C125.964897,5.14281839 127.177141,4.89663046 128.401455,4.90301205 L128.443418,4.90301205 C129.674638,4.8982796 130.893692,5.14433728 132.024873,5.62590361 C133.151332,6.12492744 134.166527,6.84057697 135.011547,7.7313253 C135.871782,8.61640547 136.548092,9.66026922 137.002055,10.8036145 C137.449866,11.956861 137.677531,13.1824665 137.673464,14.4180723 L132.283949,14.4180723 C132.287958,13.8619582 132.185819,13.3101041 131.98291,12.7915663 C131.788475,12.2999909 131.504629,11.8479273 131.145473,11.4578313 C130.801673,11.0825591 130.388617,10.7758494 129.928545,10.5542169 C129.46283,10.3314355 128.951448,10.2182511 128.434296,10.223494 C127.913734,10.2192254 127.399014,10.3323201 126.929099,10.5542169 C126.461304,10.7727697 126.041106,11.0797205 125.692102,11.4578313 C125.334001,11.8473589 125.052465,12.2996862 124.861963,12.7915663 C124.654085,13.3089172 124.549376,13.8612652 124.553626,14.4180723 L124.553626,19.0319277 C124.554969,20.1201179 124.960164,21.1698389 125.692102,21.9813253 C126.04063,22.3599596 126.46094,22.666992 126.929099,22.8849398 C127.399014,23.1068365 127.913734,23.2199312 128.434296,23.2156627" id="Shape"></path>
                <path d="M30.0674365,8.6746988 C26.3287369,1.43659431 17.6220148,-1.76634238 10.0199658,1.29984769 C2.41791682,4.36603776 -1.55346403,12.6825265 0.875750577,20.4487952 C6.44588915,17.7777108 11.9466975,14.9186747 17.3216166,11.9204819 C18.7994457,11.0963855 21.7003695,12.4355422 19.5383603,13.6445783 C13.7547575,16.863253 7.82337182,19.9246988 1.82448037,22.7710843 C1.85549654,22.8325301 1.88468822,22.8975904 1.91570439,22.9608434 C2.23180293,23.5672481 2.58709935,24.1528035 2.97937644,24.7138554 C9.55966898,21.3704819 16.2117244,18.1698795 22.9355427,15.1120482 C24.0430023,14.6078313 27.277806,15.1445783 25.044642,16.160241 C18.0094457,19.3626506 11.0520939,22.7210843 4.17258661,26.2355422 C9.47055459,32.1113225 18.348572,33.1781665 24.911224,28.7276405 C31.4738759,24.2771145 33.6812025,15.692637 30.0674365,8.6746988 Z" id="Shape"></path>
                <polygon id="Shape" points="147.990901 22.9987952 147.990901 4.90120482 142.60321 4.90120482 142.60321 26.7162651"></polygon>
                <polygon id="Shape" points="142.665242 28.5433735 147.990901 28.5433735 147.990901 24.8710843"></polygon>
                <polygon id="Shape" points="153.739838 3.24216867 152.789284 3.24216867 152.789284 6.84036145 151.911709 6.84036145 151.911709 3.24216867 150.961155 3.24216867 150.961155 2.53012048 153.739838 2.53012048"></polygon>
                <polygon id="Shape" points="155.445727 2.53012048 156.067875 5.57168675 156.078822 5.57168675 156.706443 2.53012048 158 2.53012048 158 6.84036145 157.195404 6.84036145 157.195404 3.40662651 157.182633 3.40662651 156.409053 6.84036145 155.726697 6.84036145 154.953118 3.40662651 154.940346 3.40662651 154.940346 6.84036145 154.135751 6.84036145 154.135751 2.53012048"></polygon>
            </g>
        </g>
    </g>
</svg>