<?xml version="1.0" encoding="UTF-8"?>
<svg width="16px" height="16px" viewBox="0 0 16 16" version="1.1" xmlns="http://www.w3.org/2000/svg" xmlns:xlink="http://www.w3.org/1999/xlink">
    <!-- Generator: Sketch 47 (45396) - http://www.bohemiancoding.com/sketch -->
    <title>Fill 1648</title>
    <desc>Created with Sketch.</desc>
    <defs></defs>
    <g id="Symbols" stroke="none" stroke-width="1" fill="none" fill-rule="evenodd">
        <g id="search" transform="translate(-10.000000, -8.000000)" fill="#5E6174">
            <g id="Fill-1648">
                <path d="M16.495154,19.3665195 C15.1944994,19.3665195 13.9709748,18.8598975 13.0510986,17.9400213 C12.1304105,17.0201451 11.6237885,15.7966205 11.6237885,14.495154 C11.6237885,13.1944994 12.1304105,11.9709748 13.0510986,11.0510986 C13.9709748,10.1304105 15.1944994,9.6237885 16.495154,9.6237885 C17.7958086,9.6237885 19.0193332,10.1304105 19.9392094,11.0510986 C20.8598975,11.9709748 21.3665195,13.1944994 21.3665195,14.495154 C21.3665195,15.7966205 20.8598975,17.0201451 19.9392094,17.9400213 C19.0193332,18.8598975 17.7958086,19.3665195 16.495154,19.3665195 L16.495154,19.3665195 Z M26,22.8519815 L21.6222662,18.4734358 C22.5056071,17.3400315 22.990308,15.9557518 22.990308,14.495154 C22.990308,12.760136 22.3140001,11.1290404 21.0872279,9.90308012 C19.8612676,8.67549602 18.230172,8 16.495154,8 C14.760136,8 13.1290404,8.67549602 11.9030801,9.90308012 C10.6763079,11.1290404 10,12.760136 10,14.495154 C10,16.230172 10.6763079,17.8612676 11.9030801,19.0872279 C13.1290404,20.314812 14.760136,20.990308 16.495154,20.990308 C17.9557518,20.990308 19.3400315,20.506419 20.4734358,19.6214543 L24.8519815,24 L26,22.8519815 Z"></path>
            </g>
        </g>
    </g>
</svg>